<svg width="115" height="31" viewBox="0 0 115 31" fill="none" xmlns="http://www.w3.org/2000/svg">
<path fill-rule="evenodd" clip-rule="evenodd" d="M19.3293 0L24.9084 10.8695L19.79 21.9537L14.211 11.0842L19.3293 0ZM14.4051 4.18306L12.2808 12.2838L19.5412 21.8105L19.5266 21.9903L10.5814 13.8114L11.57 1.5908L14.4051 4.18306ZM9.17606 15.6227L8.38267 7.27453L4.83747 5.8633L8.10896 17.6619L19.2928 22.114L19.2449 21.9408L9.17606 15.6227ZM7.41428 19.8658L3.80399 12.3316L0 12.2811L7.11551 22.1576L19.1162 22.317L19.0121 22.1724L7.41428 19.8658Z" fill="white"/>
<path d="M30.96 6.25C33.1614 6.25 35.1404 6.58398 36.897 7.25195C38.6536 7.91991 40.0433 8.91072 41.0661 10.2244C42.1112 11.5158 42.6338 13.0966 42.6338 14.9669H35.5961C35.5961 14.0095 35.1737 13.2413 34.3288 12.6624C33.4838 12.0613 32.461 11.7607 31.2603 11.7607C29.5258 11.7607 28.2138 12.2283 27.3245 13.1634C26.4351 14.0763 25.9903 15.3788 25.9903 17.071V19.2085C25.9903 20.9007 26.4351 22.2144 27.3245 23.1495C28.2138 24.0624 29.5258 24.5187 31.2603 24.5187C32.461 24.5187 33.4838 24.2405 34.3288 23.6838C35.1737 23.1049 35.5961 22.3702 35.5961 21.4795H30.393V16.8039H42.6338V29.6287H38.8315L38.0977 27.3575C36.0075 29.1388 33.2726 30.0295 29.8927 30.0295C26.0904 30.0295 23.2331 29.0387 21.3209 27.057C19.4086 25.0532 18.4524 22.0807 18.4524 18.1397C18.4524 14.2433 19.5308 11.2931 21.6877 9.28923C23.8669 7.26309 26.9575 6.25 30.96 6.25ZM62.5794 29.6287L61.6122 26.389H53.574L52.6067 29.6287H45.0688L53.4405 6.65078H62.0124L70.3841 29.6287H62.5794ZM55.1083 21.2457H60.078L57.6764 13.0632H57.5431L55.1083 21.2457ZM84.0586 12.5288V29.6287H76.6875V12.5288H69.1496V6.65078H91.5631V12.5288H84.0586ZM94.9212 6.65078H114.767V12.1615H102.292V15.3343H112.965V20.6112H102.292V24.118H115V29.6287H94.9212V6.65078Z" fill="white"/>
</svg>
