<svg width="49" height="32" viewBox="0 0 49 32" fill="none" xmlns="http://www.w3.org/2000/svg">
<mask id="path-1-outside-1_373_344" maskUnits="userSpaceOnUse" x="0" y="0" width="49" height="32" fill="black">
<rect fill="white" width="49" height="32"/>
<path d="M47.8461 15.7025L39.9109 1.45881C39.7893 1.25458 39.5969 1.10434 39.3719 1.03777C39.1469 0.971209 38.9056 0.993168 38.6957 1.09931L35.0502 3.21913C34.8333 3.3464 34.6746 3.55595 34.6086 3.8021C34.5426 4.04824 34.5746 4.31104 34.6977 4.53318L35.4269 6.03317C34.9118 6.39397 34.2845 6.54844 33.6648 6.46705C33.0886 6.37971 32.5198 6.24708 31.9636 6.07036C29.2901 5.33896 24.8304 4.0993 20.4557 6.07036C19.6193 6.42595 18.8439 6.91559 18.159 7.52077C17.7579 7.52077 16.9438 7.37201 16.1053 7.24804C15.2422 6.8948 14.4602 6.36296 13.8086 5.68607L14.3189 4.76871C14.4421 4.54657 14.4741 4.28378 14.4081 4.03763C14.3421 3.79148 14.1834 3.58193 13.9665 3.45467L10.3209 1.33485C10.2133 1.272 10.0943 1.23193 9.97112 1.21702C9.84794 1.20212 9.72308 1.21267 9.60398 1.24807C9.4838 1.27835 9.37104 1.33361 9.27276 1.4104C9.17448 1.4872 9.0928 1.58386 9.03284 1.69435L1.12193 15.9505C1.06033 16.0603 1.02105 16.1817 1.00643 16.3074C0.991818 16.433 1.00217 16.5604 1.03686 16.6819C1.06654 16.8045 1.12072 16.9195 1.19599 17.0198C1.27127 17.12 1.36603 17.2034 1.47433 17.2645L5.11992 19.3844C5.26031 19.4668 5.4197 19.5096 5.58169 19.5083C5.66634 19.5204 5.75223 19.5204 5.83688 19.5083C5.95707 19.478 6.06983 19.4228 6.16811 19.346C6.26639 19.2692 6.34806 19.1725 6.40802 19.062L7.27081 17.5249C7.98642 18.4876 8.76167 19.4027 9.59183 20.2645L9.3974 20.5496C9.11375 20.9642 8.9611 21.4573 8.95993 21.9628C8.96033 22.3551 9.05196 22.7417 9.2273 23.0908C9.40264 23.4399 9.65668 23.7416 9.96854 23.9711C10.3693 24.2733 10.8555 24.4343 11.3539 24.4298H11.4511C11.4144 24.6763 11.4144 24.9271 11.4511 25.1736C11.5626 25.8137 11.916 26.3835 12.4354 26.7603C12.8374 27.0601 13.3228 27.2208 13.8207 27.219C14.0679 27.2199 14.3138 27.1823 14.5498 27.1075C14.6176 27.4603 14.7598 27.7939 14.9665 28.0851C15.1733 28.3763 15.4396 28.6182 15.7471 28.7939C16.0546 28.9696 16.3959 29.075 16.7474 29.1027C17.0988 29.1305 17.4519 29.0799 17.7822 28.9546C17.921 29.5301 18.2573 30.0358 18.7301 30.3802C19.1335 30.6755 19.6189 30.8319 20.1154 30.8264H20.5286C20.8397 30.7756 21.1376 30.6616 21.4047 30.4912C21.6719 30.3209 21.9029 30.0977 22.084 29.8347V29.7603C23.4644 30.4999 24.9865 30.923 26.5438 31C27.0872 30.9942 27.6256 30.8936 28.1357 30.7025C29.0017 30.4317 29.7298 29.8268 30.1651 29.0165H30.5661C31.2466 29.021 31.9122 28.8134 32.4739 28.4215C33.1245 27.9466 33.5826 27.2457 33.762 26.4504C34.5207 26.3685 35.2223 26.0018 35.7307 25.4215C36.1107 24.9827 36.3963 24.4675 36.5691 23.9091C37.0408 23.866 37.4992 23.7263 37.9167 23.4984C38.3343 23.2705 38.7026 22.959 38.9995 22.5827C39.1881 22.2872 39.3165 21.956 39.3771 21.6089C39.4376 21.2618 39.4291 20.9057 39.3519 20.562C39.2903 20.2777 39.1836 20.0055 39.036 19.7562C40.1451 19.2208 41.1244 18.4419 41.9039 17.4753L42.6087 18.7149C42.7327 18.9383 42.9378 19.103 43.1798 19.1736C43.2645 19.1857 43.3503 19.1857 43.435 19.1736C43.5962 19.1692 43.7543 19.1268 43.8968 19.0496L47.5424 16.9298C47.7613 16.8032 47.9228 16.594 47.992 16.3472C48.0213 16.1214 47.9695 15.8924 47.8461 15.7025ZM6.69967 15.9505L5.48448 18.0455L2.31282 16.2976L9.99285 2.54972L13.1645 4.39682L6.69967 15.9505ZM12.3382 22.6199C12.1498 22.8694 11.8755 23.0365 11.5708 23.0871C11.2661 23.1378 10.9539 23.0682 10.6977 22.8926C10.4478 22.7019 10.2794 22.4205 10.2274 22.1067C10.1753 21.7928 10.2437 21.4705 10.4182 21.2067L10.8556 20.562L11.4146 19.7686C11.6018 19.5103 11.88 19.3362 12.1906 19.283C12.5011 19.2299 12.8198 19.3017 13.0794 19.4835C13.3082 19.6546 13.4712 19.902 13.54 20.1827C13.6088 20.4635 13.5791 20.7599 13.4562 21.0207L12.3382 22.6199ZM14.963 25.186L14.805 25.4091C14.7324 25.5782 14.6236 25.7287 14.4867 25.8494C14.3498 25.9701 14.1882 26.0582 14.0136 26.107C13.8391 26.1559 13.6561 26.1644 13.4779 26.1319C13.2998 26.0994 13.131 26.0267 12.9839 25.9191C12.8368 25.8115 12.7151 25.6717 12.6278 25.5101C12.5404 25.3484 12.4895 25.1688 12.4789 24.9845C12.4682 24.8002 12.4981 24.6158 12.5663 24.4447C12.6344 24.2737 12.7392 24.1204 12.8729 23.9959L13.3103 23.3885L14.3068 21.9628L15.6192 20.0786C15.7026 19.939 15.8122 19.8176 15.9418 19.7214C16.0714 19.6252 16.2184 19.5561 16.3742 19.518C16.5301 19.48 16.6918 19.4738 16.85 19.4998C17.0083 19.5258 17.1599 19.5835 17.2962 19.6695C17.4265 19.7603 17.537 19.8777 17.6207 20.0142C17.7043 20.1508 17.7594 20.3035 17.7822 20.4629C17.831 20.7804 17.7569 21.1049 17.5757 21.3678L17.1382 22L14.963 25.186ZM18.1833 26.8967L17.8916 27.3058C17.8179 27.4756 17.7077 27.6263 17.5692 27.7469C17.4307 27.8674 17.2675 27.9547 17.0915 28.0022C16.9155 28.0497 16.7313 28.0563 16.5525 28.0215C16.3737 27.9866 16.2048 27.9112 16.0584 27.8009C15.912 27.6905 15.7917 27.548 15.7065 27.3839C15.6214 27.2197 15.5734 27.0382 15.5663 26.8526C15.5591 26.667 15.5929 26.4822 15.6652 26.3117C15.7374 26.1413 15.8463 25.9896 15.9838 25.8678L18.159 22.7438C18.3075 22.5709 18.5002 22.4435 18.7157 22.376C18.9311 22.3084 19.1607 22.3032 19.3788 22.3611C19.5969 22.419 19.795 22.5376 19.9508 22.7037C20.1066 22.8698 20.2141 23.0769 20.2612 23.3017C20.2918 23.4588 20.2891 23.6208 20.2535 23.7769C20.2179 23.9329 20.1501 24.0794 20.0547 24.2066L19.3255 25.2604L18.1833 26.8967ZM22.2663 27.3802L21.5007 28.4587L21.4035 28.6074L21.0997 29.0289C20.9089 29.2292 20.6574 29.3578 20.3859 29.394C20.1145 29.4302 19.839 29.3718 19.6042 29.2283C19.3693 29.0849 19.1888 28.8647 19.0919 28.6035C18.995 28.3423 18.9874 28.0554 19.0703 27.7893L19.1676 27.6281L20.322 25.9794C20.5121 25.7318 20.7873 25.5672 21.0919 25.5188C21.3965 25.4705 21.7077 25.5421 21.9625 25.719C22.2157 25.91 22.3864 26.1938 22.4385 26.5106C22.4907 26.8274 22.4202 27.1525 22.242 27.4174L22.2663 27.3802ZM37.9423 21.9257C37.4781 22.415 36.8472 22.7035 36.1803 22.7314L28.9985 18.1447C28.8631 18.0561 28.6987 18.026 28.5416 18.0609C28.3844 18.0957 28.2472 18.1927 28.16 18.3306C28.1159 18.3993 28.0859 18.4763 28.0718 18.5571C28.0578 18.6379 28.0599 18.7208 28.078 18.8007C28.0962 18.8806 28.1301 18.956 28.1776 19.0222C28.2251 19.0884 28.2852 19.1442 28.3544 19.186L35.3539 23.6736C35.2292 24.0318 35.035 24.3607 34.7828 24.6405C34.5997 24.8381 34.3794 24.9959 34.1351 25.1045C33.8908 25.2131 33.6275 25.2704 33.361 25.2728L27.0177 21.6529C26.8759 21.5724 26.7085 21.5526 26.5524 21.5979C26.3963 21.6433 26.2643 21.75 26.1853 21.8947C26.1063 22.0393 26.087 22.2101 26.1314 22.3693C26.1758 22.5286 26.2805 22.6633 26.4223 22.7438L32.4982 26.2025C32.3926 26.7036 32.1064 27.1461 31.6962 27.4422C31.4356 27.6167 31.1418 27.7335 30.8341 27.7847C30.5263 27.836 30.2114 27.8206 29.9099 27.7397H29.837C29.7994 27.703 29.7588 27.6698 29.7154 27.6405L24.8547 25.1612C24.713 25.101 24.5544 25.0977 24.4104 25.152C24.2665 25.2063 24.1481 25.314 24.0789 25.4537C24.0096 25.5934 23.9948 25.7546 24.0372 25.905C24.0797 26.0554 24.1764 26.1838 24.3078 26.2645L28.962 28.657C28.67 29.0966 28.2422 29.4238 27.7468 29.5868C26.0755 29.8952 24.3512 29.5829 22.8861 28.7066L23.2749 28.0992C23.6437 27.5668 23.7922 26.9077 23.6881 26.2645C23.5905 25.7156 23.3142 25.2164 22.9041 24.8475C22.494 24.4786 21.9738 24.2615 21.4278 24.2314C21.5373 23.8577 21.5622 23.4635 21.5007 23.0785C21.3923 22.4404 21.0434 21.8709 20.5286 21.4918C20.09 21.1728 19.56 21.0114 19.0217 21.0331C19.058 20.7949 19.058 20.5523 19.0217 20.3141C18.9337 19.8409 18.7124 19.4042 18.385 19.0572C18.0576 18.7103 17.6382 18.4681 17.1781 18.3603C16.718 18.2525 16.237 18.2837 15.794 18.4501C15.351 18.6166 14.9651 18.9111 14.6835 19.2976L14.5741 19.4463C14.4075 19.0602 14.138 18.7295 13.7964 18.4918C13.2753 18.1206 12.6324 17.9724 12.0054 18.079C11.3785 18.1856 10.8174 18.5385 10.4425 19.062L10.3453 19.186C9.47449 18.2737 8.66265 17.3047 7.91486 16.2852L13.2131 6.78937C13.991 7.57795 14.9403 8.1683 15.9838 8.5125L17.1989 8.68605C16.5655 9.51982 16.1177 10.4843 15.8865 11.5125C15.7785 11.9708 15.7877 12.4498 15.9133 12.9035C16.0388 13.3571 16.2765 13.7703 16.6035 14.1034C16.9153 14.4249 17.3011 14.6615 17.7257 14.7914C18.1503 14.9214 18.6001 14.9406 19.0339 14.8472C19.9602 14.6557 20.7932 14.1433 21.3914 13.3968L22.6066 11.748L24.32 11.2893C29.11 13.4758 33.5408 16.4027 37.4562 19.967H37.5291C37.5644 20.0097 37.6053 20.0472 37.6507 20.0786C37.8982 20.2644 38.0676 20.539 38.1246 20.8472C38.1667 21.0302 38.1723 21.22 38.141 21.4053C38.1097 21.5906 38.0421 21.7676 37.9423 21.9257ZM38.1003 18.8389C34.0963 15.207 29.5566 12.2409 24.6481 10.0497C24.536 10.0249 24.4199 10.0249 24.3078 10.0497C24.2272 10.038 24.1454 10.038 24.0648 10.0497L22.1812 10.5579C21.9799 10.6168 21.8015 10.7381 21.6709 10.9051L20.4557 12.6158C20.027 13.134 19.4411 13.4917 18.7909 13.6323C18.5523 13.6835 18.3049 13.6729 18.0714 13.6015C17.8379 13.53 17.6257 13.4 17.4541 13.2232C17.2728 13.0356 17.1409 12.8042 17.0708 12.5506C17.0007 12.297 16.9946 12.0295 17.0531 11.7728C17.3213 10.5703 17.9499 9.48275 18.8516 8.66126C19.5053 8.06901 20.2479 7.58768 21.0511 7.23564C25.0126 5.46293 29.2294 6.62821 31.7448 7.32242C32.3679 7.52085 33.006 7.66598 33.6527 7.7563C34.5058 7.84894 35.3641 7.63879 36.0831 7.16127L41.2112 16.3596C40.4236 17.4733 39.3399 18.3337 38.0881 18.8389H38.1003ZM43.4958 17.9215L42.3535 15.8761L36.9945 6.26871L35.84 4.19847L38.9995 2.31418L46.6553 16.0744L43.4958 17.9215Z"/>
</mask>
<path d="M47.8461 15.7025L39.9109 1.45881C39.7893 1.25458 39.5969 1.10434 39.3719 1.03777C39.1469 0.971209 38.9056 0.993168 38.6957 1.09931L35.0502 3.21913C34.8333 3.3464 34.6746 3.55595 34.6086 3.8021C34.5426 4.04824 34.5746 4.31104 34.6977 4.53318L35.4269 6.03317C34.9118 6.39397 34.2845 6.54844 33.6648 6.46705C33.0886 6.37971 32.5198 6.24708 31.9636 6.07036C29.2901 5.33896 24.8304 4.0993 20.4557 6.07036C19.6193 6.42595 18.8439 6.91559 18.159 7.52077C17.7579 7.52077 16.9438 7.37201 16.1053 7.24804C15.2422 6.8948 14.4602 6.36296 13.8086 5.68607L14.3189 4.76871C14.4421 4.54657 14.4741 4.28378 14.4081 4.03763C14.3421 3.79148 14.1834 3.58193 13.9665 3.45467L10.3209 1.33485C10.2133 1.272 10.0943 1.23193 9.97112 1.21702C9.84794 1.20212 9.72308 1.21267 9.60398 1.24807C9.4838 1.27835 9.37104 1.33361 9.27276 1.4104C9.17448 1.4872 9.0928 1.58386 9.03284 1.69435L1.12193 15.9505C1.06033 16.0603 1.02105 16.1817 1.00643 16.3074C0.991818 16.433 1.00217 16.5604 1.03686 16.6819C1.06654 16.8045 1.12072 16.9195 1.19599 17.0198C1.27127 17.12 1.36603 17.2034 1.47433 17.2645L5.11992 19.3844C5.26031 19.4668 5.4197 19.5096 5.58169 19.5083C5.66634 19.5204 5.75223 19.5204 5.83688 19.5083C5.95707 19.478 6.06983 19.4228 6.16811 19.346C6.26639 19.2692 6.34806 19.1725 6.40802 19.062L7.27081 17.5249C7.98642 18.4876 8.76167 19.4027 9.59183 20.2645L9.3974 20.5496C9.11375 20.9642 8.9611 21.4573 8.95993 21.9628C8.96033 22.3551 9.05196 22.7417 9.2273 23.0908C9.40264 23.4399 9.65668 23.7416 9.96854 23.9711C10.3693 24.2733 10.8555 24.4343 11.3539 24.4298H11.4511C11.4144 24.6763 11.4144 24.9271 11.4511 25.1736C11.5626 25.8137 11.916 26.3835 12.4354 26.7603C12.8374 27.0601 13.3228 27.2208 13.8207 27.219C14.0679 27.2199 14.3138 27.1823 14.5498 27.1075C14.6176 27.4603 14.7598 27.7939 14.9665 28.0851C15.1733 28.3763 15.4396 28.6182 15.7471 28.7939C16.0546 28.9696 16.3959 29.075 16.7474 29.1027C17.0988 29.1305 17.4519 29.0799 17.7822 28.9546C17.921 29.5301 18.2573 30.0358 18.7301 30.3802C19.1335 30.6755 19.6189 30.8319 20.1154 30.8264H20.5286C20.8397 30.7756 21.1376 30.6616 21.4047 30.4912C21.6719 30.3209 21.9029 30.0977 22.084 29.8347V29.7603C23.4644 30.4999 24.9865 30.923 26.5438 31C27.0872 30.9942 27.6256 30.8936 28.1357 30.7025C29.0017 30.4317 29.7298 29.8268 30.1651 29.0165H30.5661C31.2466 29.021 31.9122 28.8134 32.4739 28.4215C33.1245 27.9466 33.5826 27.2457 33.762 26.4504C34.5207 26.3685 35.2223 26.0018 35.7307 25.4215C36.1107 24.9827 36.3963 24.4675 36.5691 23.9091C37.0408 23.866 37.4992 23.7263 37.9167 23.4984C38.3343 23.2705 38.7026 22.959 38.9995 22.5827C39.1881 22.2872 39.3165 21.956 39.3771 21.6089C39.4376 21.2618 39.4291 20.9057 39.3519 20.562C39.2903 20.2777 39.1836 20.0055 39.036 19.7562C40.1451 19.2208 41.1244 18.4419 41.9039 17.4753L42.6087 18.7149C42.7327 18.9383 42.9378 19.103 43.1798 19.1736C43.2645 19.1857 43.3503 19.1857 43.435 19.1736C43.5962 19.1692 43.7543 19.1268 43.8968 19.0496L47.5424 16.9298C47.7613 16.8032 47.9228 16.594 47.992 16.3472C48.0213 16.1214 47.9695 15.8924 47.8461 15.7025ZM6.69967 15.9505L5.48448 18.0455L2.31282 16.2976L9.99285 2.54972L13.1645 4.39682L6.69967 15.9505ZM12.3382 22.6199C12.1498 22.8694 11.8755 23.0365 11.5708 23.0871C11.2661 23.1378 10.9539 23.0682 10.6977 22.8926C10.4478 22.7019 10.2794 22.4205 10.2274 22.1067C10.1753 21.7928 10.2437 21.4705 10.4182 21.2067L10.8556 20.562L11.4146 19.7686C11.6018 19.5103 11.88 19.3362 12.1906 19.283C12.5011 19.2299 12.8198 19.3017 13.0794 19.4835C13.3082 19.6546 13.4712 19.902 13.54 20.1827C13.6088 20.4635 13.5791 20.7599 13.4562 21.0207L12.3382 22.6199ZM14.963 25.186L14.805 25.4091C14.7324 25.5782 14.6236 25.7287 14.4867 25.8494C14.3498 25.9701 14.1882 26.0582 14.0136 26.107C13.8391 26.1559 13.6561 26.1644 13.4779 26.1319C13.2998 26.0994 13.131 26.0267 12.9839 25.9191C12.8368 25.8115 12.7151 25.6717 12.6278 25.5101C12.5404 25.3484 12.4895 25.1688 12.4789 24.9845C12.4682 24.8002 12.4981 24.6158 12.5663 24.4447C12.6344 24.2737 12.7392 24.1204 12.8729 23.9959L13.3103 23.3885L14.3068 21.9628L15.6192 20.0786C15.7026 19.939 15.8122 19.8176 15.9418 19.7214C16.0714 19.6252 16.2184 19.5561 16.3742 19.518C16.5301 19.48 16.6918 19.4738 16.85 19.4998C17.0083 19.5258 17.1599 19.5835 17.2962 19.6695C17.4265 19.7603 17.537 19.8777 17.6207 20.0142C17.7043 20.1508 17.7594 20.3035 17.7822 20.4629C17.831 20.7804 17.7569 21.1049 17.5757 21.3678L17.1382 22L14.963 25.186ZM18.1833 26.8967L17.8916 27.3058C17.8179 27.4756 17.7077 27.6263 17.5692 27.7469C17.4307 27.8674 17.2675 27.9547 17.0915 28.0022C16.9155 28.0497 16.7313 28.0563 16.5525 28.0215C16.3737 27.9866 16.2048 27.9112 16.0584 27.8009C15.912 27.6905 15.7917 27.548 15.7065 27.3839C15.6214 27.2197 15.5734 27.0382 15.5663 26.8526C15.5591 26.667 15.5929 26.4822 15.6652 26.3117C15.7374 26.1413 15.8463 25.9896 15.9838 25.8678L18.159 22.7438C18.3075 22.5709 18.5002 22.4435 18.7157 22.376C18.9311 22.3084 19.1607 22.3032 19.3788 22.3611C19.5969 22.419 19.795 22.5376 19.9508 22.7037C20.1066 22.8698 20.2141 23.0769 20.2612 23.3017C20.2918 23.4588 20.2891 23.6208 20.2535 23.7769C20.2179 23.9329 20.1501 24.0794 20.0547 24.2066L19.3255 25.2604L18.1833 26.8967ZM22.2663 27.3802L21.5007 28.4587L21.4035 28.6074L21.0997 29.0289C20.9089 29.2292 20.6574 29.3578 20.3859 29.394C20.1145 29.4302 19.839 29.3718 19.6042 29.2283C19.3693 29.0849 19.1888 28.8647 19.0919 28.6035C18.995 28.3423 18.9874 28.0554 19.0703 27.7893L19.1676 27.6281L20.322 25.9794C20.5121 25.7318 20.7873 25.5672 21.0919 25.5188C21.3965 25.4705 21.7077 25.5421 21.9625 25.719C22.2157 25.91 22.3864 26.1938 22.4385 26.5106C22.4907 26.8274 22.4202 27.1525 22.242 27.4174L22.2663 27.3802ZM37.9423 21.9257C37.4781 22.415 36.8472 22.7035 36.1803 22.7314L28.9985 18.1447C28.8631 18.0561 28.6987 18.026 28.5416 18.0609C28.3844 18.0957 28.2472 18.1927 28.16 18.3306C28.1159 18.3993 28.0859 18.4763 28.0718 18.5571C28.0578 18.6379 28.0599 18.7208 28.078 18.8007C28.0962 18.8806 28.1301 18.956 28.1776 19.0222C28.2251 19.0884 28.2852 19.1442 28.3544 19.186L35.3539 23.6736C35.2292 24.0318 35.035 24.3607 34.7828 24.6405C34.5997 24.8381 34.3794 24.9959 34.1351 25.1045C33.8908 25.2131 33.6275 25.2704 33.361 25.2728L27.0177 21.6529C26.8759 21.5724 26.7085 21.5526 26.5524 21.5979C26.3963 21.6433 26.2643 21.75 26.1853 21.8947C26.1063 22.0393 26.087 22.2101 26.1314 22.3693C26.1758 22.5286 26.2805 22.6633 26.4223 22.7438L32.4982 26.2025C32.3926 26.7036 32.1064 27.1461 31.6962 27.4422C31.4356 27.6167 31.1418 27.7335 30.8341 27.7847C30.5263 27.836 30.2114 27.8206 29.9099 27.7397H29.837C29.7994 27.703 29.7588 27.6698 29.7154 27.6405L24.8547 25.1612C24.713 25.101 24.5544 25.0977 24.4104 25.152C24.2665 25.2063 24.1481 25.314 24.0789 25.4537C24.0096 25.5934 23.9948 25.7546 24.0372 25.905C24.0797 26.0554 24.1764 26.1838 24.3078 26.2645L28.962 28.657C28.67 29.0966 28.2422 29.4238 27.7468 29.5868C26.0755 29.8952 24.3512 29.5829 22.8861 28.7066L23.2749 28.0992C23.6437 27.5668 23.7922 26.9077 23.6881 26.2645C23.5905 25.7156 23.3142 25.2164 22.9041 24.8475C22.494 24.4786 21.9738 24.2615 21.4278 24.2314C21.5373 23.8577 21.5622 23.4635 21.5007 23.0785C21.3923 22.4404 21.0434 21.8709 20.5286 21.4918C20.09 21.1728 19.56 21.0114 19.0217 21.0331C19.058 20.7949 19.058 20.5523 19.0217 20.3141C18.9337 19.8409 18.7124 19.4042 18.385 19.0572C18.0576 18.7103 17.6382 18.4681 17.1781 18.3603C16.718 18.2525 16.237 18.2837 15.794 18.4501C15.351 18.6166 14.9651 18.9111 14.6835 19.2976L14.5741 19.4463C14.4075 19.0602 14.138 18.7295 13.7964 18.4918C13.2753 18.1206 12.6324 17.9724 12.0054 18.079C11.3785 18.1856 10.8174 18.5385 10.4425 19.062L10.3453 19.186C9.47449 18.2737 8.66265 17.3047 7.91486 16.2852L13.2131 6.78937C13.991 7.57795 14.9403 8.1683 15.9838 8.5125L17.1989 8.68605C16.5655 9.51982 16.1177 10.4843 15.8865 11.5125C15.7785 11.9708 15.7877 12.4498 15.9133 12.9035C16.0388 13.3571 16.2765 13.7703 16.6035 14.1034C16.9153 14.4249 17.3011 14.6615 17.7257 14.7914C18.1503 14.9214 18.6001 14.9406 19.0339 14.8472C19.9602 14.6557 20.7932 14.1433 21.3914 13.3968L22.6066 11.748L24.32 11.2893C29.11 13.4758 33.5408 16.4027 37.4562 19.967H37.5291C37.5644 20.0097 37.6053 20.0472 37.6507 20.0786C37.8982 20.2644 38.0676 20.539 38.1246 20.8472C38.1667 21.0302 38.1723 21.22 38.141 21.4053C38.1097 21.5906 38.0421 21.7676 37.9423 21.9257ZM38.1003 18.8389C34.0963 15.207 29.5566 12.2409 24.6481 10.0497C24.536 10.0249 24.4199 10.0249 24.3078 10.0497C24.2272 10.038 24.1454 10.038 24.0648 10.0497L22.1812 10.5579C21.9799 10.6168 21.8015 10.7381 21.6709 10.9051L20.4557 12.6158C20.027 13.134 19.4411 13.4917 18.7909 13.6323C18.5523 13.6835 18.3049 13.6729 18.0714 13.6015C17.8379 13.53 17.6257 13.4 17.4541 13.2232C17.2728 13.0356 17.1409 12.8042 17.0708 12.5506C17.0007 12.297 16.9946 12.0295 17.0531 11.7728C17.3213 10.5703 17.9499 9.48275 18.8516 8.66126C19.5053 8.06901 20.2479 7.58768 21.0511 7.23564C25.0126 5.46293 29.2294 6.62821 31.7448 7.32242C32.3679 7.52085 33.006 7.66598 33.6527 7.7563C34.5058 7.84894 35.3641 7.63879 36.0831 7.16127L41.2112 16.3596C40.4236 17.4733 39.3399 18.3337 38.0881 18.8389H38.1003ZM43.4958 17.9215L42.3535 15.8761L36.9945 6.26871L35.84 4.19847L38.9995 2.31418L46.6553 16.0744L43.4958 17.9215Z" fill="#06726F"/>
<path d="M47.8461 15.7025L39.9109 1.45881C39.7893 1.25458 39.5969 1.10434 39.3719 1.03777C39.1469 0.971209 38.9056 0.993168 38.6957 1.09931L35.0502 3.21913C34.8333 3.3464 34.6746 3.55595 34.6086 3.8021C34.5426 4.04824 34.5746 4.31104 34.6977 4.53318L35.4269 6.03317C34.9118 6.39397 34.2845 6.54844 33.6648 6.46705C33.0886 6.37971 32.5198 6.24708 31.9636 6.07036C29.2901 5.33896 24.8304 4.0993 20.4557 6.07036C19.6193 6.42595 18.8439 6.91559 18.159 7.52077C17.7579 7.52077 16.9438 7.37201 16.1053 7.24804C15.2422 6.8948 14.4602 6.36296 13.8086 5.68607L14.3189 4.76871C14.4421 4.54657 14.4741 4.28378 14.4081 4.03763C14.3421 3.79148 14.1834 3.58193 13.9665 3.45467L10.3209 1.33485C10.2133 1.272 10.0943 1.23193 9.97112 1.21702C9.84794 1.20212 9.72308 1.21267 9.60398 1.24807C9.4838 1.27835 9.37104 1.33361 9.27276 1.4104C9.17448 1.4872 9.0928 1.58386 9.03284 1.69435L1.12193 15.9505C1.06033 16.0603 1.02105 16.1817 1.00643 16.3074C0.991818 16.433 1.00217 16.5604 1.03686 16.6819C1.06654 16.8045 1.12072 16.9195 1.19599 17.0198C1.27127 17.12 1.36603 17.2034 1.47433 17.2645L5.11992 19.3844C5.26031 19.4668 5.4197 19.5096 5.58169 19.5083C5.66634 19.5204 5.75223 19.5204 5.83688 19.5083C5.95707 19.478 6.06983 19.4228 6.16811 19.346C6.26639 19.2692 6.34806 19.1725 6.40802 19.062L7.27081 17.5249C7.98642 18.4876 8.76167 19.4027 9.59183 20.2645L9.3974 20.5496C9.11375 20.9642 8.9611 21.4573 8.95993 21.9628C8.96033 22.3551 9.05196 22.7417 9.2273 23.0908C9.40264 23.4399 9.65668 23.7416 9.96854 23.9711C10.3693 24.2733 10.8555 24.4343 11.3539 24.4298H11.4511C11.4144 24.6763 11.4144 24.9271 11.4511 25.1736C11.5626 25.8137 11.916 26.3835 12.4354 26.7603C12.8374 27.0601 13.3228 27.2208 13.8207 27.219C14.0679 27.2199 14.3138 27.1823 14.5498 27.1075C14.6176 27.4603 14.7598 27.7939 14.9665 28.0851C15.1733 28.3763 15.4396 28.6182 15.7471 28.7939C16.0546 28.9696 16.3959 29.075 16.7474 29.1027C17.0988 29.1305 17.4519 29.0799 17.7822 28.9546C17.921 29.5301 18.2573 30.0358 18.7301 30.3802C19.1335 30.6755 19.6189 30.8319 20.1154 30.8264H20.5286C20.8397 30.7756 21.1376 30.6616 21.4047 30.4912C21.6719 30.3209 21.9029 30.0977 22.084 29.8347V29.7603C23.4644 30.4999 24.9865 30.923 26.5438 31C27.0872 30.9942 27.6256 30.8936 28.1357 30.7025C29.0017 30.4317 29.7298 29.8268 30.1651 29.0165H30.5661C31.2466 29.021 31.9122 28.8134 32.4739 28.4215C33.1245 27.9466 33.5826 27.2457 33.762 26.4504C34.5207 26.3685 35.2223 26.0018 35.7307 25.4215C36.1107 24.9827 36.3963 24.4675 36.5691 23.9091C37.0408 23.866 37.4992 23.7263 37.9167 23.4984C38.3343 23.2705 38.7026 22.959 38.9995 22.5827C39.1881 22.2872 39.3165 21.956 39.3771 21.6089C39.4376 21.2618 39.4291 20.9057 39.3519 20.562C39.2903 20.2777 39.1836 20.0055 39.036 19.7562C40.1451 19.2208 41.1244 18.4419 41.9039 17.4753L42.6087 18.7149C42.7327 18.9383 42.9378 19.103 43.1798 19.1736C43.2645 19.1857 43.3503 19.1857 43.435 19.1736C43.5962 19.1692 43.7543 19.1268 43.8968 19.0496L47.5424 16.9298C47.7613 16.8032 47.9228 16.594 47.992 16.3472C48.0213 16.1214 47.9695 15.8924 47.8461 15.7025ZM6.69967 15.9505L5.48448 18.0455L2.31282 16.2976L9.99285 2.54972L13.1645 4.39682L6.69967 15.9505ZM12.3382 22.6199C12.1498 22.8694 11.8755 23.0365 11.5708 23.0871C11.2661 23.1378 10.9539 23.0682 10.6977 22.8926C10.4478 22.7019 10.2794 22.4205 10.2274 22.1067C10.1753 21.7928 10.2437 21.4705 10.4182 21.2067L10.8556 20.562L11.4146 19.7686C11.6018 19.5103 11.88 19.3362 12.1906 19.283C12.5011 19.2299 12.8198 19.3017 13.0794 19.4835C13.3082 19.6546 13.4712 19.902 13.54 20.1827C13.6088 20.4635 13.5791 20.7599 13.4562 21.0207L12.3382 22.6199ZM14.963 25.186L14.805 25.4091C14.7324 25.5782 14.6236 25.7287 14.4867 25.8494C14.3498 25.9701 14.1882 26.0582 14.0136 26.107C13.8391 26.1559 13.6561 26.1644 13.4779 26.1319C13.2998 26.0994 13.131 26.0267 12.9839 25.9191C12.8368 25.8115 12.7151 25.6717 12.6278 25.5101C12.5404 25.3484 12.4895 25.1688 12.4789 24.9845C12.4682 24.8002 12.4981 24.6158 12.5663 24.4447C12.6344 24.2737 12.7392 24.1204 12.8729 23.9959L13.3103 23.3885L14.3068 21.9628L15.6192 20.0786C15.7026 19.939 15.8122 19.8176 15.9418 19.7214C16.0714 19.6252 16.2184 19.5561 16.3742 19.518C16.5301 19.48 16.6918 19.4738 16.85 19.4998C17.0083 19.5258 17.1599 19.5835 17.2962 19.6695C17.4265 19.7603 17.537 19.8777 17.6207 20.0142C17.7043 20.1508 17.7594 20.3035 17.7822 20.4629C17.831 20.7804 17.7569 21.1049 17.5757 21.3678L17.1382 22L14.963 25.186ZM18.1833 26.8967L17.8916 27.3058C17.8179 27.4756 17.7077 27.6263 17.5692 27.7469C17.4307 27.8674 17.2675 27.9547 17.0915 28.0022C16.9155 28.0497 16.7313 28.0563 16.5525 28.0215C16.3737 27.9866 16.2048 27.9112 16.0584 27.8009C15.912 27.6905 15.7917 27.548 15.7065 27.3839C15.6214 27.2197 15.5734 27.0382 15.5663 26.8526C15.5591 26.667 15.5929 26.4822 15.6652 26.3117C15.7374 26.1413 15.8463 25.9896 15.9838 25.8678L18.159 22.7438C18.3075 22.5709 18.5002 22.4435 18.7157 22.376C18.9311 22.3084 19.1607 22.3032 19.3788 22.3611C19.5969 22.419 19.795 22.5376 19.9508 22.7037C20.1066 22.8698 20.2141 23.0769 20.2612 23.3017C20.2918 23.4588 20.2891 23.6208 20.2535 23.7769C20.2179 23.9329 20.1501 24.0794 20.0547 24.2066L19.3255 25.2604L18.1833 26.8967ZM22.2663 27.3802L21.5007 28.4587L21.4035 28.6074L21.0997 29.0289C20.9089 29.2292 20.6574 29.3578 20.3859 29.394C20.1145 29.4302 19.839 29.3718 19.6042 29.2283C19.3693 29.0849 19.1888 28.8647 19.0919 28.6035C18.995 28.3423 18.9874 28.0554 19.0703 27.7893L19.1676 27.6281L20.322 25.9794C20.5121 25.7318 20.7873 25.5672 21.0919 25.5188C21.3965 25.4705 21.7077 25.5421 21.9625 25.719C22.2157 25.91 22.3864 26.1938 22.4385 26.5106C22.4907 26.8274 22.4202 27.1525 22.242 27.4174L22.2663 27.3802ZM37.9423 21.9257C37.4781 22.415 36.8472 22.7035 36.1803 22.7314L28.9985 18.1447C28.8631 18.0561 28.6987 18.026 28.5416 18.0609C28.3844 18.0957 28.2472 18.1927 28.16 18.3306C28.1159 18.3993 28.0859 18.4763 28.0718 18.5571C28.0578 18.6379 28.0599 18.7208 28.078 18.8007C28.0962 18.8806 28.1301 18.956 28.1776 19.0222C28.2251 19.0884 28.2852 19.1442 28.3544 19.186L35.3539 23.6736C35.2292 24.0318 35.035 24.3607 34.7828 24.6405C34.5997 24.8381 34.3794 24.9959 34.1351 25.1045C33.8908 25.2131 33.6275 25.2704 33.361 25.2728L27.0177 21.6529C26.8759 21.5724 26.7085 21.5526 26.5524 21.5979C26.3963 21.6433 26.2643 21.75 26.1853 21.8947C26.1063 22.0393 26.087 22.2101 26.1314 22.3693C26.1758 22.5286 26.2805 22.6633 26.4223 22.7438L32.4982 26.2025C32.3926 26.7036 32.1064 27.1461 31.6962 27.4422C31.4356 27.6167 31.1418 27.7335 30.8341 27.7847C30.5263 27.836 30.2114 27.8206 29.9099 27.7397H29.837C29.7994 27.703 29.7588 27.6698 29.7154 27.6405L24.8547 25.1612C24.713 25.101 24.5544 25.0977 24.4104 25.152C24.2665 25.2063 24.1481 25.314 24.0789 25.4537C24.0096 25.5934 23.9948 25.7546 24.0372 25.905C24.0797 26.0554 24.1764 26.1838 24.3078 26.2645L28.962 28.657C28.67 29.0966 28.2422 29.4238 27.7468 29.5868C26.0755 29.8952 24.3512 29.5829 22.8861 28.7066L23.2749 28.0992C23.6437 27.5668 23.7922 26.9077 23.6881 26.2645C23.5905 25.7156 23.3142 25.2164 22.9041 24.8475C22.494 24.4786 21.9738 24.2615 21.4278 24.2314C21.5373 23.8577 21.5622 23.4635 21.5007 23.0785C21.3923 22.4404 21.0434 21.8709 20.5286 21.4918C20.09 21.1728 19.56 21.0114 19.0217 21.0331C19.058 20.7949 19.058 20.5523 19.0217 20.3141C18.9337 19.8409 18.7124 19.4042 18.385 19.0572C18.0576 18.7103 17.6382 18.4681 17.1781 18.3603C16.718 18.2525 16.237 18.2837 15.794 18.4501C15.351 18.6166 14.9651 18.9111 14.6835 19.2976L14.5741 19.4463C14.4075 19.0602 14.138 18.7295 13.7964 18.4918C13.2753 18.1206 12.6324 17.9724 12.0054 18.079C11.3785 18.1856 10.8174 18.5385 10.4425 19.062L10.3453 19.186C9.47449 18.2737 8.66265 17.3047 7.91486 16.2852L13.2131 6.78937C13.991 7.57795 14.9403 8.1683 15.9838 8.5125L17.1989 8.68605C16.5655 9.51982 16.1177 10.4843 15.8865 11.5125C15.7785 11.9708 15.7877 12.4498 15.9133 12.9035C16.0388 13.3571 16.2765 13.7703 16.6035 14.1034C16.9153 14.4249 17.3011 14.6615 17.7257 14.7914C18.1503 14.9214 18.6001 14.9406 19.0339 14.8472C19.9602 14.6557 20.7932 14.1433 21.3914 13.3968L22.6066 11.748L24.32 11.2893C29.11 13.4758 33.5408 16.4027 37.4562 19.967H37.5291C37.5644 20.0097 37.6053 20.0472 37.6507 20.0786C37.8982 20.2644 38.0676 20.539 38.1246 20.8472C38.1667 21.0302 38.1723 21.22 38.141 21.4053C38.1097 21.5906 38.0421 21.7676 37.9423 21.9257ZM38.1003 18.8389C34.0963 15.207 29.5566 12.2409 24.6481 10.0497C24.536 10.0249 24.4199 10.0249 24.3078 10.0497C24.2272 10.038 24.1454 10.038 24.0648 10.0497L22.1812 10.5579C21.9799 10.6168 21.8015 10.7381 21.6709 10.9051L20.4557 12.6158C20.027 13.134 19.4411 13.4917 18.7909 13.6323C18.5523 13.6835 18.3049 13.6729 18.0714 13.6015C17.8379 13.53 17.6257 13.4 17.4541 13.2232C17.2728 13.0356 17.1409 12.8042 17.0708 12.5506C17.0007 12.297 16.9946 12.0295 17.0531 11.7728C17.3213 10.5703 17.9499 9.48275 18.8516 8.66126C19.5053 8.06901 20.2479 7.58768 21.0511 7.23564C25.0126 5.46293 29.2294 6.62821 31.7448 7.32242C32.3679 7.52085 33.006 7.66598 33.6527 7.7563C34.5058 7.84894 35.3641 7.63879 36.0831 7.16127L41.2112 16.3596C40.4236 17.4733 39.3399 18.3337 38.0881 18.8389H38.1003ZM43.4958 17.9215L42.3535 15.8761L36.9945 6.26871L35.84 4.19847L38.9995 2.31418L46.6553 16.0744L43.4958 17.9215Z" stroke="#06726F" stroke-width="0.28" mask="url(#path-1-outside-1_373_344)"/>
</svg>
