<?xml version="1.0" encoding="utf-8"?>
<!-- Generator: Adobe Illustrator 19.0.0, SVG Export Plug-In . SVG Version: 6.00 Build 0)  -->
<svg version="1.1" id="Layer_1" xmlns="http://www.w3.org/2000/svg" xmlns:xlink="http://www.w3.org/1999/xlink" x="0px" y="0px"
	 viewBox="-98 106 44 30" style="enable-background:new -98 106 44 30;" xml:space="preserve">
<style type="text/css">
	.st0{fill:#06726F;}
</style>
<path class="st0" d="M-55,109.2h-3.1V107c0-0.3-0.1-0.5-0.3-0.7c-0.2-0.2-0.4-0.3-0.7-0.3c-10.3,0-15.6,1.7-17,2.2
	c-1.4-0.5-6.7-2.2-17-2.2c-0.3,0-0.5,0.1-0.7,0.3c-0.2,0.2-0.3,0.4-0.3,0.7v2.3H-97c-0.3,0-0.5,0.1-0.7,0.3
	c-0.2,0.2-0.3,0.4-0.3,0.7v24.1c0,0.3,0.1,0.5,0.3,0.7c0.2,0.2,0.4,0.3,0.7,0.3H-55c0.3,0,0.5-0.1,0.7-0.3c0.2-0.2,0.3-0.4,0.3-0.7
	v-24.1c0-0.3-0.1-0.5-0.3-0.7C-54.5,109.3-54.7,109.2-55,109.2z M-77,133.4h-19.1v-22.2h2.2v17.6c0,0.3,0.1,0.5,0.3,0.7
	c0.2,0.2,0.4,0.3,0.7,0.3c9.3,0,14.4,1.4,16,2V133.4z M-77,110.2v19.4c-2.2-0.6-7-1.8-15-1.9v-19.8c8.7,0.1,13.5,1.4,15,2V110.2z
	 M-75.1,111.1v-1.3c1.6-0.5,6.3-1.9,15-2v19.8c-8.1,0.1-12.9,1.2-15,1.9V111.1z M-55.9,133.4h-19.1v-1.8c1.6-0.5,6.7-2,16-2
	c0.3,0,0.5-0.1,0.7-0.3c0.2-0.2,0.3-0.4,0.3-0.7v-17.6h2.2L-55.9,133.4z"/>
</svg>
