<svg width="21" height="20" viewBox="0 0 21 20" fill="none" xmlns="http://www.w3.org/2000/svg">
<g clip-path="url(#clip0_443_315)">
<path d="M20.5 10C20.5 15.5234 16.0234 20 10.5 20C4.97656 20 0.5 15.5234 0.5 10C0.5 4.47656 4.97656 0 10.5 0C16.0234 0 20.5 4.47656 20.5 10Z" fill="#A6CE39"/>
<path d="M7.24219 14.5469H6.03906V6.17969H7.24219V9.96094V14.5469Z" fill="white"/>
<path d="M9.00781 6.17969H12.2578C15.3516 6.17969 16.7109 8.39063 16.7109 10.3672C16.7109 12.5156 15.0312 14.5547 12.2734 14.5547H9.00781V6.17969ZM10.2109 13.4688H12.125C14.8516 13.4688 15.4766 11.3984 15.4766 10.3672C15.4766 8.6875 14.4062 7.26563 12.0625 7.26563H10.2109V13.4688Z" fill="white"/>
<path d="M7.42969 4.4375C7.42969 4.86719 7.07812 5.22656 6.64062 5.22656C6.20312 5.22656 5.85156 4.86719 5.85156 4.4375C5.85156 4 6.20312 3.64844 6.64062 3.64844C7.07812 3.64844 7.42969 4.00781 7.42969 4.4375Z" fill="white"/>
</g>
<defs>
<clipPath id="clip0_443_315">
<rect width="20" height="20" fill="white" transform="translate(0.5)"/>
</clipPath>
</defs>
</svg>
