<?xml version="1.0" encoding="utf-8"?>
<!-- Generator: Adobe Illustrator 19.0.0, SVG Export Plug-In . SVG Version: 6.00 Build 0)  -->
<svg version="1.1" id="Layer_1" xmlns="http://www.w3.org/2000/svg" xmlns:xlink="http://www.w3.org/1999/xlink" x="0px" y="0px"
	 viewBox="-100 101 40 40" style="enable-background:new -100 101 40 40;" xml:space="preserve">
<style type="text/css">
	.st0{fill:#06726F;}
	.st1{fill:#FFFFFF;filter:url(#Adobe_OpacityMaskFilter);}
	.st2{mask:url(#path-1-outside-1_267_167);fill:none;stroke:#06726F;stroke-width:0.8;}
</style>
<path class="st0" d="M-93.2,102c0.9,0,1.7,0.4,2.4,1c0.6,0.6,1,1.4,1,2.4s-0.4,1.8-1,2.4c-0.1,0.1-0.3,0.3-0.5,0.4
	c0.8,0.3,1.5,0.8,2.1,1.5c1,1.1,1.7,2.6,1.8,4.4c0,0.2-0.1,0.4-0.3,0.4v0c-1.9,0.8-3.7,1.3-5.5,1.3c-1.8,0-3.7-0.4-5.5-1.3
	c-0.2-0.1-0.3-0.3-0.3-0.5c0.1-1.7,0.8-3.2,1.8-4.3c0.6-0.6,1.3-1.1,2.1-1.5c-0.2-0.1-0.3-0.3-0.5-0.4c-0.6-0.6-1-1.4-1-2.4
	c0-0.9,0.4-1.7,1-2.4C-95,102.4-94.1,102-93.2,102z M-94.1,122.6c0,0.3-0.2,0.5-0.4,0.5c-0.3,0-0.5-0.2-0.5-0.4
	c0-0.3-0.1-0.6-0.1-0.9c0-0.3,0-0.6,0-0.9c0-0.4,0-0.8,0-1.1c0-0.4,0.1-0.8,0.1-1.1c0-0.3,0.3-0.4,0.5-0.4c0.3,0,0.4,0.3,0.4,0.5
	c-0.1,0.4-0.1,0.7-0.1,1.1c0,0.3,0,0.7,0,1.1c0,0.3,0,0.6,0,0.8C-94.2,122.1-94.2,122.4-94.1,122.6z M-86.2,108.2
	c-0.2,0.1-0.5,0-0.6-0.2c-0.1-0.2,0-0.5,0.2-0.6c1-0.5,2.1-0.9,3.2-1.1c1.1-0.3,2.2-0.4,3.4-0.4c1.2,0,2.3,0.1,3.4,0.4
	c1.1,0.3,2.2,0.6,3.2,1.1c0.2,0.1,0.3,0.4,0.2,0.6c-0.1,0.2-0.4,0.3-0.6,0.2c-1-0.5-2-0.8-3-1.1c-1-0.2-2.1-0.4-3.2-0.4
	s-2.2,0.1-3.2,0.4C-84.3,107.4-85.3,107.7-86.2,108.2z M-65.9,118.9c0-0.3,0.1-0.5,0.4-0.5c0.3,0,0.5,0.1,0.5,0.4
	c0.1,0.4,0.1,0.8,0.1,1.1c0,0.4,0,0.8,0,1.1c0,0.3,0,0.6,0,0.9c0,0.3,0,0.6-0.1,0.9c0,0.3-0.3,0.4-0.5,0.4c-0.3,0-0.4-0.3-0.4-0.5
	c0-0.3,0.1-0.5,0.1-0.8c0-0.3,0-0.5,0-0.8c0-0.4,0-0.7,0-1.1C-65.8,119.6-65.9,119.2-65.9,118.9z M-75.5,134.5
	c0.2-0.1,0.5,0,0.6,0.3c0.1,0.2,0,0.5-0.3,0.6c-0.8,0.3-1.6,0.5-2.4,0.6c-0.8,0.1-1.6,0.2-2.4,0.2c-0.8,0-1.6-0.1-2.4-0.2
	c-0.8-0.1-1.6-0.3-2.4-0.6c-0.2-0.1-0.4-0.3-0.3-0.6c0.1-0.2,0.3-0.4,0.6-0.3c0.7,0.2,1.5,0.4,2.2,0.5c0.7,0.1,1.5,0.2,2.3,0.2
	c0.8,0,1.6-0.1,2.3-0.2C-76.9,134.9-76.2,134.7-75.5,134.5z M-86.3,115.3c-0.2-0.2-0.2-0.5,0-0.7c0.2-0.2,0.5-0.2,0.7,0l1.4,1.4
	c0.2,0.2,0.2,0.5,0,0.7c-0.2,0.2-0.5,0.2-0.7,0L-86.3,115.3z M-73.8,127.9c-0.2-0.2-0.2-0.5,0-0.7c0.2-0.2,0.5-0.2,0.7,0l1.9,1.9
	c0.2,0.2,0.2,0.5,0,0.7c-0.2,0.2-0.5,0.2-0.7,0L-73.8,127.9z M-74.3,114.7c0.2-0.2,0.5-0.2,0.7,0c0.2,0.2,0.2,0.5,0,0.7l-1.4,1.4
	c-0.2,0.2-0.5,0.2-0.7,0c-0.2-0.2-0.2-0.5,0-0.7L-74.3,114.7z M-86.9,127.2c0.2-0.2,0.5-0.2,0.7,0c0.2,0.2,0.2,0.5,0,0.7l-1.9,1.9
	c-0.2,0.2-0.5,0.2-0.7,0c-0.2-0.2-0.2-0.5,0-0.7L-86.9,127.2z M-74.5,126.5L-74.5,126.5c0.2-0.1,0.3-0.3,0.3-0.4
	c-0.1-1.7-0.8-3.2-1.8-4.4c-0.6-0.6-1.3-1.1-2.1-1.5c0.2-0.1,0.3-0.3,0.5-0.4c0.6-0.6,1-1.4,1-2.4c0-0.9-0.4-1.7-1-2.4
	c-0.6-0.6-1.4-1-2.4-1c-0.9,0-1.8,0.4-2.4,1c-0.6,0.6-1,1.4-1,2.4c0,0.9,0.4,1.8,1,2.4c0.1,0.1,0.3,0.3,0.5,0.4
	c-0.8,0.3-1.5,0.8-2.1,1.5c-1,1.1-1.7,2.6-1.8,4.3c0,0.2,0.1,0.4,0.3,0.5c1.8,0.8,3.6,1.3,5.5,1.3
	C-78.2,127.8-76.3,127.4-74.5,126.5z M-80,126.9c-1.6,0-3.2-0.4-4.8-1.1c0.1-1.4,0.7-2.6,1.5-3.5c0.9-0.9,2-1.5,3.3-1.5
	c1.3,0,2.4,0.6,3.3,1.5c0.8,0.9,1.4,2.1,1.5,3.5C-76.8,126.5-78.4,126.9-80,126.9z M-78.3,115.8c0.4,0.4,0.7,1,0.7,1.7
	s-0.3,1.3-0.7,1.7c-0.4,0.4-1,0.7-1.7,0.7c-0.7,0-1.3-0.3-1.7-0.7c-0.4-0.4-0.7-1-0.7-1.7s0.3-1.3,0.7-1.7c0.4-0.4,1-0.7,1.7-0.7
	C-79.3,115.1-78.7,115.4-78.3,115.8z M-87.7,138.7L-87.7,138.7c0.2-0.1,0.3-0.3,0.3-0.4c-0.1-1.7-0.8-3.2-1.8-4.4
	c-0.6-0.6-1.3-1.1-2.1-1.5c0.2-0.1,0.3-0.3,0.5-0.4c0.6-0.6,1-1.4,1-2.4c0-0.9-0.4-1.7-1-2.4c-0.6-0.6-1.4-1-2.4-1
	c-0.9,0-1.8,0.4-2.4,1c-0.6,0.6-1,1.4-1,2.4c0,0.9,0.4,1.8,1,2.4c0.1,0.1,0.3,0.3,0.5,0.4c-0.8,0.3-1.5,0.8-2.1,1.5
	c-1,1.1-1.7,2.6-1.8,4.3c0,0.2,0.1,0.4,0.3,0.5c1.8,0.8,3.6,1.3,5.5,1.3C-91.4,140-89.6,139.6-87.7,138.7z M-93.2,139.1
	c-1.6,0-3.2-0.3-4.8-1.1c0.1-1.4,0.7-2.6,1.5-3.5c0.9-0.9,2-1.5,3.3-1.5c1.3,0,2.4,0.6,3.3,1.5c0.8,0.9,1.4,2.1,1.5,3.5
	C-90,138.7-91.6,139.1-93.2,139.1z M-91.5,128c0.4,0.4,0.7,1,0.7,1.7c0,0.7-0.3,1.3-0.7,1.7c-0.4,0.4-1,0.7-1.7,0.7
	c-0.7,0-1.3-0.3-1.7-0.7c-0.4-0.4-0.7-1-0.7-1.7c0-0.7,0.3-1.3,0.7-1.7c0.4-0.4,1-0.7,1.7-0.7C-92.6,127.3-92,127.6-91.5,128z
	 M-61.3,138.7L-61.3,138.7c0.2-0.1,0.3-0.3,0.3-0.4c-0.1-1.7-0.8-3.2-1.8-4.4c-0.6-0.6-1.3-1.1-2.1-1.5c0.2-0.1,0.3-0.3,0.5-0.4
	c0.6-0.6,1-1.4,1-2.4c0-0.9-0.4-1.7-1-2.4c-0.6-0.6-1.4-1-2.4-1c-0.9,0-1.8,0.4-2.4,1c-0.6,0.6-1,1.4-1,2.4c0,0.9,0.4,1.8,1,2.4
	c0.1,0.1,0.3,0.3,0.5,0.4c-0.8,0.3-1.5,0.8-2.1,1.5c-1,1.1-1.7,2.6-1.8,4.3c0,0.2,0.1,0.4,0.3,0.5c1.8,0.8,3.6,1.3,5.5,1.3
	C-65,140-63.1,139.6-61.3,138.7z M-66.8,139.1c-1.6,0-3.2-0.4-4.8-1.1c0.1-1.4,0.7-2.6,1.5-3.5c0.9-0.9,2-1.5,3.3-1.5
	c1.3,0,2.4,0.6,3.3,1.5c0.8,0.9,1.4,2.1,1.5,3.5C-63.6,138.7-65.2,139.1-66.8,139.1z M-65.1,128c0.4,0.4,0.7,1,0.7,1.7
	c0,0.7-0.3,1.3-0.7,1.7c-0.4,0.4-1,0.7-1.7,0.7c-0.7,0-1.3-0.3-1.7-0.7c-0.4-0.4-0.7-1-0.7-1.7c0-0.7,0.3-1.3,0.7-1.7
	c0.4-0.4,1-0.7,1.7-0.7C-66.1,127.3-65.5,127.6-65.1,128z M-61.3,114.3c-1.9,0.8-3.7,1.3-5.5,1.3c-1.8,0-3.7-0.4-5.5-1.3
	c-0.2-0.1-0.3-0.3-0.3-0.5c0.1-1.7,0.8-3.2,1.8-4.3c0.6-0.6,1.3-1.1,2.1-1.5c-0.2-0.1-0.3-0.3-0.5-0.4c-0.6-0.6-1-1.4-1-2.4
	c0-0.9,0.4-1.8,1-2.4c0.6-0.6,1.4-1,2.4-1c0.9,0,1.8,0.4,2.4,1c0.6,0.6,1,1.4,1,2.4c0,0.9-0.4,1.7-1,2.4c-0.1,0.1-0.3,0.3-0.5,0.4
	c0.8,0.3,1.5,0.8,2.1,1.5c1,1.1,1.7,2.6,1.8,4.4C-61,114.1-61.1,114.3-61.3,114.3z M-66.8,114.7c1.6,0,3.2-0.4,4.9-1.1
	c-0.1-1.4-0.7-2.6-1.5-3.5c-0.9-0.9-2-1.5-3.3-1.5c-1.3,0-2.4,0.6-3.3,1.5c-0.8,0.9-1.4,2.1-1.5,3.5
	C-70,114.3-68.4,114.7-66.8,114.7z M-65.1,103.6c-0.4-0.4-1-0.7-1.7-0.7c-0.7,0-1.3,0.3-1.7,0.7c-0.4,0.4-0.7,1-0.7,1.7
	s0.3,1.3,0.7,1.7c0.4,0.4,1,0.7,1.7,0.7c0.7,0,1.3-0.3,1.7-0.7c0.4-0.4,0.7-1,0.7-1.7S-64.6,104.1-65.1,103.6z M-93.2,114.7
	c1.6,0,3.2-0.4,4.9-1.1c-0.1-1.4-0.7-2.6-1.5-3.5c-0.9-0.9-2-1.5-3.3-1.5s-2.4,0.6-3.3,1.5c-0.8,0.9-1.4,2.1-1.5,3.5
	C-96.5,114.3-94.9,114.7-93.2,114.7z M-91.5,103.6c-0.4-0.4-1-0.7-1.7-0.7c-0.7,0-1.3,0.3-1.7,0.7c-0.4,0.4-0.7,1-0.7,1.7
	s0.3,1.3,0.7,1.7c0.4,0.4,1,0.7,1.7,0.7c0.7,0,1.3-0.3,1.7-0.7c0.4-0.4,0.7-1,0.7-1.7S-91.1,104.1-91.5,103.6z"/>
<defs>
	<filter id="Adobe_OpacityMaskFilter" filterUnits="userSpaceOnUse" x="-99.4" y="101.6" width="38.8" height="38.8">
		<feColorMatrix  type="matrix" values="1 0 0 0 0  0 1 0 0 0  0 0 1 0 0  0 0 0 1 0"/>
	</filter>
</defs>
<mask maskUnits="userSpaceOnUse" x="-99.4" y="101.6" width="38.8" height="38.8" id="path-1-outside-1_267_167">
	<rect x="-100" y="101" class="st1" width="40" height="40"/>
	<path d="M-93.2,102c0.9,0,1.7,0.4,2.4,1c0.6,0.6,1,1.4,1,2.4s-0.4,1.8-1,2.4c-0.1,0.1-0.3,0.3-0.5,0.4c0.8,0.3,1.5,0.8,2.1,1.5
		c1,1.1,1.7,2.6,1.8,4.4c0,0.2-0.1,0.4-0.3,0.4v0c-1.9,0.8-3.7,1.3-5.5,1.3c-1.8,0-3.7-0.4-5.5-1.3c-0.2-0.1-0.3-0.3-0.3-0.5
		c0.1-1.7,0.8-3.2,1.8-4.3c0.6-0.6,1.3-1.1,2.1-1.5c-0.2-0.1-0.3-0.3-0.5-0.4c-0.6-0.6-1-1.4-1-2.4c0-0.9,0.4-1.7,1-2.4
		C-95,102.4-94.1,102-93.2,102z M-94.1,122.6c0,0.3-0.2,0.5-0.4,0.5c-0.3,0-0.5-0.2-0.5-0.4c0-0.3-0.1-0.6-0.1-0.9
		c0-0.3,0-0.6,0-0.9c0-0.4,0-0.8,0-1.1c0-0.4,0.1-0.8,0.1-1.1c0-0.3,0.3-0.4,0.5-0.4c0.3,0,0.4,0.3,0.4,0.5
		c-0.1,0.4-0.1,0.7-0.1,1.1c0,0.3,0,0.7,0,1.1c0,0.3,0,0.6,0,0.8C-94.2,122.1-94.2,122.4-94.1,122.6z M-86.2,108.2
		c-0.2,0.1-0.5,0-0.6-0.2c-0.1-0.2,0-0.5,0.2-0.6c1-0.5,2.1-0.9,3.2-1.1c1.1-0.3,2.2-0.4,3.4-0.4c1.2,0,2.3,0.1,3.4,0.4
		c1.1,0.3,2.2,0.6,3.2,1.1c0.2,0.1,0.3,0.4,0.2,0.6c-0.1,0.2-0.4,0.3-0.6,0.2c-1-0.5-2-0.8-3-1.1c-1-0.2-2.1-0.4-3.2-0.4
		s-2.2,0.1-3.2,0.4C-84.3,107.4-85.3,107.7-86.2,108.2z M-65.9,118.9c0-0.3,0.1-0.5,0.4-0.5c0.3,0,0.5,0.1,0.5,0.4
		c0.1,0.4,0.1,0.8,0.1,1.1c0,0.4,0,0.8,0,1.1c0,0.3,0,0.6,0,0.9c0,0.3,0,0.6-0.1,0.9c0,0.3-0.3,0.4-0.5,0.4c-0.3,0-0.4-0.3-0.4-0.5
		c0-0.3,0.1-0.5,0.1-0.8c0-0.3,0-0.5,0-0.8c0-0.4,0-0.7,0-1.1C-65.8,119.6-65.9,119.2-65.9,118.9z M-75.5,134.5
		c0.2-0.1,0.5,0,0.6,0.3c0.1,0.2,0,0.5-0.3,0.6c-0.8,0.3-1.6,0.5-2.4,0.6c-0.8,0.1-1.6,0.2-2.4,0.2c-0.8,0-1.6-0.1-2.4-0.2
		c-0.8-0.1-1.6-0.3-2.4-0.6c-0.2-0.1-0.4-0.3-0.3-0.6c0.1-0.2,0.3-0.4,0.6-0.3c0.7,0.2,1.5,0.4,2.2,0.5c0.7,0.1,1.5,0.2,2.3,0.2
		c0.8,0,1.6-0.1,2.3-0.2C-76.9,134.9-76.2,134.7-75.5,134.5z M-86.3,115.3c-0.2-0.2-0.2-0.5,0-0.7c0.2-0.2,0.5-0.2,0.7,0l1.4,1.4
		c0.2,0.2,0.2,0.5,0,0.7c-0.2,0.2-0.5,0.2-0.7,0L-86.3,115.3z M-73.8,127.9c-0.2-0.2-0.2-0.5,0-0.7c0.2-0.2,0.5-0.2,0.7,0l1.9,1.9
		c0.2,0.2,0.2,0.5,0,0.7c-0.2,0.2-0.5,0.2-0.7,0L-73.8,127.9z M-74.3,114.7c0.2-0.2,0.5-0.2,0.7,0c0.2,0.2,0.2,0.5,0,0.7l-1.4,1.4
		c-0.2,0.2-0.5,0.2-0.7,0c-0.2-0.2-0.2-0.5,0-0.7L-74.3,114.7z M-86.9,127.2c0.2-0.2,0.5-0.2,0.7,0c0.2,0.2,0.2,0.5,0,0.7l-1.9,1.9
		c-0.2,0.2-0.5,0.2-0.7,0c-0.2-0.2-0.2-0.5,0-0.7L-86.9,127.2z M-74.5,126.5L-74.5,126.5c0.2-0.1,0.3-0.3,0.3-0.4
		c-0.1-1.7-0.8-3.2-1.8-4.4c-0.6-0.6-1.3-1.1-2.1-1.5c0.2-0.1,0.3-0.3,0.5-0.4c0.6-0.6,1-1.4,1-2.4c0-0.9-0.4-1.7-1-2.4
		c-0.6-0.6-1.4-1-2.4-1c-0.9,0-1.8,0.4-2.4,1c-0.6,0.6-1,1.4-1,2.4c0,0.9,0.4,1.8,1,2.4c0.1,0.1,0.3,0.3,0.5,0.4
		c-0.8,0.3-1.5,0.8-2.1,1.5c-1,1.1-1.7,2.6-1.8,4.3c0,0.2,0.1,0.4,0.3,0.5c1.8,0.8,3.6,1.3,5.5,1.3
		C-78.2,127.8-76.3,127.4-74.5,126.5z M-80,126.9c-1.6,0-3.2-0.4-4.8-1.1c0.1-1.4,0.7-2.6,1.5-3.5c0.9-0.9,2-1.5,3.3-1.5
		c1.3,0,2.4,0.6,3.3,1.5c0.8,0.9,1.4,2.1,1.5,3.5C-76.8,126.5-78.4,126.9-80,126.9z M-78.3,115.8c0.4,0.4,0.7,1,0.7,1.7
		s-0.3,1.3-0.7,1.7c-0.4,0.4-1,0.7-1.7,0.7c-0.7,0-1.3-0.3-1.7-0.7c-0.4-0.4-0.7-1-0.7-1.7s0.3-1.3,0.7-1.7c0.4-0.4,1-0.7,1.7-0.7
		C-79.3,115.1-78.7,115.4-78.3,115.8z M-87.7,138.7L-87.7,138.7c0.2-0.1,0.3-0.3,0.3-0.4c-0.1-1.7-0.8-3.2-1.8-4.4
		c-0.6-0.6-1.3-1.1-2.1-1.5c0.2-0.1,0.3-0.3,0.5-0.4c0.6-0.6,1-1.4,1-2.4c0-0.9-0.4-1.7-1-2.4c-0.6-0.6-1.4-1-2.4-1
		c-0.9,0-1.8,0.4-2.4,1c-0.6,0.6-1,1.4-1,2.4c0,0.9,0.4,1.8,1,2.4c0.1,0.1,0.3,0.3,0.5,0.4c-0.8,0.3-1.5,0.8-2.1,1.5
		c-1,1.1-1.7,2.6-1.8,4.3c0,0.2,0.1,0.4,0.3,0.5c1.8,0.8,3.6,1.3,5.5,1.3C-91.4,140-89.6,139.6-87.7,138.7z M-93.2,139.1
		c-1.6,0-3.2-0.3-4.8-1.1c0.1-1.4,0.7-2.6,1.5-3.5c0.9-0.9,2-1.5,3.3-1.5c1.3,0,2.4,0.6,3.3,1.5c0.8,0.9,1.4,2.1,1.5,3.5
		C-90,138.7-91.6,139.1-93.2,139.1z M-91.5,128c0.4,0.4,0.7,1,0.7,1.7c0,0.7-0.3,1.3-0.7,1.7c-0.4,0.4-1,0.7-1.7,0.7
		c-0.7,0-1.3-0.3-1.7-0.7c-0.4-0.4-0.7-1-0.7-1.7c0-0.7,0.3-1.3,0.7-1.7c0.4-0.4,1-0.7,1.7-0.7C-92.6,127.3-92,127.6-91.5,128z
		 M-61.3,138.7L-61.3,138.7c0.2-0.1,0.3-0.3,0.3-0.4c-0.1-1.7-0.8-3.2-1.8-4.4c-0.6-0.6-1.3-1.1-2.1-1.5c0.2-0.1,0.3-0.3,0.5-0.4
		c0.6-0.6,1-1.4,1-2.4c0-0.9-0.4-1.7-1-2.4c-0.6-0.6-1.4-1-2.4-1c-0.9,0-1.8,0.4-2.4,1c-0.6,0.6-1,1.4-1,2.4c0,0.9,0.4,1.8,1,2.4
		c0.1,0.1,0.3,0.3,0.5,0.4c-0.8,0.3-1.5,0.8-2.1,1.5c-1,1.1-1.7,2.6-1.8,4.3c0,0.2,0.1,0.4,0.3,0.5c1.8,0.8,3.6,1.3,5.5,1.3
		C-65,140-63.1,139.6-61.3,138.7z M-66.8,139.1c-1.6,0-3.2-0.4-4.8-1.1c0.1-1.4,0.7-2.6,1.5-3.5c0.9-0.9,2-1.5,3.3-1.5
		c1.3,0,2.4,0.6,3.3,1.5c0.8,0.9,1.4,2.1,1.5,3.5C-63.6,138.7-65.2,139.1-66.8,139.1z M-65.1,128c0.4,0.4,0.7,1,0.7,1.7
		c0,0.7-0.3,1.3-0.7,1.7c-0.4,0.4-1,0.7-1.7,0.7c-0.7,0-1.3-0.3-1.7-0.7c-0.4-0.4-0.7-1-0.7-1.7c0-0.7,0.3-1.3,0.7-1.7
		c0.4-0.4,1-0.7,1.7-0.7C-66.1,127.3-65.5,127.6-65.1,128z M-61.3,114.3c-1.9,0.8-3.7,1.3-5.5,1.3c-1.8,0-3.7-0.4-5.5-1.3
		c-0.2-0.1-0.3-0.3-0.3-0.5c0.1-1.7,0.8-3.2,1.8-4.3c0.6-0.6,1.3-1.1,2.1-1.5c-0.2-0.1-0.3-0.3-0.5-0.4c-0.6-0.6-1-1.4-1-2.4
		c0-0.9,0.4-1.8,1-2.4c0.6-0.6,1.4-1,2.4-1c0.9,0,1.8,0.4,2.4,1c0.6,0.6,1,1.4,1,2.4c0,0.9-0.4,1.7-1,2.4c-0.1,0.1-0.3,0.3-0.5,0.4
		c0.8,0.3,1.5,0.8,2.1,1.5c1,1.1,1.7,2.6,1.8,4.4C-61,114.1-61.1,114.3-61.3,114.3z M-66.8,114.7c1.6,0,3.2-0.4,4.9-1.1
		c-0.1-1.4-0.7-2.6-1.5-3.5c-0.9-0.9-2-1.5-3.3-1.5c-1.3,0-2.4,0.6-3.3,1.5c-0.8,0.9-1.4,2.1-1.5,3.5
		C-70,114.3-68.4,114.7-66.8,114.7z M-65.1,103.6c-0.4-0.4-1-0.7-1.7-0.7c-0.7,0-1.3,0.3-1.7,0.7c-0.4,0.4-0.7,1-0.7,1.7
		s0.3,1.3,0.7,1.7c0.4,0.4,1,0.7,1.7,0.7c0.7,0,1.3-0.3,1.7-0.7c0.4-0.4,0.7-1,0.7-1.7S-64.6,104.1-65.1,103.6z M-93.2,114.7
		c1.6,0,3.2-0.4,4.9-1.1c-0.1-1.4-0.7-2.6-1.5-3.5c-0.9-0.9-2-1.5-3.3-1.5s-2.4,0.6-3.3,1.5c-0.8,0.9-1.4,2.1-1.5,3.5
		C-96.5,114.3-94.9,114.7-93.2,114.7z M-91.5,103.6c-0.4-0.4-1-0.7-1.7-0.7c-0.7,0-1.3,0.3-1.7,0.7c-0.4,0.4-0.7,1-0.7,1.7
		s0.3,1.3,0.7,1.7c0.4,0.4,1,0.7,1.7,0.7c0.7,0,1.3-0.3,1.7-0.7c0.4-0.4,0.7-1,0.7-1.7S-91.1,104.1-91.5,103.6z"/>
</mask>
<path class="st2" d="M-93.2,102c0.9,0,1.7,0.4,2.4,1c0.6,0.6,1,1.4,1,2.4s-0.4,1.8-1,2.4c-0.1,0.1-0.3,0.3-0.5,0.4
	c0.8,0.3,1.5,0.8,2.1,1.5c1,1.1,1.7,2.6,1.8,4.4c0,0.2-0.1,0.4-0.3,0.4v0c-1.9,0.8-3.7,1.3-5.5,1.3c-1.8,0-3.7-0.4-5.5-1.3
	c-0.2-0.1-0.3-0.3-0.3-0.5c0.1-1.7,0.8-3.2,1.8-4.3c0.6-0.6,1.3-1.1,2.1-1.5c-0.2-0.1-0.3-0.3-0.5-0.4c-0.6-0.6-1-1.4-1-2.4
	c0-0.9,0.4-1.7,1-2.4C-95,102.4-94.1,102-93.2,102z M-94.1,122.6c0,0.3-0.2,0.5-0.4,0.5c-0.3,0-0.5-0.2-0.5-0.4
	c0-0.3-0.1-0.6-0.1-0.9c0-0.3,0-0.6,0-0.9c0-0.4,0-0.8,0-1.1c0-0.4,0.1-0.8,0.1-1.1c0-0.3,0.3-0.4,0.5-0.4c0.3,0,0.4,0.3,0.4,0.5
	c-0.1,0.4-0.1,0.7-0.1,1.1c0,0.3,0,0.7,0,1.1c0,0.3,0,0.6,0,0.8C-94.2,122.1-94.2,122.4-94.1,122.6z M-86.2,108.2
	c-0.2,0.1-0.5,0-0.6-0.2c-0.1-0.2,0-0.5,0.2-0.6c1-0.5,2.1-0.9,3.2-1.1c1.1-0.3,2.2-0.4,3.4-0.4c1.2,0,2.3,0.1,3.4,0.4
	c1.1,0.3,2.2,0.6,3.2,1.1c0.2,0.1,0.3,0.4,0.2,0.6c-0.1,0.2-0.4,0.3-0.6,0.2c-1-0.5-2-0.8-3-1.1c-1-0.2-2.1-0.4-3.2-0.4
	s-2.2,0.1-3.2,0.4C-84.3,107.4-85.3,107.7-86.2,108.2z M-65.9,118.9c0-0.3,0.1-0.5,0.4-0.5c0.3,0,0.5,0.1,0.5,0.4
	c0.1,0.4,0.1,0.8,0.1,1.1c0,0.4,0,0.8,0,1.1c0,0.3,0,0.6,0,0.9c0,0.3,0,0.6-0.1,0.9c0,0.3-0.3,0.4-0.5,0.4c-0.3,0-0.4-0.3-0.4-0.5
	c0-0.3,0.1-0.5,0.1-0.8c0-0.3,0-0.5,0-0.8c0-0.4,0-0.7,0-1.1C-65.8,119.6-65.9,119.2-65.9,118.9z M-75.5,134.5
	c0.2-0.1,0.5,0,0.6,0.3c0.1,0.2,0,0.5-0.3,0.6c-0.8,0.3-1.6,0.5-2.4,0.6c-0.8,0.1-1.6,0.2-2.4,0.2c-0.8,0-1.6-0.1-2.4-0.2
	c-0.8-0.1-1.6-0.3-2.4-0.6c-0.2-0.1-0.4-0.3-0.3-0.6c0.1-0.2,0.3-0.4,0.6-0.3c0.7,0.2,1.5,0.4,2.2,0.5c0.7,0.1,1.5,0.2,2.3,0.2
	c0.8,0,1.6-0.1,2.3-0.2C-76.9,134.9-76.2,134.7-75.5,134.5z M-86.3,115.3c-0.2-0.2-0.2-0.5,0-0.7c0.2-0.2,0.5-0.2,0.7,0l1.4,1.4
	c0.2,0.2,0.2,0.5,0,0.7c-0.2,0.2-0.5,0.2-0.7,0L-86.3,115.3z M-73.8,127.9c-0.2-0.2-0.2-0.5,0-0.7c0.2-0.2,0.5-0.2,0.7,0l1.9,1.9
	c0.2,0.2,0.2,0.5,0,0.7c-0.2,0.2-0.5,0.2-0.7,0L-73.8,127.9z M-74.3,114.7c0.2-0.2,0.5-0.2,0.7,0c0.2,0.2,0.2,0.5,0,0.7l-1.4,1.4
	c-0.2,0.2-0.5,0.2-0.7,0c-0.2-0.2-0.2-0.5,0-0.7L-74.3,114.7z M-86.9,127.2c0.2-0.2,0.5-0.2,0.7,0c0.2,0.2,0.2,0.5,0,0.7l-1.9,1.9
	c-0.2,0.2-0.5,0.2-0.7,0c-0.2-0.2-0.2-0.5,0-0.7L-86.9,127.2z M-74.5,126.5L-74.5,126.5c0.2-0.1,0.3-0.3,0.3-0.4
	c-0.1-1.7-0.8-3.2-1.8-4.4c-0.6-0.6-1.3-1.1-2.1-1.5c0.2-0.1,0.3-0.3,0.5-0.4c0.6-0.6,1-1.4,1-2.4c0-0.9-0.4-1.7-1-2.4
	c-0.6-0.6-1.4-1-2.4-1c-0.9,0-1.8,0.4-2.4,1c-0.6,0.6-1,1.4-1,2.4c0,0.9,0.4,1.8,1,2.4c0.1,0.1,0.3,0.3,0.5,0.4
	c-0.8,0.3-1.5,0.8-2.1,1.5c-1,1.1-1.7,2.6-1.8,4.3c0,0.2,0.1,0.4,0.3,0.5c1.8,0.8,3.6,1.3,5.5,1.3
	C-78.2,127.8-76.3,127.4-74.5,126.5z M-80,126.9c-1.6,0-3.2-0.4-4.8-1.1c0.1-1.4,0.7-2.6,1.5-3.5c0.9-0.9,2-1.5,3.3-1.5
	c1.3,0,2.4,0.6,3.3,1.5c0.8,0.9,1.4,2.1,1.5,3.5C-76.8,126.5-78.4,126.9-80,126.9z M-78.3,115.8c0.4,0.4,0.7,1,0.7,1.7
	s-0.3,1.3-0.7,1.7c-0.4,0.4-1,0.7-1.7,0.7c-0.7,0-1.3-0.3-1.7-0.7c-0.4-0.4-0.7-1-0.7-1.7s0.3-1.3,0.7-1.7c0.4-0.4,1-0.7,1.7-0.7
	C-79.3,115.1-78.7,115.4-78.3,115.8z M-87.7,138.7L-87.7,138.7c0.2-0.1,0.3-0.3,0.3-0.4c-0.1-1.7-0.8-3.2-1.8-4.4
	c-0.6-0.6-1.3-1.1-2.1-1.5c0.2-0.1,0.3-0.3,0.5-0.4c0.6-0.6,1-1.4,1-2.4c0-0.9-0.4-1.7-1-2.4c-0.6-0.6-1.4-1-2.4-1
	c-0.9,0-1.8,0.4-2.4,1c-0.6,0.6-1,1.4-1,2.4c0,0.9,0.4,1.8,1,2.4c0.1,0.1,0.3,0.3,0.5,0.4c-0.8,0.3-1.5,0.8-2.1,1.5
	c-1,1.1-1.7,2.6-1.8,4.3c0,0.2,0.1,0.4,0.3,0.5c1.8,0.8,3.6,1.3,5.5,1.3C-91.4,140-89.6,139.6-87.7,138.7z M-93.2,139.1
	c-1.6,0-3.2-0.3-4.8-1.1c0.1-1.4,0.7-2.6,1.5-3.5c0.9-0.9,2-1.5,3.3-1.5c1.3,0,2.4,0.6,3.3,1.5c0.8,0.9,1.4,2.1,1.5,3.5
	C-90,138.7-91.6,139.1-93.2,139.1z M-91.5,128c0.4,0.4,0.7,1,0.7,1.7c0,0.7-0.3,1.3-0.7,1.7c-0.4,0.4-1,0.7-1.7,0.7
	c-0.7,0-1.3-0.3-1.7-0.7c-0.4-0.4-0.7-1-0.7-1.7c0-0.7,0.3-1.3,0.7-1.7c0.4-0.4,1-0.7,1.7-0.7C-92.6,127.3-92,127.6-91.5,128z
	 M-61.3,138.7L-61.3,138.7c0.2-0.1,0.3-0.3,0.3-0.4c-0.1-1.7-0.8-3.2-1.8-4.4c-0.6-0.6-1.3-1.1-2.1-1.5c0.2-0.1,0.3-0.3,0.5-0.4
	c0.6-0.6,1-1.4,1-2.4c0-0.9-0.4-1.7-1-2.4c-0.6-0.6-1.4-1-2.4-1c-0.9,0-1.8,0.4-2.4,1c-0.6,0.6-1,1.4-1,2.4c0,0.9,0.4,1.8,1,2.4
	c0.1,0.1,0.3,0.3,0.5,0.4c-0.8,0.3-1.5,0.8-2.1,1.5c-1,1.1-1.7,2.6-1.8,4.3c0,0.2,0.1,0.4,0.3,0.5c1.8,0.8,3.6,1.3,5.5,1.3
	C-65,140-63.1,139.6-61.3,138.7z M-66.8,139.1c-1.6,0-3.2-0.4-4.8-1.1c0.1-1.4,0.7-2.6,1.5-3.5c0.9-0.9,2-1.5,3.3-1.5
	c1.3,0,2.4,0.6,3.3,1.5c0.8,0.9,1.4,2.1,1.5,3.5C-63.6,138.7-65.2,139.1-66.8,139.1z M-65.1,128c0.4,0.4,0.7,1,0.7,1.7
	c0,0.7-0.3,1.3-0.7,1.7c-0.4,0.4-1,0.7-1.7,0.7c-0.7,0-1.3-0.3-1.7-0.7c-0.4-0.4-0.7-1-0.7-1.7c0-0.7,0.3-1.3,0.7-1.7
	c0.4-0.4,1-0.7,1.7-0.7C-66.1,127.3-65.5,127.6-65.1,128z M-61.3,114.3c-1.9,0.8-3.7,1.3-5.5,1.3c-1.8,0-3.7-0.4-5.5-1.3
	c-0.2-0.1-0.3-0.3-0.3-0.5c0.1-1.7,0.8-3.2,1.8-4.3c0.6-0.6,1.3-1.1,2.1-1.5c-0.2-0.1-0.3-0.3-0.5-0.4c-0.6-0.6-1-1.4-1-2.4
	c0-0.9,0.4-1.8,1-2.4c0.6-0.6,1.4-1,2.4-1c0.9,0,1.8,0.4,2.4,1c0.6,0.6,1,1.4,1,2.4c0,0.9-0.4,1.7-1,2.4c-0.1,0.1-0.3,0.3-0.5,0.4
	c0.8,0.3,1.5,0.8,2.1,1.5c1,1.1,1.7,2.6,1.8,4.4C-61,114.1-61.1,114.3-61.3,114.3z M-66.8,114.7c1.6,0,3.2-0.4,4.9-1.1
	c-0.1-1.4-0.7-2.6-1.5-3.5c-0.9-0.9-2-1.5-3.3-1.5c-1.3,0-2.4,0.6-3.3,1.5c-0.8,0.9-1.4,2.1-1.5,3.5
	C-70,114.3-68.4,114.7-66.8,114.7z M-65.1,103.6c-0.4-0.4-1-0.7-1.7-0.7c-0.7,0-1.3,0.3-1.7,0.7c-0.4,0.4-0.7,1-0.7,1.7
	s0.3,1.3,0.7,1.7c0.4,0.4,1,0.7,1.7,0.7c0.7,0,1.3-0.3,1.7-0.7c0.4-0.4,0.7-1,0.7-1.7S-64.6,104.1-65.1,103.6z M-93.2,114.7
	c1.6,0,3.2-0.4,4.9-1.1c-0.1-1.4-0.7-2.6-1.5-3.5c-0.9-0.9-2-1.5-3.3-1.5s-2.4,0.6-3.3,1.5c-0.8,0.9-1.4,2.1-1.5,3.5
	C-96.5,114.3-94.9,114.7-93.2,114.7z M-91.5,103.6c-0.4-0.4-1-0.7-1.7-0.7c-0.7,0-1.3,0.3-1.7,0.7c-0.4,0.4-0.7,1-0.7,1.7
	s0.3,1.3,0.7,1.7c0.4,0.4,1,0.7,1.7,0.7c0.7,0,1.3-0.3,1.7-0.7c0.4-0.4,0.7-1,0.7-1.7S-91.1,104.1-91.5,103.6z"/>
</svg>
