<?xml version="1.0" encoding="utf-8"?>
<!-- Generator: Adobe Illustrator 19.0.0, SVG Export Plug-In . SVG Version: 6.00 Build 0)  -->
<svg version="1.1" id="Layer_1" xmlns="http://www.w3.org/2000/svg" xmlns:xlink="http://www.w3.org/1999/xlink" x="0px" y="0px"
	 viewBox="-99 99 43 43" style="enable-background:new -99 99 43 43;" xml:space="preserve">
<style type="text/css">
	.st0{fill:#06726F;}
</style>
<path class="st0" d="M-95.6,116.9l-1.4-0.2c0.8-5.9,4.2-11.1,9.2-14.3c1.3-0.9,2.7-1.6,4.2-2.1c1.1-0.4,2.4-0.7,3.6-0.9
	c3.7-0.6,7.5-0.2,11,1.2l-0.5,1.3c-3.3-1.3-6.8-1.7-10.2-1.1c-1.1,0.2-2.3,0.5-3.3,0.9c-1.4,0.5-2.7,1.2-4,2
	C-91.7,106.6-94.8,111.4-95.6,116.9z"/>
<path class="st0" d="M-64.1,136l-0.9-1.1c2.8-2.2,5-5.1,6.3-8.4c1.6-4.3,1.7-9,0.1-13.3c-0.4-1-0.8-1.9-1.3-2.8
	c-1.2-2.1-2.7-3.9-4.5-5.5c-0.2-0.1-0.3-0.3-0.5-0.4l0.9-1.1c0.2,0.1,0.4,0.3,0.5,0.4c2,1.6,3.6,3.6,4.9,5.9c0.5,1,1,2,1.4,3
	c0.8,2.4,1.3,4.8,1.2,7.3c0,2.4-0.5,4.8-1.3,7C-58.7,130.5-61,133.6-64.1,136z"/>
<path class="st0" d="M-76.6,140.2c-0.4,0-0.7,0-1.1,0c-2.7-0.1-5.2-0.8-7.7-1.9c-2.4-1.1-4.6-2.7-6.4-4.7c-1.9-2-3.3-4.4-4.2-7
	c-0.4-1.1-0.7-2.3-0.9-3.5l1.4-0.2c0.2,1.1,0.5,2.2,0.9,3.3c3.6,9.9,14.6,15.1,24.5,11.5c0.2-0.1,0.4-0.2,0.7-0.3l0.5,1.3
	c-0.3,0.1-0.5,0.2-0.7,0.3C-71.9,139.8-74.2,140.2-76.6,140.2z"/>
<path class="st0" d="M-64.6,124.5c-0.2,0-0.3,0-0.5-0.1c-0.2-0.2-0.4-0.4-0.4-0.7v0l-0.1-2l-0.2-0.7c0,0.1-0.1,0.2-0.2,0.3l-1.6,1.6
	c-0.2,0.2-0.5,0.3-0.8,0.3h0l-1.1-0.2c0,0,0,0,0,0c-0.3,0-0.6-0.2-0.9-0.4c-0.1-0.1-0.2-0.3-0.3-0.4c0-0.1-0.1-0.2-0.1-0.3L-71,120
	c0,0,0,0,0,0l-0.1-1.5c0,0,0,0,0,0c0,0,0-0.1-0.1-0.1l-2.5,0c-0.1,0-0.1,0-0.2,0c-0.4-0.1-0.8-0.4-1-0.8l-0.8-1.3
	c0-0.1-0.1-0.1-0.1-0.1c-0.1,0-0.1,0-0.2-0.1l-2.2-1.2h0l-0.2,0c-0.3-0.1-0.6-0.3-0.7-0.7c0,0,0,0,0,0l-0.1-0.5c0,0,0,0,0,0
	c0-0.2,0-0.4,0.1-0.6c0,0,0,0,0,0l0.8-1.3c0.2-0.4,0.7-0.6,1.2-0.4l0.1,0.1c0-0.2,0.1-0.3,0.2-0.4c0.2-0.2,0.4-0.3,0.7-0.3l1.4,0
	l0-0.3c-0.1-0.4,0.2-0.9,0.6-1l2.2-0.8c0,0,0,0,0,0c0.3-0.1,0.7,0,0.9,0.2l0.8,0.7l0.5-0.2l0-0.8c0-0.3,0.2-0.6,0.4-0.8
	c0.3-0.2,0.6-0.2,0.9,0c0,0,0,0,0,0c0,0,0,0,0,0l0,0c0,0,0,0,0.1,0.1l0.1,0.1c0,0,0.1,0,0.1,0.1c0,0,0,0,0,0c0,0,0.1,0,0.1,0.1
	c0.1,0,0.1,0.1,0.2,0.1c0,0,0,0,0,0c0,0,0,0,0,0c0,0,0,0,0.1,0c0,0,0,0,0.1,0.1c0,0,0,0,0,0c0,0,0,0,0,0c0,0,0.1,0,0.1,0.1
	c0,0,0,0,0,0c0,0,0,0,0,0c0,0,0.1,0,0.1,0.1c0,0,0,0,0,0c0,0,0,0,0.1,0c0,0,0.1,0,0.1,0.1c0,0,0.1,0,0.1,0.1c0,0,0,0,0,0l0,0l0,0
	c0,0,0,0,0.1,0.1c0,0,0,0,0,0c0,0,0.1,0.1,0.1,0.1c0,0,0.1,0.1,0.1,0.1c0,0,0,0,0.1,0c0,0,0.1,0.1,0.1,0.1l0,0c0,0,0,0,0.1,0.1
	c0,0,0.1,0.1,0.1,0.1c0,0,0,0,0.1,0.1l0.1,0.1c0,0,0.1,0.1,0.1,0.1l0,0c0,0,0,0,0,0c0,0,0,0,0,0c0,0,0,0,0.1,0.1l0,0c0,0,0,0,0,0
	c0,0,0,0,0.1,0.1c0,0,0,0,0,0c0,0,0,0,0,0c0,0,0,0,0.1,0.1l0.1,0.1c0,0,0,0,0,0l0.1,0.1c0,0,0,0,0,0l0,0c0,0,0,0,0,0.1l0.1,0.1l0,0
	l0.1,0.2c0,0,0,0,0,0.1c0,0,0,0,0,0c0,0,0,0,0,0l0.1,0.1c0,0,0,0,0,0c0,0,0.1,0.1,0.1,0.2c0,0,0,0,0.1,0.1c0,0,0,0,0,0c0,0,0,0,0,0
	c0,0,0.1,0.1,0.1,0.1c0,0,0,0.1,0.1,0.1c0,0,0.1,0.1,0.1,0.1c0,0,0,0,0,0.1c0,0.1,0.1,0.1,0.1,0.2c0,0,0,0,0,0c0,0,0,0,0,0
	c0,0,0,0,0,0.1c0,0,0,0.1,0.1,0.1l0,0c0,0,0,0,0,0l0,0c0.1,0.1,0.1,0.2,0.2,0.4c0.1,0.1,0.1,0.2,0.1,0.2c0,0.1,0.1,0.1,0.1,0.2
	c0,0,0.1,0.1,0.1,0.1c0,0,0,0,0,0l0.1,0.2c0,0,0,0,0,0c0,0,0,0,0,0c0,0,0,0.1,0.1,0.1c0,0,0,0.1,0.1,0.1c0,0,0,0.1,0.1,0.1
	c0,0,0,0,0,0c0,0,0,0,0,0.1c0,0,0,0,0,0.1c0,0,0,0,0,0c0,0,0,0.1,0.1,0.1c0,0,0,0,0,0c0,0,0,0,0,0.1c0,0.1,0.1,0.1,0.1,0.2
	c0,0,0,0.1,0,0.1c0,0,0,0.1,0,0.1c0,0,0,0,0,0.1c0,0,0,0,0,0c0,0,0,0,0,0c0,0,0,0,0,0.1c0,0.1,0.1,0.1,0.1,0.2c0,0,0,0,0,0.1
	c0,0,0,0,0,0c0,0,0,0,0,0c0,0,0,0,0,0c0,0,0,0,0,0c0,0,0,0.1,0,0.1c0,0,0,0,0,0c0,0,0,0,0,0.1l0,0c0,0,0,0,0,0c0,0,0,0,0,0.1l0,0.1
	c0,0,0,0,0,0.1c0,0,0,0,0,0.1c0,0,0,0.1,0,0.1l0,0.1c0,0,0,0.1,0,0.1c0,0,0,0,0,0.1c0,0,0,0,0,0v0c0,0,0,0,0,0c0,0,0,0.1,0,0.1
	c0,0,0,0,0,0c0,0,0,0,0,0l0,0.2c0,0,0,0,0,0c0,0,0,0,0,0c0,0,0,0.1,0,0.1c0,0,0,0.1,0,0.1c0,0,0,0,0,0c0,0,0,0,0,0c0,0,0,0.1,0,0.1
	c0,0,0,0,0,0c0,0,0,0,0,0.1v0c0,0,0,0,0,0.1c0,0,0,0.1,0,0.1c0,0,0,0,0,0c0,0.1,0,0.1,0,0.2c0,0,0,0,0,0c0,0,0,0,0,0
	c0,0.1,0,0.1,0,0.2l0,0.1c0,0,0,0,0,0c0,0,0,0,0,0c0,0,0,0,0,0.1c0,0,0,0,0,0c0,0,0,0,0,0c0,0.1,0,0.1,0,0.2c0,0,0,0.1,0,0.1
	c0,0,0,0,0,0.1c0,0,0,0,0,0c0,0,0,0.1,0,0.1c0,0,0,0,0,0.1l0,0.1c0,0,0,0,0,0.1c0,0,0,0,0,0c0,0,0,0.1,0,0.1c0,0.3,0,0.5,0.1,0.9v0
	c0,0.1,0,0.3,0,0.4c0,0.1,0,0.2,0,0.3c0,0,0,0,0,0c0,1.1-0.2,2.2-0.4,3.2c-0.1,0.2-0.2,0.4-0.4,0.5l-1.4,0.5
	c-0.1,0.1-0.2,0.1-0.3,0.2c0,0,0,0,0,0C-64.4,124.4-64.5,124.5-64.6,124.5z M-64.2,121.5l0.1,1.2l0.6-0.3c0.2-0.8,0.3-1.7,0.3-2.6v0
	c0,0,0,0,0,0c0-0.1,0-0.1,0-0.2c0-0.1,0-0.3,0-0.4v0c0-0.3,0-0.6,0-0.8c0,0,0,0,0,0c0,0,0,0,0-0.1c0,0,0-0.1,0-0.1c0,0,0,0,0,0
	l0-0.1c0,0,0-0.1,0-0.1c0,0,0-0.1,0-0.1c0,0,0,0,0-0.1c0,0,0,0,0-0.1c0,0,0-0.1,0-0.1c0,0,0,0,0,0c0,0,0,0,0,0c0,0,0,0,0,0
	c0,0,0-0.1,0-0.1l0-0.1c0,0,0,0,0,0c0,0,0,0,0-0.1c0,0,0,0,0,0c0,0,0,0,0,0c0-0.1,0-0.1,0-0.1c0,0,0,0,0,0c0,0,0,0,0-0.1
	c0,0,0,0,0-0.1c0,0,0,0,0,0v0c0,0,0,0,0-0.1c0,0,0-0.1,0-0.1c0,0,0,0,0,0c0,0,0,0,0,0c0,0,0,0,0,0c0-0.1,0-0.1,0-0.2c0,0,0,0,0,0
	c0,0,0-0.1,0-0.1l0-0.1c0,0,0-0.1,0-0.1c0,0,0,0,0,0c0,0,0,0,0,0v0c0,0,0,0,0,0c0,0,0-0.1,0-0.1c0,0,0,0,0-0.1v0l0-0.1
	c0,0,0,0,0-0.1c0,0,0,0,0-0.1c0,0,0,0,0-0.1l0-0.1c0,0,0-0.1,0-0.1c0,0,0,0,0-0.1c0,0,0,0,0-0.1c0,0,0,0,0-0.1c0,0,0,0,0,0
	c0,0,0,0,0,0c0,0,0,0,0,0c0,0,0,0,0-0.1c0,0,0,0,0,0c0,0,0,0,0,0c0,0,0-0.1,0-0.1c0,0,0,0,0,0c0,0,0,0,0,0c0,0,0,0,0-0.1
	c0,0,0-0.1,0-0.1c0,0,0,0,0-0.1c0,0,0,0,0-0.1c0,0,0,0,0,0c0,0,0,0,0-0.1c0,0,0-0.1,0-0.1c0,0,0,0,0,0c0,0,0,0,0,0c0,0,0-0.1,0-0.1
	c0,0,0,0,0,0c0,0,0,0,0,0c0,0,0,0,0-0.1c0,0,0,0,0,0c0,0,0,0,0-0.1c0,0,0-0.1,0-0.1c0,0,0-0.1-0.1-0.1c0,0,0-0.1-0.1-0.1
	c0,0,0,0,0,0c0,0,0,0,0-0.1c0,0,0,0,0,0l-0.1-0.2c0-0.1-0.1-0.1-0.1-0.2c0,0-0.1-0.1-0.1-0.1c0,0,0,0,0,0c0-0.1-0.1-0.1-0.1-0.2
	c0,0,0,0,0,0c-0.1-0.1-0.1-0.2-0.2-0.3l0,0c0,0,0,0,0,0c0,0,0,0,0,0c0,0,0,0,0-0.1c0,0,0-0.1-0.1-0.1c0,0,0,0,0-0.1
	c0,0,0-0.1-0.1-0.1c0,0-0.1-0.1-0.1-0.1c0,0,0,0,0-0.1l0,0c0,0-0.1-0.1-0.1-0.1c0,0,0-0.1-0.1-0.1c0,0,0-0.1-0.1-0.1c0,0,0,0,0,0
	c0,0,0,0,0,0c0,0-0.1-0.1-0.1-0.1l-0.1-0.1c0,0,0-0.1-0.1-0.1c0,0,0,0,0,0l0,0l-0.2-0.2c0,0,0,0,0,0l0,0c0,0,0,0,0,0l-0.2-0.2
	c0,0,0,0,0,0c0,0,0,0,0,0c0,0,0,0,0,0c0,0-0.1-0.1-0.1-0.1l0,0c0,0,0,0,0,0c0,0,0,0,0,0c0,0,0,0-0.1-0.1l0,0c0,0,0,0,0,0
	c0,0,0,0,0,0l-0.1-0.1c0,0,0,0,0,0c0,0,0,0-0.1-0.1c0,0,0,0,0,0c0,0,0,0-0.1-0.1c0,0,0,0,0,0c0,0,0,0,0,0c0,0-0.1-0.1-0.1-0.1
	c0,0,0,0,0,0c0,0,0,0-0.1-0.1c0,0,0,0,0,0c0,0,0,0,0,0c0,0,0,0-0.1-0.1c0,0,0,0,0,0c0,0,0,0-0.1,0l0,0c0,0,0,0-0.1,0c0,0,0,0,0,0
	c0,0,0,0,0,0c0,0,0,0,0,0c0,0,0,0,0,0c0,0,0,0,0,0c0,0,0,0-0.1-0.1c0,0,0,0,0,0c0,0,0,0,0,0c0,0,0,0,0,0v0.1c0,0,0,0,0,0
	c0,0.4-0.2,0.7-0.5,0.8c0,0,0,0,0,0l-1.1,0.5c0,0,0,0,0,0c-0.3,0.1-0.7,0.1-1-0.2l-0.8-0.7l-1.6,0.6l0.1,0.5c0,0.3,0,0.5-0.2,0.7
	c-0.2,0.2-0.4,0.3-0.7,0.3c0,0,0,0,0,0l-1.5,0l0,0c0,0.3-0.1,0.6-0.4,0.8c-0.3,0.2-0.6,0.2-0.9,0.1l-0.5-0.2l-0.4,0.7
	c0.1,0,0.1,0,0.1,0.1l2.2,1.2c0.4,0.1,0.7,0.4,0.9,0.7l0.8,1.3c0,0,0,0.1,0.1,0.1l2.5,0c0.1,0,0.1,0,0.2,0c0.4,0.1,0.8,0.4,1,0.8
	c0,0,0,0,0,0c0.1,0.1,0.1,0.3,0.2,0.4c0,0,0,0.1,0,0.1l0.1,1.6l0.1,1.6c0,0,0,0,0.1,0c0,0,0,0,0,0l0.9,0.1l1.3-1.3l0.1-0.7
	c0,0,0,0,0,0c0-0.3,0.2-0.5,0.4-0.6c0.2-0.1,0.5-0.2,0.7-0.2c0,0,0,0,0,0l0.7,0.1c0.4,0.1,0.6,0.3,0.7,0.7l0.4,1.6
	C-64.2,121.4-64.2,121.4-64.2,121.5z"/>
<path class="st0" d="M-76.6,134.5c-1.7,0-3.4-0.3-5-0.9c-2.1-0.7-3.9-1.9-5.5-3.5c-1.5-1.5-2.6-3.3-3.4-5.2c0,0,0,0,0,0
	c-0.6-1.6-0.9-3.3-1-5.1c0,0,0,0,0,0v-0.4c0,0,0,0,0,0c0-1.6,0.3-3.2,0.9-4.7c0.3-0.7,0.6-1.5,1-2.2c0.9-1.6,2.1-3,3.5-4.2l0,0
	c0.1,0,0.1-0.1,0.2-0.1c0,0,0,0,0,0c0,0,0,0,0.1,0c0,0,0.1-0.1,0.1-0.1c0.2-0.2,0.4-0.3,0.7-0.5c0,0,0.1-0.1,0.1-0.1
	c0.6-0.4,1.2-0.8,1.9-1.1c0,0,0,0,0,0c0,0,0,0,0.1,0c0,0,0,0,0.1,0c0.2-0.1,0.5-0.2,0.7-0.3l0,0c0,0,0.1,0,0.1-0.1c0,0,0,0,0.1,0
	c0,0,0,0,0.1,0c0,0,0,0,0,0c0.1-0.1,0.3-0.1,0.4-0.2c0,0,0,0,0,0c0,0,0,0,0,0c0,0,0.1,0,0.1,0c0,0,0,0,0.1,0c0,0,0.1,0,0.1,0
	c0,0,0.1,0,0.1,0c0,0,0.1,0,0.2-0.1c0,0,0.1,0,0.1,0c0,0,0,0,0,0c0.1,0,0.1,0,0.1,0h0c0.1,0,0.1,0,0.2,0c0,0,0,0,0.1,0c0,0,0,0,0,0
	c0,0,0,0,0,0c0.1,0,0.2-0.1,0.3-0.1c0,0,0,0,0,0c0,0,0.1,0,0.1,0l0.4-0.1c0,0,0.1,0,0.2,0c0,0,0,0,0.1,0c0,0,0,0,0,0c0,0,0,0,0,0
	c0,0,0.1,0,0.1,0c0,0,0.1,0,0.1,0c0.1,0,0.2,0,0.3,0l0.6-0.1c0,0,0,0,0,0c0.4,0,0.9,0,1.3,0c0,0,0,0,0,0c0.3,0,0.6,0,0.9,0
	c0,0,0,0,0,0c0,0,0.1,0,0.1,0c0,0,0,0,0.1,0c0,0,0.1,0,0.1,0c0.1,0,0.1,0,0.2,0l0.1,0c0,0,0,0,0,0l0,0c0.2,0,0.5,0.1,0.7,0.1
	c0,0,0.1,0,0.1,0c0.9,0.1,1.7,0.4,2.5,0.7c1.1,0.4,2.1,0.9,3.1,1.5c0.1,0.1,0.2,0.2,0.3,0.2c0.3,0.2,0.4,0.7,0.2,1
	c0,0.1-0.1,0.1-0.2,0.2l0,0.7c0,0,0,0,0,0c0,0.4-0.2,0.7-0.5,0.8l-1.1,0.5c-0.3,0.1-0.7,0.1-1-0.1c0,0,0,0,0,0l-0.8-0.7l-1.5,0.6
	l0.1,0.5c0,0.3,0,0.5-0.2,0.7s-0.4,0.3-0.7,0.3l-1.5,0l0,0c0,0.3-0.1,0.6-0.4,0.8c-0.3,0.2-0.6,0.2-0.9,0.1c0,0,0,0,0,0l-0.5-0.2
	l-0.4,0.7c0.1,0,0.1,0,0.1,0.1l2.2,1.2c0.4,0.1,0.7,0.4,0.9,0.7l0.8,1.3c0,0,0,0.1,0.1,0.1l2.5,0c0.1,0,0.1,0,0.2,0
	c0.4,0.1,0.8,0.4,1,0.8c0.1,0.1,0.1,0.3,0.2,0.4c0,0,0,0.1,0,0.1l0.1,1.6l0.1,1.6c0,0,0,0,0.1,0c0,0,0,0,0,0l0.9,0.1l1.3-1.3
	l0.1-0.7v0c0-0.3,0.2-0.5,0.4-0.6c0.2-0.1,0.5-0.2,0.7-0.2c0,0,0,0,0,0l0.7,0.1c0.3,0.1,0.6,0.3,0.7,0.7c0,0,0,0,0,0l0.4,1.6
	c0,0.1,0,0.1,0,0.2l0.1,1.2l1-0.4c0.3-0.1,0.5-0.1,0.7,0.1c0.2,0.2,0.3,0.5,0.2,0.7c-0.1,0.5-0.3,1-0.5,1.5
	c-1.3,3.7-4.1,6.7-7.6,8.4C-72.3,134-74.5,134.5-76.6,134.5z M-89.1,124.4c0.7,1.8,1.7,3.4,3,4.7c1.4,1.4,3,2.4,4.9,3.1
	c3.4,1.2,7,1,10.2-0.5c3.2-1.5,5.6-4.1,6.9-7.4c-0.1,0.1-0.2,0.1-0.2,0.1c-0.3,0.1-0.6,0.1-0.8-0.1c-0.2-0.2-0.4-0.4-0.4-0.7v0
	l-0.1-2l-0.2-0.7c0,0.1-0.1,0.2-0.2,0.3c0,0,0,0,0,0l-1.6,1.6c-0.2,0.2-0.5,0.3-0.8,0.3h0l-1.1-0.2c0,0,0,0,0,0
	c-0.3,0-0.6-0.2-0.9-0.4c0,0,0,0,0,0c-0.1-0.1-0.2-0.3-0.3-0.4c0-0.1-0.1-0.2-0.1-0.3L-71,120c0,0,0,0,0,0l-0.1-1.5c0,0,0,0,0,0
	c0,0,0-0.1-0.1-0.1l-2.5,0c-0.1,0-0.1,0-0.2,0c-0.4-0.1-0.8-0.4-1-0.8l-0.8-1.3c0,0-0.1-0.1-0.1-0.1c-0.1,0-0.1,0-0.2-0.1l-2.2-1.2
	c0,0,0,0,0,0l-0.2,0c-0.3-0.1-0.6-0.4-0.7-0.7l-0.1-0.5c-0.1-0.2,0-0.5,0.1-0.7c0,0,0,0,0,0l0.8-1.3c0,0,0,0,0,0
	c0.2-0.4,0.7-0.6,1.2-0.4l0.1,0c0-0.1,0.1-0.3,0.2-0.4c0.2-0.2,0.4-0.3,0.7-0.3c0,0,0,0,0,0l1.5,0l0-0.4c0,0,0,0,0,0
	c0-0.4,0.2-0.8,0.6-1c0,0,0,0,0,0l2.2-0.8c0,0,0,0,0,0c0.3-0.1,0.7,0,0.9,0.2l0.8,0.7l0.5-0.2l0-0.8c-0.8-0.5-1.6-0.9-2.4-1.2
	c-0.7-0.3-1.5-0.5-2.3-0.6c0,0,0,0,0,0c0,0,0,0,0,0c-0.2,0-0.4-0.1-0.6-0.1h0l-0.1,0c0,0-0.1,0-0.1,0c0,0-0.1,0-0.1,0
	c-0.1,0-0.1,0-0.2,0c-0.2,0-0.5,0-0.8,0c0,0,0,0,0,0c-0.4,0-0.7,0-1.1,0l-0.6,0.1c-0.1,0-0.2,0-0.3,0c0,0-0.1,0-0.1,0
	c0,0-0.1,0-0.1,0c0,0-0.1,0-0.1,0c0,0,0,0,0,0c0,0,0,0-0.1,0c0,0,0,0-0.1,0l-0.4,0.1c0,0,0,0,0,0c0,0-0.1,0-0.1,0
	c-0.1,0-0.2,0-0.2,0.1c0,0-0.1,0-0.1,0c0,0,0,0,0,0c0,0,0,0-0.1,0c0,0,0,0-0.1,0c0,0,0,0,0,0c0,0,0,0-0.1,0l0,0c0,0,0,0,0,0
	c0,0,0,0,0,0c0,0-0.1,0-0.1,0c0,0,0,0,0,0c0,0,0,0,0,0c0,0,0,0-0.1,0c0,0,0,0,0,0c0,0-0.1,0-0.1,0c-0.1,0-0.1,0-0.2,0.1c0,0,0,0,0,0
	c0,0-0.1,0-0.1,0c-0.1,0-0.3,0.1-0.4,0.1c0,0-0.1,0-0.1,0c0,0,0,0-0.1,0c0,0,0,0-0.1,0c0,0,0,0,0,0l0,0c-0.2,0.1-0.4,0.2-0.6,0.3
	c0,0,0,0,0,0c0,0,0,0-0.1,0c0,0,0,0-0.1,0c-0.6,0.3-1.2,0.6-1.7,1c0,0,0,0,0,0c0,0,0,0-0.1,0c0,0,0,0,0,0c-0.2,0.1-0.4,0.3-0.6,0.5
	c0,0,0,0,0,0c0,0,0,0-0.1,0c0,0,0,0-0.1,0c0,0,0,0-0.1,0.1c0,0-0.1,0.1-0.1,0.1c-1.3,1.1-2.4,2.4-3.2,3.8c-0.4,0.6-0.7,1.3-0.9,2
	c-0.5,1.4-0.8,2.8-0.8,4.3v0.4c0,1.6,0.3,3.1,0.9,4.5C-89.1,124.3-89.1,124.4-89.1,124.4z"/>
<path class="st0" d="M-76.7,132.1c-0.1,0-0.3,0-0.4-0.1l-1-0.3c-0.7-0.2-1.2-0.8-1.2-1.5l-0.1-2.5c0-0.3,0.1-0.7,0.2-0.9l0.5-0.9
	c0,0,0-0.1,0-0.1l-0.2-2.6c0-0.1-0.1-0.2-0.1-0.2l-1.8-0.8c-0.2-0.1-0.3-0.2-0.5-0.3l-1.4-1.4c-0.4-0.3-0.5-0.8-0.5-1.3l0.1-2.3
	c0-0.5,0.3-1,0.8-1.3l3.3-2c0.3-0.2,0.7-0.3,1.1-0.2c0,0,0,0,0,0l0,0c0,0,0,0,0.1,0c0.1,0,0.2,0.1,0.3,0.1l2.2,1.2
	c0.4,0.1,0.7,0.4,0.9,0.7l0.8,1.3c0,0,0,0.1,0.1,0.1l2.5,0c0.1,0,0.1,0,0.2,0c0.4,0.1,0.8,0.4,1,0.8c0.1,0.1,0.1,0.3,0.2,0.4
	c0,0,0,0.1,0,0.1l0.1,3.1c0,0,0,0,0,0c0,0,0,0,0,0.1c0,0,0.1,0,0.1,0c0,0,0,0,0,0c0.5,0.1,1,0.4,1.2,0.9c0.2,0.5,0.3,1,0,1.5
	l-0.4,0.8v0c-0.1,0.3-0.3,0.5-0.6,0.7l-2.3,1.4c0,0,0,0,0,0c0,0-0.1,0.1-0.1,0.1v0l-0.4,1.5c-0.2,0.5-0.6,1-1.1,1.1l-1,0.3
	c0,0,0,0,0,0l-1.6,1.8c0,0-0.1,0.1-0.1,0.1C-76,132-76.3,132.1-76.7,132.1z M-78.1,114.8c0,0-0.1,0-0.1,0l-3.3,2
	c-0.1,0-0.1,0.1-0.1,0.2l-0.1,2.3c0,0.1,0,0.1,0.1,0.2l1.4,1.4c0,0,0,0,0.1,0l1.8,0.8c0.6,0.2,1,0.8,1,1.4l0.2,2.6c0,0,0,0,0,0
	c0,0.3-0.1,0.7-0.2,1c0,0,0,0,0,0l-0.5,0.9c0,0,0,0.1,0,0.1c0,0,0,0,0,0l0.1,2.5v0c0,0.1,0.1,0.2,0.2,0.2l1,0.3c0,0,0.1,0,0.1,0
	l1.6-1.8c0,0,0.1-0.1,0.1-0.1c0.1-0.1,0.3-0.2,0.5-0.3l1-0.3c0.1,0,0.1-0.1,0.1-0.1l0.4-1.5c0.1-0.4,0.4-0.7,0.7-0.9l2.2-1.4
	c0,0,0.1,0,0.1-0.1l0.4-0.8c0-0.1,0-0.1,0-0.2c0,0-0.1-0.1-0.1-0.1c0,0,0,0,0,0c-0.3,0-0.6-0.2-0.9-0.4c0,0,0,0,0,0
	c-0.1-0.1-0.2-0.3-0.3-0.4c-0.1-0.1-0.1-0.3-0.1-0.4c0,0,0-0.1,0-0.1l-0.1-3.1c0,0,0,0,0,0c0,0,0-0.1-0.1-0.1l-2.5,0
	c-0.1,0-0.1,0-0.2,0c-0.4-0.1-0.8-0.4-1-0.8l-0.8-1.3c0-0.1-0.1-0.1-0.1-0.1c-0.1,0-0.1,0-0.2-0.1L-78.1,114.8z"/>
<path class="st0" d="M-89.8,125.3c0,0-0.1,0-0.1,0c-0.2,0-0.4-0.2-0.5-0.5c-1.3-3.3-1.3-7-0.1-10.3c0.3-0.7,0.6-1.5,1-2.2
	c0.1-0.3,0.5-0.4,0.8-0.4c0.3,0.1,0.5,0.3,0.6,0.6l0.6,3.6l0.5,2l1,1.7c0.1,0.2,0.1,0.5,0,0.7l-1.2,1.8l-1.1,1.8
	c0,0-0.1,0.1-0.1,0.1l-0.6,0.7C-89.4,125.3-89.6,125.3-89.8,125.3z M-89.3,115.3c-0.9,2.5-0.9,5.3-0.2,7.8l0.9-1.4c0,0,0,0,0,0
	l0.9-1.4l-0.8-1.4c0-0.1-0.1-0.1-0.1-0.2l-0.5-2.1c0,0,0,0,0,0L-89.3,115.3z"/>
<path class="st0" d="M-81.6,110.1c-0.1,0-0.3,0-0.4-0.1c0,0,0,0,0,0l-0.9-0.4l-2.3,0.1c-0.2,0-0.5,0-0.6-0.1
	c-0.2-0.2-0.4-0.4-0.4-0.7c0-0.3,0.1-0.5,0.3-0.7c3.3-2.6,7.5-3.7,11.7-3.1c0.2,0,0.4,0.1,0.5,0.3c0,0,0,0,0,0l1.2,1.4c0,0,0,0,0,0
	c0.2,0.2,0.2,0.5,0.1,0.8c-0.1,0.3-0.3,0.5-0.5,0.5L-75,109c0,0,0,0-0.1,0c-0.1,0-0.2,0-0.3,0c0,0,0,0,0,0l-2.5-0.1
	c-0.1,0-0.2,0-0.3,0c0,0,0,0,0,0l-0.3-0.1c-0.3,0.1-1,0.2-1.6,0.4l-1.2,0.7C-81.3,110-81.4,110.1-81.6,110.1z M-82.7,108.1
	c0.1,0,0.3,0,0.4,0.1c0,0,0,0,0,0l0.7,0.4l1-0.6c0.1,0,0.1-0.1,0.2-0.1c2-0.5,2.1-0.5,2.3-0.4c0,0,0,0,0,0l0.3,0.1l2.3,0.1l1.4-0.6
	l-0.6-0.7c-3-0.5-6.1,0.2-8.8,1.7l0.5,0C-82.9,108.1-82.8,108.1-82.7,108.1z"/>
<path class="st0" d="M-63.9,108.1h-1.4v-4.4c0-0.4,0.3-0.7,0.7-0.7h4v1.4h-3.2V108.1z"/>
<path class="st0" d="M-96.4,117.9c-0.1,0-0.1,0-0.2,0c-0.2,0-0.3-0.2-0.4-0.3l-2-3.4l1.3-0.7l1.6,2.8l3.2-1.8l0.7,1.3l-3.8,2.2
	C-96.1,117.9-96.3,117.9-96.4,117.9z"/>
<path class="st0" d="M-70.2,141.7l-1.3-0.7l1.6-2.8l-3.2-1.8l0.7-1.3l3.8,2.2c0.3,0.2,0.5,0.6,0.3,1L-70.2,141.7z"/>
</svg>
