<svg width="31" height="39" viewBox="0 0 31 39" fill="none" xmlns="http://www.w3.org/2000/svg">
<path d="M30.1419 34.7029L26.8753 31.4286C27.6432 29.8232 27.8188 27.9979 27.3709 26.2755C26.923 24.5532 25.8806 23.0446 24.4279 22.0166C22.9752 20.9886 21.2058 20.5073 19.4325 20.6579C17.6593 20.8085 15.9963 21.5812 14.7378 22.8395C13.4792 24.0977 12.7061 25.7604 12.5551 27.5337C12.404 29.3069 12.8848 31.0764 13.9125 32.5294C14.9401 33.9823 16.4484 35.0252 18.1707 35.4735C19.8929 35.9217 21.7182 35.7467 23.3239 34.9791L26.5977 38.2449C26.8302 38.4776 27.1064 38.6622 27.4103 38.7883C27.7142 38.9143 28.04 38.9792 28.369 38.9793C28.698 38.9794 29.0238 38.9147 29.3278 38.7889C29.6319 38.663 29.9081 38.4786 30.1408 38.246C30.3735 38.0134 30.5582 37.7373 30.6842 37.4334C30.8102 37.1294 30.8751 36.8037 30.8752 36.4747C30.8753 36.1456 30.8106 35.8198 30.6848 35.5158C30.559 35.2118 30.3745 34.9356 30.1419 34.7029ZM15.9421 32.3311C15.1228 31.5117 14.5649 30.4678 14.3389 29.3314C14.1129 28.195 14.229 27.0171 14.6724 25.9466C15.1158 24.8762 15.8667 23.9613 16.8302 23.3175C17.7936 22.6738 18.9262 22.3303 20.0849 22.3303C21.2435 22.3303 22.3762 22.6738 23.3396 23.3175C24.303 23.9613 25.0539 24.8762 25.4973 25.9466C25.9408 27.0171 26.0568 28.195 25.8308 29.3314C25.6048 30.4678 25.0469 31.5117 24.2277 32.3311C23.1281 33.4283 21.6382 34.0444 20.0849 34.0444C18.5315 34.0444 17.0416 33.4283 15.9421 32.3311ZM28.9556 37.0626C28.7987 37.2167 28.5875 37.3031 28.3676 37.3031C28.1476 37.3031 27.9364 37.2167 27.7795 37.0626L24.7825 34.0722C25.2222 33.7257 25.6195 33.3286 25.9661 32.889L28.9565 35.887C29.034 35.9641 29.0955 36.0557 29.1375 36.1567C29.1795 36.2576 29.2011 36.3659 29.2011 36.4752C29.2011 36.5845 29.1795 36.6928 29.1375 36.7938C29.0955 36.8947 29.034 36.9864 28.9565 37.0635L28.9556 37.0626Z" fill="#06726F"/>
<path d="M15.0635 35.7205H4.18431C3.51868 35.7197 2.88051 35.455 2.40984 34.9843C1.93917 34.5137 1.67443 33.8755 1.67372 33.2099V4.75659C1.67443 4.09096 1.93917 3.45279 2.40984 2.98212C2.88051 2.51145 3.51868 2.24671 4.18431 2.246H18.7287C18.9032 2.24672 19.0772 2.26542 19.2478 2.30179V7.26717C19.2485 7.9328 19.5133 8.57097 19.9839 9.04164C20.4546 9.51231 21.0928 9.77705 21.7584 9.77776H26.7153C26.7565 9.95652 26.7781 10.1393 26.7796 10.3227V21.4938C26.7796 21.7158 26.8677 21.9286 27.0247 22.0856C27.1816 22.2425 27.3945 22.3307 27.6164 22.3307C27.8384 22.3307 28.0512 22.2425 28.2082 22.0856C28.3651 21.9286 28.4533 21.7158 28.4533 21.4938V10.3245C28.4546 9.77653 28.3476 9.2337 28.1385 8.72718C27.9294 8.22067 27.6223 7.76045 27.2348 7.37295L21.6946 1.80459C21.3066 1.41278 20.8446 1.10205 20.3354 0.890487C19.8263 0.678926 19.2801 0.570759 18.7287 0.572281H4.18431C3.07496 0.573581 2.01142 1.01484 1.22699 1.79927C0.442562 2.5837 0.00129935 3.64724 0 4.75659V33.2099C0.00129935 34.3192 0.442562 35.3828 1.22699 36.1672C2.01142 36.9516 3.07496 37.3929 4.18431 37.3942H15.0635C15.2855 37.3942 15.4983 37.306 15.6553 37.1491C15.8122 36.9921 15.9004 36.7793 15.9004 36.5573C15.9004 36.3354 15.8122 36.1225 15.6553 35.9656C15.4983 35.8086 15.2855 35.7205 15.0635 35.7205ZM25.6026 8.10403H21.7584C21.5365 8.10391 21.3237 8.01571 21.1668 7.85879C21.0099 7.70188 20.9216 7.48908 20.9215 7.26717V3.4011L25.6026 8.10403Z" fill="#06726F"/>
<path d="M5.85786 9.77773H15.0633C15.2853 9.77773 15.4981 9.68956 15.6551 9.53262C15.812 9.37567 15.9002 9.16281 15.9002 8.94087C15.9002 8.71892 15.812 8.50606 15.6551 8.34912C15.4981 8.19217 15.2853 8.104 15.0633 8.104H5.85786C5.63591 8.104 5.42305 8.19217 5.26611 8.34912C5.10917 8.50606 5.021 8.71892 5.021 8.94087C5.021 9.16281 5.10917 9.37567 5.26611 9.53262C5.42305 9.68956 5.63591 9.77773 5.85786 9.77773Z" fill="#06726F"/>
<path d="M22.5952 13.1252H8.3686C8.14665 13.1252 7.93379 13.2134 7.77685 13.3704C7.61991 13.5273 7.53174 13.7402 7.53174 13.9621C7.53174 14.1841 7.61991 14.3969 7.77685 14.5539C7.93379 14.7108 8.14665 14.799 8.3686 14.799H22.5952C22.8172 14.799 23.0301 14.7108 23.187 14.5539C23.3439 14.3969 23.4321 14.1841 23.4321 13.9621C23.4321 13.7402 23.3439 13.5273 23.187 13.3704C23.0301 13.2134 22.8172 13.1252 22.5952 13.1252Z" fill="#06726F"/>
<path d="M23.4319 18.1464C23.4319 17.9245 23.3438 17.7116 23.1868 17.5547C23.0299 17.3977 22.817 17.3096 22.5951 17.3096H5.85786C5.63591 17.3096 5.42305 17.3977 5.26611 17.5547C5.10917 17.7116 5.021 17.9245 5.021 18.1464C5.021 18.3684 5.10917 18.5812 5.26611 18.7382C5.42305 18.8951 5.63591 18.9833 5.85786 18.9833H22.5951C22.817 18.9833 23.0299 18.8951 23.1868 18.7382C23.3438 18.5812 23.4319 18.3684 23.4319 18.1464Z" fill="#06726F"/>
<path d="M11.7159 22.3308C11.7159 22.1088 11.6277 21.8959 11.4708 21.739C11.3138 21.5821 11.101 21.4939 10.879 21.4939H5.85786C5.63591 21.4939 5.42305 21.5821 5.26611 21.739C5.10917 21.8959 5.021 22.1088 5.021 22.3308C5.021 22.5527 5.10917 22.7656 5.26611 22.9225C5.42305 23.0794 5.63591 23.1676 5.85786 23.1676H10.879C11.101 23.1676 11.3138 23.0794 11.4708 22.9225C11.6277 22.7656 11.7159 22.5527 11.7159 22.3308Z" fill="#06726F"/>
<path d="M5.85786 27.3519H9.2053C9.42725 27.3519 9.64011 27.2638 9.79705 27.1068C9.95399 26.9499 10.0422 26.737 10.0422 26.5151C10.0422 26.2931 9.95399 26.0803 9.79705 25.9233C9.64011 25.7664 9.42725 25.6782 9.2053 25.6782H5.85786C5.63591 25.6782 5.42305 25.7664 5.26611 25.9233C5.10917 26.0803 5.021 26.2931 5.021 26.5151C5.021 26.737 5.10917 26.9499 5.26611 27.1068C5.42305 27.2638 5.63591 27.3519 5.85786 27.3519Z" fill="#06726F"/>
<path d="M5.85786 31.536H10.0422C10.2641 31.536 10.477 31.4479 10.6339 31.2909C10.7909 31.134 10.879 30.9211 10.879 30.6992C10.879 30.4772 10.7909 30.2644 10.6339 30.1074C10.477 29.9505 10.2641 29.8623 10.0422 29.8623H5.85786C5.63591 29.8623 5.42305 29.9505 5.26611 30.1074C5.10917 30.2644 5.021 30.4772 5.021 30.6992C5.021 30.9211 5.10917 31.134 5.26611 31.2909C5.42305 31.4479 5.63591 31.536 5.85786 31.536Z" fill="#06726F"/>
<path d="M20.0847 30.6993C19.4191 30.6985 18.7809 30.4338 18.3102 29.9631C17.8396 29.4925 17.5748 28.8543 17.5741 28.1887C17.5741 27.9667 17.4859 27.7539 17.329 27.5969C17.1721 27.44 16.9592 27.3518 16.7373 27.3518C16.5153 27.3518 16.3024 27.44 16.1455 27.5969C15.9886 27.7539 15.9004 27.9667 15.9004 28.1887C15.9017 29.298 16.343 30.3616 17.1274 31.146C17.9118 31.9304 18.9753 32.3717 20.0847 32.373C20.3066 32.373 20.5195 32.2848 20.6764 32.1279C20.8334 31.9709 20.9216 31.7581 20.9216 31.5361C20.9216 31.3142 20.8334 31.1013 20.6764 30.9444C20.5195 30.7874 20.3066 30.6993 20.0847 30.6993Z" fill="#06726F"/>
</svg>
