<svg width="43" height="43" viewBox="0 0 43 43" fill="none" xmlns="http://www.w3.org/2000/svg">
<path d="M3.41489 17.8974L1.98242 17.6901C2.83129 11.7962 6.17371 6.56795 11.1463 3.34129C12.4631 2.48277 13.8907 1.77377 15.3955 1.23359C16.5434 0.818798 17.7492 0.500472 18.9791 0.288255C22.6736 -0.33875 26.4694 0.0615686 29.9661 1.4458L29.4308 2.79145C26.18 1.5085 22.6495 1.1323 19.2202 1.7159C18.0772 1.90882 16.9582 2.20785 15.8875 2.5937C14.4888 3.10013 13.1624 3.75607 11.9373 4.55671C7.31196 7.55669 4.20588 12.4184 3.41489 17.8974Z" fill="#06726F"/>
<path d="M34.9339 36.9633L34.0513 35.8154C36.8776 33.6498 39.0384 30.7415 40.302 27.399C41.9226 23.1306 41.9612 18.4136 40.4081 14.1065C40.056 13.1274 39.6268 12.1821 39.13 11.2898C37.9725 9.19661 36.4435 7.36382 34.5963 5.83972C34.4419 5.71432 34.2876 5.58892 34.1188 5.45869L35.0014 4.31079C35.1847 4.45066 35.3535 4.58571 35.5175 4.72076C37.5094 6.36062 39.1493 8.33327 40.3985 10.5857C40.929 11.5455 41.3921 12.5631 41.7731 13.6146C42.6219 15.9731 43.0319 18.4232 42.9981 20.9071C42.9644 23.3042 42.511 25.6627 41.6573 27.9151C40.2924 31.5035 37.9725 34.6337 34.9339 36.9633Z" fill="#06726F"/>
<path d="M22.3983 41.2267C22.027 41.2267 21.6556 41.2171 21.2842 41.1978C18.6218 41.0531 16.0463 40.4068 13.6251 39.2686C11.2039 38.1303 9.0576 36.5628 7.24893 34.6046C5.37756 32.5789 3.9451 30.2252 3.00459 27.6111C2.59945 26.4825 2.28595 25.296 2.07373 24.0902L3.50137 23.8442C3.69912 24.9728 3.98851 26.0725 4.36471 27.124C7.94828 37.0596 18.9546 42.2251 28.8903 38.6464C29.1073 38.5692 29.3195 38.4872 29.551 38.3956L30.0912 39.7364C29.8404 39.8377 29.6089 39.9245 29.3774 40.0065C27.1153 40.812 24.7761 41.2267 22.3983 41.2267Z" fill="#06726F"/>
<path d="M34.3645 25.4697C34.1908 25.4697 34.0172 25.4215 33.8677 25.325C33.6217 25.1707 33.4625 24.9006 33.4433 24.6112V24.6064L33.3179 22.6096L33.1635 21.9247C33.1201 22.0453 33.0478 22.1562 32.9609 22.243L31.3983 23.8491C31.1909 24.0662 30.8918 24.1723 30.588 24.124H30.5831L29.4642 23.9408C29.4545 23.9408 29.4497 23.9408 29.4401 23.9359C29.1121 23.8877 28.8131 23.7382 28.5671 23.5115C28.432 23.3861 28.3211 23.2414 28.2343 23.0774C28.1909 22.9906 28.1619 22.899 28.1523 22.8025L27.9931 20.9504C27.9931 20.9408 27.9931 20.9311 27.9931 20.9215L27.9256 19.4119C27.9256 19.407 27.9208 19.4022 27.9208 19.4022C27.9015 19.3685 27.8726 19.3395 27.8388 19.3202L25.3452 19.3154C25.2777 19.3154 25.215 19.3058 25.1523 19.2865C24.7279 19.1659 24.371 18.891 24.1539 18.5148L23.3919 17.1981C23.3629 17.145 23.3147 17.1064 23.252 17.0919C23.1893 17.0775 23.1314 17.0534 23.0784 17.0244L20.8887 15.8042H20.8839L20.7006 15.7559C20.3774 15.6691 20.1266 15.4183 20.0398 15.0952C20.0398 15.0903 20.035 15.0807 20.035 15.0759L19.9192 14.5887C19.9192 14.5791 19.9144 14.5743 19.9144 14.5646C19.871 14.3428 19.9048 14.1161 20.0109 13.928C20.0109 13.9232 20.0157 13.9232 20.0157 13.9183L20.7778 12.592C21.0093 12.182 21.5253 12.0132 21.9546 12.2061L22.0704 12.2592C22.1041 12.1 22.1813 11.9457 22.2922 11.8251C22.461 11.6418 22.7022 11.5309 22.953 11.5309L24.3999 11.4971L24.3517 11.1499C24.289 10.7206 24.535 10.2962 24.9498 10.1467L27.1925 9.31226C27.1973 9.31226 27.1973 9.31226 27.2021 9.30743C27.5205 9.1965 27.8822 9.26403 28.133 9.49071L28.9433 10.2142L29.3967 10.0116L29.3774 9.19168C29.3677 8.86371 29.5365 8.55021 29.8211 8.37657C30.1057 8.20294 30.4674 8.20294 30.7568 8.36693C30.7712 8.37657 30.7857 8.3814 30.8002 8.39104C30.8147 8.40069 30.8291 8.41033 30.8436 8.41998L30.8532 8.4248C30.8725 8.43927 30.9015 8.45857 30.9401 8.4875L31.0172 8.54056C31.051 8.56467 31.0848 8.58879 31.1185 8.61773C31.1282 8.62737 31.1378 8.6322 31.1475 8.64184C31.1812 8.66596 31.215 8.69008 31.2439 8.71419C31.3114 8.76242 31.3645 8.80583 31.4175 8.84441C31.4272 8.85406 31.4368 8.85888 31.4417 8.86371C31.4513 8.86853 31.461 8.87818 31.4658 8.883C31.4851 8.89747 31.5044 8.91194 31.5188 8.92641C31.543 8.9457 31.5671 8.96499 31.5912 8.98429C31.6008 8.99393 31.6153 8.99876 31.6201 9.0084C31.6249 9.0084 31.6249 9.01322 31.6298 9.01322C31.6587 9.03252 31.6828 9.05663 31.7118 9.07592C31.7262 9.08557 31.7359 9.09522 31.7455 9.10486C31.7503 9.10969 31.7552 9.11451 31.7648 9.11933C31.7889 9.13862 31.8275 9.16756 31.8709 9.20615C31.8757 9.21097 31.8854 9.2158 31.8902 9.22544C31.9095 9.23991 31.924 9.25438 31.9433 9.26885C31.9674 9.28814 32.006 9.31708 32.0446 9.35566C32.0687 9.37496 32.1024 9.4039 32.1362 9.43283C32.1458 9.44248 32.1603 9.45213 32.17 9.4666L32.1796 9.47624L32.1844 9.48107C32.2085 9.50036 32.2327 9.52447 32.2568 9.54377C32.2616 9.54859 32.2712 9.55341 32.2761 9.56306C32.3098 9.592 32.3388 9.61611 32.3581 9.64023C32.3918 9.66917 32.4304 9.70293 32.4642 9.73669C32.4883 9.75598 32.5027 9.77528 32.5172 9.78492C32.5654 9.82351 32.5992 9.86209 32.633 9.89103L32.6378 9.89585C32.6523 9.91032 32.6764 9.92962 32.7005 9.95855C32.7343 9.99232 32.7728 10.0261 32.8018 10.0598C32.8259 10.084 32.85 10.1081 32.8597 10.1177L32.9417 10.1997C32.9706 10.2286 33.0044 10.2624 33.0429 10.3058L33.0671 10.3299C33.0767 10.3396 33.0863 10.3492 33.096 10.3637C33.1105 10.3782 33.1249 10.3975 33.1394 10.4119C33.1587 10.4312 33.178 10.4505 33.1973 10.4746L33.2069 10.4843C33.2166 10.4939 33.231 10.5084 33.2407 10.518C33.26 10.5373 33.2889 10.5663 33.313 10.5952C33.3275 10.6097 33.3371 10.6241 33.3516 10.6338C33.3613 10.6434 33.3709 10.6531 33.3757 10.6627C33.395 10.682 33.4143 10.7013 33.4336 10.7254L33.5445 10.8508C33.5494 10.8557 33.5494 10.8557 33.5542 10.8605L33.641 10.9618C33.6458 10.9666 33.6507 10.9714 33.6555 10.9762L33.6651 10.9859C33.6796 11.0052 33.6941 11.0196 33.7134 11.0389L33.7905 11.1257L33.7953 11.1306L33.9256 11.2897C33.94 11.309 33.9545 11.3283 33.969 11.3476C33.9786 11.3573 33.9834 11.3669 33.9931 11.3766C33.9931 11.3814 33.9979 11.3814 33.9979 11.3862L34.0703 11.473C34.0751 11.4778 34.0751 11.4827 34.0799 11.4827C34.1185 11.5309 34.1619 11.5888 34.2101 11.6515C34.2294 11.6756 34.2487 11.6997 34.268 11.7286C34.2777 11.7431 34.2873 11.7576 34.3018 11.772C34.3066 11.7769 34.3114 11.7817 34.3162 11.7865C34.3452 11.8251 34.3741 11.8637 34.4031 11.9071C34.4272 11.9409 34.4513 11.9746 34.4754 12.0084C34.5043 12.047 34.5333 12.0855 34.5526 12.1193C34.567 12.1386 34.5815 12.1627 34.596 12.182C34.6394 12.2447 34.678 12.2978 34.7117 12.3508C34.7214 12.3653 34.731 12.3798 34.7407 12.3942C34.7455 12.3991 34.7455 12.4039 34.7503 12.4087C34.7648 12.428 34.7793 12.4473 34.7889 12.4666C34.8082 12.4955 34.8275 12.5245 34.8468 12.5534L34.8516 12.5582C34.8613 12.5727 34.8709 12.5872 34.8805 12.6016L34.8854 12.6064C34.9577 12.7174 35.0301 12.8331 35.1072 12.9634C35.1603 13.0502 35.2085 13.1273 35.2519 13.2045C35.2857 13.2624 35.3194 13.3203 35.3484 13.3781C35.3773 13.4264 35.4014 13.4746 35.4304 13.5228C35.4352 13.5325 35.44 13.5373 35.4448 13.547L35.5461 13.7351C35.551 13.7399 35.551 13.7495 35.5558 13.7543C35.5606 13.7688 35.5703 13.7833 35.5751 13.7929C35.5944 13.8267 35.6137 13.8701 35.6378 13.9183C35.6571 13.9569 35.6764 13.9955 35.6957 14.0341C35.7149 14.0727 35.7294 14.1064 35.7487 14.145C35.7535 14.1547 35.7584 14.1595 35.7584 14.1691C35.768 14.1933 35.7776 14.2125 35.7921 14.2367C35.8018 14.2608 35.8114 14.2801 35.8211 14.3042C35.8259 14.3138 35.8307 14.3283 35.8403 14.3379C35.8596 14.3765 35.8838 14.4248 35.9079 14.4826C35.9079 14.4875 35.9127 14.4875 35.9127 14.4923C35.9223 14.5164 35.9368 14.5357 35.9465 14.5598C35.9802 14.6322 36.0092 14.6997 36.0333 14.7624C36.0526 14.8058 36.0719 14.8492 36.0815 14.883C36.096 14.9167 36.1104 14.9457 36.1201 14.9794C36.1297 15.0035 36.1394 15.0228 36.1442 15.0373C36.1538 15.0518 36.1587 15.0711 36.1635 15.0855C36.1683 15.1 36.1731 15.1096 36.178 15.1241C36.1876 15.1482 36.1973 15.1675 36.2069 15.1916C36.231 15.2495 36.26 15.3219 36.2889 15.4039C36.2937 15.4231 36.3034 15.4376 36.3082 15.4569C36.313 15.4714 36.3178 15.4907 36.3227 15.5051C36.3275 15.5148 36.3275 15.5196 36.3323 15.5293C36.3371 15.5389 36.3371 15.5437 36.3419 15.5534C36.3468 15.5678 36.3516 15.5871 36.3612 15.6016C36.3709 15.6305 36.3805 15.6547 36.3902 15.6836C36.395 15.6981 36.3998 15.7125 36.4046 15.727C36.4143 15.7463 36.4191 15.7656 36.4239 15.7849L36.4336 15.8138C36.4384 15.8283 36.4432 15.8428 36.4481 15.8572C36.4577 15.8765 36.4625 15.8958 36.4722 15.9199L36.5156 16.0453C36.5252 16.0646 36.5301 16.0887 36.5397 16.1129C36.5445 16.1321 36.5493 16.1466 36.559 16.1659C36.5686 16.1997 36.5783 16.2286 36.5879 16.2624L36.6313 16.4071C36.641 16.4456 36.6506 16.4794 36.6603 16.5132C36.6651 16.5373 36.6747 16.5614 36.6796 16.5855C36.6844 16.6 36.6892 16.6096 36.6892 16.6241V16.6289C36.6892 16.6337 36.694 16.6434 36.694 16.653C36.7037 16.6868 36.7133 16.7157 36.7182 16.7399C36.7182 16.7495 36.723 16.7591 36.723 16.764C36.7278 16.7833 36.7326 16.7977 36.7374 16.8122L36.7809 16.9858C36.7809 16.9907 36.7857 17.0003 36.7857 17.0051C36.7857 17.0148 36.7905 17.0244 36.7953 17.0341C36.805 17.0678 36.8146 17.1016 36.8194 17.1354C36.8291 17.1691 36.8339 17.1981 36.8387 17.2173C36.8436 17.227 36.8436 17.2366 36.8484 17.2415C36.8532 17.2559 36.8532 17.2656 36.858 17.28C36.8677 17.309 36.8725 17.3427 36.8773 17.3717C36.8821 17.3862 36.8821 17.4006 36.887 17.4151C36.8918 17.4392 36.8966 17.4633 36.9014 17.4874V17.4923C36.9063 17.5116 36.9111 17.5357 36.9159 17.5646C36.9255 17.608 36.9352 17.6562 36.9448 17.7093C36.9448 17.7141 36.9448 17.7189 36.9497 17.7238C36.9641 17.7865 36.9738 17.8443 36.9834 17.8974C36.9882 17.9119 36.9882 17.9263 36.9931 17.9408C36.9931 17.9408 36.9931 17.9408 36.9931 17.9456C37.0027 17.9987 37.0172 18.0662 37.0268 18.1482L37.0413 18.235C37.0413 18.2398 37.0413 18.2398 37.0413 18.2447C37.0413 18.2495 37.0413 18.2543 37.0461 18.264C37.0509 18.2833 37.0558 18.3074 37.0558 18.3267C37.0606 18.3411 37.0606 18.3556 37.0606 18.3652C37.0606 18.3701 37.0654 18.3797 37.0654 18.3845C37.0751 18.4472 37.0847 18.5099 37.0944 18.5871C37.0992 18.616 37.104 18.645 37.104 18.6739C37.104 18.6932 37.1088 18.7125 37.1136 18.7318C37.1136 18.7463 37.1185 18.7559 37.1185 18.7704C37.1233 18.809 37.1281 18.8524 37.1329 18.8861C37.1378 18.9054 37.1378 18.9295 37.1426 18.9537L37.1474 19.0067C37.1522 19.0308 37.1522 19.055 37.1522 19.0791C37.1522 19.0935 37.1571 19.1032 37.1571 19.1177C37.1619 19.1562 37.1667 19.1948 37.1667 19.2334C37.1908 19.4987 37.2101 19.7784 37.2246 20.1402V20.1643C37.2294 20.3138 37.2342 20.4585 37.2342 20.6032C37.2342 20.6996 37.2342 20.7961 37.2294 20.9022C37.2294 20.907 37.2294 20.9118 37.2294 20.9215C37.2053 22.0308 37.0606 23.1208 36.8001 24.1675C36.7423 24.3941 36.5831 24.5774 36.3661 24.6642L35.0156 25.1996C34.9384 25.2768 34.8468 25.3395 34.7455 25.3877C34.731 25.3925 34.7214 25.3973 34.7069 25.4022C34.5912 25.4456 34.4754 25.4697 34.3645 25.4697ZM34.7551 22.4842L34.8323 23.7141L35.4738 23.4585C35.6571 22.6289 35.7584 21.7704 35.7776 20.8974V20.8877C35.7776 20.8733 35.7776 20.8636 35.7776 20.8491C35.7825 20.7768 35.7825 20.6996 35.7825 20.608C35.7825 20.4874 35.7776 20.3572 35.7728 20.2173V20.1932C35.7632 19.8604 35.7487 19.6096 35.7246 19.3733C35.7246 19.3685 35.7246 19.3636 35.7246 19.3588C35.7246 19.3395 35.7198 19.3202 35.7198 19.2961C35.7149 19.2575 35.7101 19.2141 35.7053 19.1755C35.7053 19.1659 35.7053 19.1562 35.7053 19.1466L35.6957 19.0694C35.6908 19.0308 35.686 18.9923 35.6812 18.9488C35.6764 18.9199 35.6715 18.8861 35.6667 18.8572C35.6667 18.8379 35.6619 18.8186 35.6571 18.7993C35.6522 18.78 35.6522 18.7607 35.6474 18.7414C35.6474 18.7173 35.6378 18.6836 35.633 18.645C35.6281 18.6257 35.6281 18.6112 35.6233 18.5968C35.6185 18.5823 35.6185 18.563 35.6137 18.5485C35.6137 18.5437 35.6137 18.5389 35.6088 18.5292C35.604 18.5003 35.5992 18.4665 35.5944 18.4376L35.5799 18.3411C35.5799 18.3267 35.5751 18.317 35.5751 18.3025C35.5751 18.2881 35.5702 18.264 35.5654 18.2398C35.5606 18.2254 35.5606 18.2109 35.5558 18.1964C35.551 18.182 35.551 18.1675 35.5461 18.1482C35.5365 18.0952 35.5317 18.0566 35.522 18.018C35.5172 18.0035 35.5172 17.9939 35.5124 17.9794C35.5076 17.9601 35.5027 17.9408 35.5027 17.9119C35.5027 17.9022 35.4931 17.8733 35.4931 17.8588C35.4883 17.8443 35.4883 17.8347 35.4834 17.8202V17.8154C35.4786 17.8009 35.4738 17.7816 35.469 17.7575C35.4641 17.7334 35.4545 17.7045 35.4497 17.6755C35.4449 17.6611 35.4448 17.6466 35.44 17.6321C35.44 17.6273 35.44 17.6273 35.44 17.6225C35.44 17.6177 35.4352 17.608 35.4352 17.6032C35.4159 17.5405 35.4063 17.4874 35.3966 17.444C35.3966 17.4344 35.3918 17.4247 35.387 17.4151C35.3773 17.3862 35.3725 17.3524 35.3629 17.3235L35.3243 17.1788C35.3146 17.1498 35.3098 17.1209 35.3002 17.0968C35.3002 17.0871 35.2953 17.0775 35.2953 17.0726C35.2905 17.0534 35.2857 17.0437 35.2809 17.0244V17.0196C35.276 17.01 35.276 17.0003 35.2712 16.9907C35.2616 16.9569 35.2519 16.928 35.2423 16.899C35.2375 16.8749 35.2278 16.8508 35.223 16.8267V16.8218L35.1796 16.6772C35.1748 16.6627 35.1699 16.6434 35.1603 16.6241C35.1555 16.6048 35.1458 16.5855 35.141 16.5662C35.1313 16.5469 35.1265 16.5276 35.1217 16.5132L35.0879 16.4071C35.0686 16.3637 35.059 16.3251 35.0445 16.2913C35.0349 16.2672 35.0252 16.2431 35.0204 16.219C35.0156 16.1997 35.0059 16.1804 35.0011 16.1611C34.9915 16.137 34.9818 16.1129 34.977 16.0887C34.977 16.0839 34.9722 16.0791 34.9722 16.0694C34.9674 16.0598 34.9674 16.055 34.9625 16.0453C34.9577 16.0309 34.9529 16.0164 34.9481 15.9971C34.9384 15.9778 34.9336 15.9585 34.924 15.9344C34.9191 15.9199 34.9143 15.9006 34.9095 15.8862C34.9047 15.8717 34.8998 15.8572 34.895 15.8428C34.8854 15.8138 34.8709 15.7752 34.8516 15.7318C34.8468 15.7222 34.8468 15.7174 34.842 15.7077C34.8371 15.6932 34.8323 15.6836 34.8275 15.6691C34.8178 15.6498 34.813 15.6354 34.8082 15.6161C34.7937 15.5871 34.7841 15.563 34.7793 15.5485C34.7696 15.5244 34.76 15.5003 34.7503 15.481C34.7407 15.4617 34.731 15.4376 34.7214 15.4183C34.7166 15.4039 34.7069 15.3797 34.7021 15.3701C34.6924 15.3508 34.6828 15.3267 34.6732 15.3074C34.6539 15.264 34.6394 15.2158 34.6249 15.1868C34.6201 15.1772 34.6153 15.1627 34.6105 15.1531C34.6056 15.1482 34.6056 15.1434 34.6008 15.1386C34.5863 15.1096 34.5719 15.0807 34.5574 15.0469C34.5526 15.0373 34.5477 15.0276 34.5429 15.018C34.5429 15.0132 34.5381 15.0035 34.5333 14.9939C34.5236 14.9746 34.514 14.9553 34.5043 14.9408C34.5043 14.936 34.4995 14.936 34.4995 14.9312C34.4899 14.9071 34.4802 14.883 34.4658 14.8637C34.4513 14.8347 34.4416 14.8106 34.4272 14.7817C34.4079 14.7431 34.3886 14.7045 34.3693 14.6659C34.35 14.6273 34.3307 14.5887 34.3162 14.555C34.3114 14.5453 34.3066 14.5405 34.3066 14.5309C34.2969 14.5068 34.2825 14.4826 34.268 14.4585C34.2584 14.4441 34.2535 14.4296 34.2439 14.4103L34.1523 14.2415C34.1185 14.1884 34.0896 14.1306 34.0606 14.0775C34.0317 14.0293 34.0076 13.981 33.9786 13.9328C33.9738 13.928 33.9738 13.9232 33.969 13.9183C33.9352 13.8556 33.8966 13.7929 33.8532 13.7206C33.8484 13.7158 33.8436 13.7061 33.8436 13.7013C33.7761 13.5904 33.7182 13.4939 33.6603 13.4023L33.6555 13.3974C33.6458 13.383 33.6362 13.3685 33.6265 13.354C33.6217 13.3492 33.6217 13.3444 33.6169 13.3396C33.6024 13.3203 33.5879 13.301 33.5783 13.2817C33.559 13.2527 33.5349 13.219 33.5156 13.19C33.506 13.1756 33.4915 13.1563 33.4818 13.137C33.4577 13.1032 33.4384 13.0695 33.424 13.0502C33.3902 13.0068 33.3661 12.9682 33.342 12.9344C33.3275 12.9151 33.313 12.891 33.2986 12.8717L33.2937 12.8669C33.2648 12.8283 33.2359 12.7897 33.2069 12.7463C33.1828 12.7126 33.1635 12.6836 33.1394 12.6499C33.1201 12.6257 33.1008 12.5968 33.0815 12.5727C33.0719 12.5582 33.0622 12.5437 33.0478 12.5293C33.0429 12.5245 33.0381 12.5148 33.0333 12.51C33.0044 12.4714 32.9754 12.4328 32.9417 12.3942L32.8741 12.3171C32.85 12.2881 32.8307 12.264 32.8114 12.2399C32.8066 12.2302 32.8018 12.2254 32.797 12.2206L32.7921 12.2158L32.5896 11.9698C32.5896 11.965 32.5847 11.965 32.5847 11.9601L32.5751 11.9505C32.5606 11.936 32.5462 11.9167 32.5317 11.9023L32.3436 11.6852C32.3388 11.6804 32.3388 11.6804 32.3339 11.6756C32.3243 11.6659 32.3146 11.6563 32.3098 11.6466C32.2954 11.6322 32.2809 11.6177 32.2712 11.6032C32.2375 11.5695 32.2037 11.5357 32.1651 11.4923L32.1555 11.4827C32.1458 11.473 32.1362 11.4634 32.1265 11.4537C32.1121 11.4393 32.0976 11.42 32.0831 11.4055C32.0638 11.3862 32.0446 11.3669 32.0253 11.3428L31.9963 11.3138C31.9819 11.2994 31.9674 11.2849 31.9529 11.2656C31.9433 11.256 31.9288 11.2415 31.9143 11.227L31.8275 11.1402C31.8179 11.1306 31.8082 11.1209 31.7986 11.1113C31.7793 11.092 31.76 11.0727 31.7407 11.0534C31.7262 11.0389 31.7166 11.0293 31.7021 11.0148C31.678 10.9955 31.6587 10.9762 31.6394 10.9521C31.6249 10.9425 31.6153 10.928 31.6008 10.9184C31.5864 10.9087 31.5719 10.8894 31.5671 10.8846C31.5333 10.8557 31.5044 10.8267 31.4851 10.8122C31.4706 10.8026 31.461 10.7881 31.4465 10.7785C31.432 10.764 31.3983 10.7351 31.3693 10.711C31.3597 10.7013 31.3452 10.6868 31.3356 10.6772C31.3307 10.6724 31.3259 10.6724 31.3259 10.6676C31.3018 10.6483 31.2825 10.629 31.2632 10.6097C31.2584 10.6049 31.2487 10.6 31.2439 10.5904C31.2246 10.5759 31.2053 10.5566 31.186 10.5422L31.1764 10.5325C31.1571 10.518 31.1426 10.5036 31.1233 10.4891C31.1137 10.4843 31.1089 10.4746 31.0992 10.4698C31.0848 10.4553 31.0703 10.4457 31.0558 10.4312C31.0413 10.4168 31.0269 10.4071 31.0124 10.3926C31.0076 10.3878 31.0028 10.3878 31.0028 10.383C30.9931 10.3733 30.9786 10.3637 30.969 10.3541C30.9449 10.3348 30.9208 10.3155 30.8967 10.2962C30.8822 10.2865 30.8725 10.2769 30.8629 10.2624C30.8581 10.2576 30.8581 10.2576 30.8532 10.2576C30.8436 10.2528 30.834 10.2431 30.8243 10.2383V10.3251C30.8243 10.3299 30.8243 10.3348 30.8243 10.3444C30.8243 10.7061 30.6121 11.0341 30.2841 11.1884C30.2793 11.1884 30.2793 11.1933 30.2745 11.1933L29.1989 11.6756C29.1893 11.6804 29.1796 11.6852 29.17 11.6852C28.8372 11.8155 28.461 11.7528 28.2005 11.5164L27.371 10.7785L25.8179 11.3573L25.8903 11.8685C25.9288 12.1241 25.8565 12.3846 25.6973 12.5823C25.5285 12.7897 25.2777 12.9151 25.0125 12.9248C25.0076 12.9248 25.0028 12.9248 25.0028 12.9248L23.5173 12.9585L23.5221 12.9875C23.551 13.3106 23.4064 13.6338 23.1411 13.8219C22.8758 14.01 22.5285 14.0486 22.2295 13.9135L21.7713 13.7109L21.3565 14.4344C21.4096 14.4537 21.4578 14.4778 21.506 14.5068L23.6668 15.7077C24.0575 15.8331 24.3854 16.0936 24.5977 16.4553L25.3597 17.7768C25.379 17.8106 25.4031 17.8347 25.4369 17.854L27.9353 17.8588C28.0028 17.8588 28.0655 17.8685 28.133 17.8878C28.5767 18.0132 28.9385 18.3025 29.1555 18.7029C29.1555 18.7029 29.1555 18.7077 29.1603 18.7077C29.2279 18.8331 29.2761 18.973 29.3147 19.1177C29.3243 19.1611 29.3291 19.2045 29.334 19.2527L29.4063 20.8347L29.5462 22.4697C29.5703 22.4842 29.5896 22.4938 29.6137 22.4987C29.6234 22.4987 29.6282 22.4987 29.6378 22.5035L30.5156 22.6482L31.7696 21.3604L31.8468 20.661C31.8468 20.6562 31.8468 20.6562 31.8468 20.6514C31.8757 20.3958 32.0156 20.1594 32.223 20.0099C32.4304 19.8604 32.7005 19.8025 32.9513 19.8556C32.9561 19.8556 32.9561 19.8556 32.9609 19.8556L33.6314 20.0051C33.9931 20.0775 34.2728 20.3524 34.3452 20.7141L34.6973 22.2913C34.7503 22.3733 34.7551 22.4456 34.7551 22.4842Z" fill="#06726F"/>
<path d="M22.3987 35.4584C20.701 35.4584 18.9984 35.1642 17.3537 34.571C15.2798 33.8234 13.4422 32.6562 11.8988 31.1128C10.4326 29.6466 9.26537 27.8476 8.52743 25.9087C8.52261 25.899 8.51779 25.8845 8.51296 25.8701C7.8956 24.2447 7.56763 22.5325 7.54834 20.7817C7.54834 20.7769 7.54834 20.7769 7.54834 20.772V20.3283C7.54834 20.3235 7.54834 20.3187 7.54834 20.3138C7.57728 18.6933 7.87631 17.1017 8.43097 15.5775C8.69142 14.8493 9.02421 14.1161 9.41971 13.4023C10.3168 11.7866 11.4985 10.3638 12.9358 9.17728L12.9406 9.17245C12.9936 9.12904 13.0563 9.07599 13.1287 9.02293C13.1335 9.01811 13.1383 9.01329 13.1432 9.01329C13.1576 9.00364 13.1769 8.98917 13.201 8.96988C13.2348 8.94094 13.2734 8.912 13.3168 8.88306C13.5338 8.71426 13.7653 8.54545 14.0065 8.38146C14.0403 8.35735 14.0837 8.32841 14.1319 8.29464C14.7155 7.90397 15.3473 7.54224 16.0177 7.22391C16.0226 7.21909 16.0322 7.21909 16.037 7.21427C16.0515 7.20462 16.0708 7.1998 16.0901 7.19015C16.1142 7.1805 16.1383 7.16604 16.1624 7.15639C16.3795 7.0551 16.6158 6.949 16.8811 6.84771L16.9052 6.83806C16.9438 6.82359 16.992 6.8043 17.0451 6.78501C17.0643 6.77536 17.0836 6.77054 17.1078 6.76089C17.1222 6.75607 17.1415 6.74643 17.1608 6.7416C17.1656 6.7416 17.1705 6.73678 17.1705 6.73678C17.32 6.6789 17.4695 6.63067 17.6094 6.57762C17.619 6.57279 17.6287 6.57279 17.6383 6.56797C17.6479 6.56315 17.6576 6.56315 17.6672 6.55832C17.6962 6.54868 17.7348 6.53421 17.7782 6.51974C17.7975 6.51492 17.8264 6.50527 17.836 6.50045C17.865 6.4908 17.8891 6.47633 17.918 6.47151C17.9614 6.45704 18 6.44739 18.0386 6.43292C18.0868 6.41845 18.1495 6.39434 18.2315 6.37987C18.2605 6.37022 18.2894 6.3654 18.3135 6.35575C18.3232 6.35093 18.3328 6.35093 18.3473 6.34611C18.4003 6.32681 18.4486 6.31717 18.4823 6.30752H18.4872C18.5547 6.28341 18.6174 6.26894 18.6656 6.25929C18.6897 6.25447 18.7139 6.24482 18.7428 6.24C18.7573 6.23517 18.7669 6.23517 18.7814 6.23035C18.791 6.22553 18.8007 6.22553 18.8151 6.22071C18.9164 6.19659 19.0225 6.16765 19.1383 6.14354C19.1528 6.13871 19.1624 6.13871 19.1769 6.13389C19.2106 6.12424 19.2492 6.1146 19.283 6.10977L19.7171 6.02296C19.7653 6.01331 19.828 5.99884 19.8955 5.99402C19.9196 5.9892 19.9437 5.98437 19.9679 5.98437C19.9823 5.98437 19.992 5.97955 20.0064 5.97955C20.0161 5.97955 20.0306 5.97473 20.0402 5.97473C20.0884 5.96508 20.1415 5.96026 20.1897 5.95061C20.238 5.94579 20.2862 5.93614 20.3344 5.93132C20.4405 5.91685 20.5563 5.89756 20.672 5.88791L21.2653 5.83003C21.2701 5.83003 21.2797 5.83003 21.2846 5.83003C21.7187 5.79627 22.1383 5.78662 22.5386 5.79145C22.5434 5.79145 22.5482 5.79145 22.5482 5.79145C22.881 5.79627 23.1608 5.80592 23.4357 5.82521C23.4453 5.82521 23.4502 5.82521 23.4598 5.82521C23.4839 5.83003 23.5225 5.83003 23.5321 5.83003C23.5563 5.83003 23.5804 5.83003 23.6045 5.83486C23.6479 5.83968 23.6865 5.8445 23.7299 5.8445C23.7829 5.84933 23.836 5.85415 23.8891 5.85897L24.0337 5.87344C24.0386 5.87344 24.0434 5.87344 24.0482 5.87344L24.0772 5.87826C24.3038 5.9072 24.5354 5.93614 24.7717 5.97473C24.8103 5.97955 24.8489 5.98437 24.8874 5.99402C25.7604 6.14354 26.6141 6.37022 27.434 6.66926C28.5096 7.0551 29.5369 7.56635 30.4871 8.18371C30.6125 8.26088 30.7186 8.33805 30.8247 8.4104C31.1382 8.63226 31.2202 9.06634 31.0128 9.38949C30.9646 9.46184 30.9067 9.52936 30.8392 9.57759L30.8585 10.3252C30.8585 10.33 30.8585 10.3348 30.8585 10.3445C30.8585 10.711 30.6414 11.0438 30.3086 11.1933L29.2379 11.6756C28.9099 11.8252 28.5337 11.7721 28.254 11.5358C28.2492 11.531 28.2443 11.5261 28.2395 11.5213L27.4099 10.7785L25.8665 11.3525L25.9389 11.8686C25.9775 12.1338 25.9051 12.3991 25.7315 12.6017C25.5579 12.8043 25.307 12.92 25.0418 12.9248L23.5611 12.9586L23.5659 12.9875C23.5948 13.3059 23.4598 13.6145 23.1945 13.8123C22.9341 14.0052 22.5868 14.0486 22.2878 13.9232C22.283 13.9232 22.2781 13.9184 22.2733 13.9184L21.8151 13.7158L21.4003 14.4393C21.4534 14.4586 21.5064 14.4827 21.5498 14.5116L23.7106 15.7222C24.0964 15.8476 24.4341 16.1177 24.6415 16.4698L25.4035 17.7914C25.4228 17.8251 25.4469 17.8492 25.4807 17.8685L27.9791 17.8734C28.0418 17.8734 28.1045 17.883 28.1672 17.8975C28.6109 18.018 28.9871 18.3171 29.1993 18.7174C29.2668 18.8428 29.3151 18.9778 29.3536 19.1274C29.3633 19.1708 29.3681 19.2142 29.3729 19.2624L29.4453 20.8444L29.5852 22.4794C29.6093 22.4939 29.6286 22.5035 29.6527 22.5132C29.6623 22.5132 29.6671 22.5132 29.6768 22.518L30.5546 22.6627L31.8086 21.3749L31.8858 20.6756V20.6708C31.9147 20.4151 32.0546 20.1788 32.262 20.0293C32.4694 19.8798 32.7395 19.8219 32.9903 19.8749C32.9951 19.8749 32.9951 19.8749 32.9999 19.8749L33.6752 20.0245C34.0128 20.092 34.2877 20.3573 34.3793 20.6949C34.3842 20.7045 34.3842 20.7142 34.3842 20.7238L34.7362 22.3106C34.7604 22.3926 34.7652 22.4601 34.7652 22.5035L34.8423 23.7286L35.8214 23.3283C36.0722 23.227 36.3616 23.2752 36.5642 23.4537C36.7716 23.6321 36.8584 23.9071 36.7957 24.1723C36.6751 24.6547 36.5304 25.1418 36.3423 25.653C34.9967 29.3813 32.2813 32.362 28.6977 34.0453C26.6913 34.9809 24.5498 35.4584 22.3987 35.4584ZM9.88273 25.3926C10.5531 27.1434 11.5998 28.7639 12.9213 30.0855C14.3152 31.4794 15.9695 32.5308 17.8457 33.206C21.2074 34.4215 24.844 34.2526 28.0803 32.7334C31.2781 31.2334 33.7041 28.5903 34.934 25.2865C34.8616 25.3444 34.7748 25.3926 34.688 25.4215C34.4179 25.5228 34.1092 25.489 33.8633 25.3299C33.6221 25.1755 33.4629 24.9055 33.4436 24.6161V24.6112L33.3182 22.6145L33.1639 21.9248C33.1253 22.0261 33.0674 22.1225 32.9951 22.2093C32.9854 22.219 32.9758 22.2334 32.9662 22.2431L31.3986 23.854C31.1913 24.0711 30.8922 24.1772 30.5884 24.1289H30.5835L29.4646 23.9457C29.4549 23.9457 29.4501 23.9457 29.4405 23.9408C29.1125 23.8926 28.8135 23.7431 28.5675 23.5164C28.5627 23.5116 28.553 23.5019 28.5482 23.4971C28.418 23.3669 28.3119 23.227 28.2347 23.0823C28.1913 22.9955 28.1623 22.9039 28.1527 22.8074L27.9935 20.9553C27.9935 20.9457 27.9935 20.936 27.9935 20.9264L27.926 19.4167C27.9212 19.4071 27.9212 19.4023 27.9212 19.4023C27.9019 19.3685 27.8778 19.3396 27.844 19.3203L25.3456 19.3155C25.2781 19.3155 25.2154 19.3058 25.1527 19.2865C24.7283 19.1659 24.3714 18.891 24.1543 18.5148L23.3923 17.1981C23.3633 17.1499 23.3103 17.1065 23.2524 17.092C23.1897 17.0775 23.1318 17.0534 23.0788 17.0245L20.8891 15.8042C20.8891 15.8042 20.8891 15.8042 20.8843 15.8042L20.701 15.756C20.3682 15.6692 20.1077 15.3991 20.0354 15.0663L19.9245 14.5985C19.8666 14.3766 19.8955 14.1306 20.0113 13.9232C20.0113 13.9184 20.0161 13.9184 20.0161 13.9136L20.7781 12.5824C20.783 12.5776 20.783 12.5727 20.7878 12.5631C21.0338 12.1628 21.5354 12.0036 21.9598 12.1965L22.0707 12.2448C22.0997 12.1001 22.1672 11.9602 22.2685 11.8445C22.4373 11.6467 22.6785 11.5261 22.9389 11.5165C22.9437 11.5165 22.9485 11.5165 22.9534 11.5165L24.41 11.4827L24.3617 11.1306C24.3617 11.121 24.3569 11.1113 24.3569 11.1017C24.3135 10.6869 24.5546 10.2914 24.9453 10.1371C24.9501 10.1371 24.9501 10.1323 24.955 10.1323L27.1881 9.30268C27.1929 9.30268 27.1929 9.30268 27.1977 9.29785C27.516 9.18692 27.8778 9.25444 28.1237 9.47631L28.9389 10.1998L29.3922 9.9972L29.3729 9.1821C28.6061 8.71426 27.7861 8.32358 26.9324 8.0149C26.1849 7.74481 25.3987 7.53742 24.6029 7.40237C24.5932 7.40237 24.5788 7.39755 24.5691 7.39755C24.5595 7.39755 24.5498 7.39272 24.5402 7.39272C24.3328 7.35414 24.1109 7.3252 23.8939 7.30108H23.8746L23.7395 7.28661C23.6961 7.28179 23.6527 7.27697 23.6141 7.27697C23.5707 7.27214 23.5321 7.27214 23.4887 7.26732C23.426 7.26732 23.373 7.2625 23.3247 7.25768C23.0836 7.24321 22.828 7.23356 22.5289 7.22391C22.5241 7.22391 22.5241 7.22391 22.5241 7.22391C22.1672 7.21909 21.7862 7.23356 21.3955 7.25768L20.8071 7.31555C20.7251 7.3252 20.6431 7.33484 20.5418 7.34931C20.4936 7.35896 20.4405 7.36378 20.3923 7.37343C20.3489 7.37825 20.3055 7.3879 20.2621 7.39272C20.2331 7.39755 20.2042 7.40237 20.1753 7.40719C20.1608 7.40719 20.1511 7.41201 20.1367 7.41201C20.1126 7.41684 20.0884 7.42166 20.0643 7.42166C20.0499 7.42166 20.0161 7.43131 19.992 7.43613L19.5579 7.52295C19.5434 7.52777 19.5338 7.52777 19.5193 7.53259C19.4856 7.54224 19.447 7.55188 19.4132 7.55671C19.336 7.57118 19.2589 7.59047 19.172 7.61459C19.1431 7.62423 19.1142 7.62905 19.0852 7.6387C19.0708 7.64352 19.0611 7.64352 19.0466 7.64835C19.0274 7.65317 19.0129 7.65799 18.9936 7.66282C18.9743 7.66764 18.955 7.67246 18.9405 7.67246C18.9261 7.67729 18.9116 7.68211 18.902 7.68693C18.8875 7.69176 18.8682 7.69658 18.8489 7.7014L18.82 7.70622C18.8055 7.71105 18.7814 7.71587 18.7766 7.71587C18.7717 7.71587 18.7621 7.72069 18.7573 7.72069C18.7283 7.73034 18.7042 7.73516 18.6801 7.74481C18.6704 7.74963 18.656 7.74963 18.6463 7.75446C18.6319 7.75928 18.6126 7.7641 18.5981 7.76892C18.5788 7.77375 18.5595 7.77857 18.5354 7.78339C18.5258 7.78822 18.5065 7.79304 18.492 7.79786C18.4534 7.81233 18.41 7.82198 18.3666 7.83645C18.2991 7.86056 18.2364 7.87986 18.193 7.89433C18.1833 7.89915 18.1737 7.89915 18.164 7.90397C18.1399 7.91362 18.1061 7.92326 18.0676 7.93773C17.9373 7.98114 17.8119 8.02455 17.6865 8.07278C17.6576 8.08243 17.6335 8.09207 17.6045 8.10172C17.5901 8.10654 17.5708 8.11619 17.5515 8.12101C17.5322 8.13066 17.5129 8.13548 17.4888 8.14031C17.484 8.14031 17.4647 8.14995 17.4454 8.15477L17.4068 8.16924C17.1656 8.26571 16.9582 8.35252 16.7701 8.44416C16.7653 8.44898 16.7557 8.44898 16.7508 8.45381C16.7364 8.46345 16.7171 8.46828 16.6978 8.47792C16.6737 8.48757 16.6496 8.50204 16.6254 8.51169C16.0177 8.8059 15.4438 9.12904 14.9181 9.48113C14.9132 9.48595 14.9036 9.49078 14.8988 9.4956C14.8795 9.51007 14.8554 9.52454 14.8312 9.54383C14.8264 9.54866 14.8216 9.54865 14.8168 9.55348C14.5949 9.70299 14.3827 9.86216 14.1849 10.0117C14.1753 10.0165 14.1705 10.0213 14.1608 10.031C14.1271 10.0551 14.1126 10.0696 14.103 10.0744C14.0885 10.0888 14.0692 10.1033 14.0499 10.113C14.0354 10.1274 14.0065 10.1467 13.9727 10.1708C13.9293 10.2046 13.8907 10.2384 13.8425 10.2721C12.5451 11.3429 11.4792 12.6258 10.6737 14.0824C10.3168 14.7287 10.0178 15.3894 9.78144 16.0502C9.27984 17.4248 9.01457 18.8621 8.98563 20.3187V20.7528C9.00492 22.3106 9.28948 23.8395 9.83932 25.2913C9.85861 25.3347 9.87308 25.3636 9.88273 25.3926Z" fill="#06726F"/>
<path d="M22.3215 33.0612C22.1864 33.0612 22.0466 33.0419 21.9115 33.0082L20.9228 32.7574C20.2138 32.5789 19.7025 31.9423 19.6736 31.214L19.5675 28.7301C19.553 28.4021 19.635 28.079 19.8087 27.7944L20.3295 26.9359C20.3537 26.8925 20.3681 26.8491 20.3633 26.8008L20.2041 24.1771C20.1993 24.0951 20.1463 24.0227 20.0739 23.9938L18.246 23.2028C18.0723 23.1304 17.9083 23.0195 17.7637 22.8845L16.336 21.5243C15.9743 21.1819 15.791 20.7044 15.8248 20.2076L15.9743 17.907C16.008 17.3668 16.3071 16.87 16.7797 16.5903L20.0595 14.608C20.3971 14.4054 20.7926 14.3283 21.1784 14.3861C21.1881 14.3861 21.1977 14.391 21.2074 14.391L21.2315 14.3958C21.2508 14.4006 21.2652 14.4006 21.2845 14.4054C21.3713 14.4247 21.4582 14.4585 21.5353 14.5067L23.7009 15.7173C24.0868 15.8427 24.4244 16.1128 24.6318 16.4649L25.3938 17.7864C25.4131 17.8202 25.4372 17.8443 25.471 17.8636L27.9694 17.8684C28.0321 17.8684 28.0948 17.8781 28.1575 17.8925C28.6012 18.0131 28.9774 18.3121 29.1896 18.7125C29.2571 18.8379 29.3054 18.9729 29.3439 19.1224C29.3536 19.1658 29.3584 19.2092 29.3632 19.2575L29.5031 22.3829C29.5079 22.3925 29.5079 22.3973 29.5079 22.3973C29.5176 22.4166 29.5321 22.4359 29.5513 22.4552C29.5803 22.4793 29.6092 22.4938 29.6382 22.5034C29.6478 22.5034 29.6526 22.5034 29.6623 22.5083C30.188 22.5951 30.6269 22.9134 30.8729 23.3861C31.1189 23.8587 31.1237 24.4037 30.8873 24.8812L30.4726 25.7253V25.7301C30.3375 26.005 30.1301 26.2317 29.8745 26.3957L27.6173 27.8233C27.6173 27.8233 27.6125 27.8233 27.6125 27.8282C27.5739 27.8523 27.5401 27.8957 27.5305 27.9391V27.9439L27.0819 29.4439C26.9179 29.9793 26.508 30.3989 25.9726 30.558L24.9935 30.8522C24.9887 30.8522 24.9839 30.8571 24.979 30.8571L23.4067 32.6416C23.3681 32.685 23.3247 32.7236 23.2813 32.7574C22.9967 32.9551 22.6591 33.0612 22.3215 33.0612ZM20.9035 15.8138C20.8697 15.8186 20.836 15.8282 20.8022 15.8475L17.5225 17.8298C17.4598 17.8684 17.4212 17.9311 17.4164 17.9986L17.2669 20.3041C17.262 20.3716 17.2862 20.4295 17.3344 20.4777L18.7572 21.833C18.7765 21.8523 18.8006 21.8668 18.8199 21.8764L20.6527 22.6674C21.2266 22.9134 21.6173 23.4777 21.6511 24.0951L21.8102 26.7188C21.8102 26.7237 21.8102 26.7237 21.8102 26.7285C21.8247 27.0613 21.7475 27.3892 21.5739 27.6786C21.5739 27.6835 21.5691 27.6835 21.5691 27.6883L21.0434 28.5516C21.0241 28.5854 21.0096 28.6288 21.0144 28.6625C21.0144 28.6625 21.0144 28.6674 21.0144 28.6722L21.1205 31.1609V31.1657C21.1254 31.2574 21.1881 31.3394 21.2797 31.3635L22.2684 31.6143C22.3118 31.6239 22.3601 31.6239 22.3987 31.6047L23.9662 29.8249C23.9951 29.7912 24.0337 29.7574 24.0675 29.7285C24.2122 29.6175 24.381 29.5307 24.5739 29.4728L25.5482 29.1786C25.6157 29.1593 25.6687 29.1015 25.6929 29.0291L26.1414 27.5339C26.2523 27.1481 26.5031 26.8153 26.8456 26.6031L29.0931 25.1754C29.1269 25.1561 29.151 25.1272 29.1703 25.0886L29.5851 24.2494C29.6237 24.1674 29.6092 24.0999 29.5851 24.0565C29.5658 24.0227 29.5272 23.9648 29.4452 23.9455C29.4404 23.9455 29.4356 23.9455 29.4308 23.9455C29.1028 23.8973 28.8038 23.7478 28.5578 23.5211C28.553 23.5163 28.5433 23.5066 28.5385 23.5018C28.4083 23.3716 28.3022 23.2317 28.225 23.087C28.1623 22.9665 28.1092 22.8266 28.0755 22.6819C28.0658 22.6385 28.061 22.5951 28.0562 22.5468L27.9163 19.4215C27.9115 19.4118 27.9115 19.407 27.9115 19.407C27.8922 19.3732 27.8681 19.3443 27.8343 19.325L25.3359 19.3202C25.2684 19.3202 25.2057 19.3105 25.143 19.2912C24.7186 19.1707 24.3617 18.8957 24.1446 18.5195L23.3729 17.1932C23.344 17.1401 23.2909 17.1015 23.2331 17.0871C23.1704 17.0726 23.1125 17.0485 23.0594 17.0196L20.9035 15.8138Z" fill="#06726F"/>
<path d="M9.19249 26.3474C9.14426 26.3474 9.10085 26.3426 9.05262 26.333C8.80664 26.2847 8.60407 26.1111 8.51725 25.8796C7.26324 22.5709 7.23431 18.915 8.43526 15.5871C8.70053 14.8443 9.03333 14.1064 9.424 13.407C9.57352 13.1369 9.87737 12.9922 10.1812 13.0453C10.4851 13.0983 10.7214 13.3395 10.7696 13.6482L11.3243 17.2366L11.7777 19.2333L12.7327 20.9407C12.8629 21.1771 12.8532 21.4616 12.7085 21.6883L11.5558 23.468L10.4561 25.3008C10.432 25.3442 10.3983 25.3828 10.3645 25.4214L9.72303 26.1159C9.58316 26.2654 9.39024 26.3474 9.19249 26.3474ZM9.71821 16.3009C8.85487 18.8378 8.77288 21.5725 9.47223 24.1384L10.3307 22.706C10.3356 22.7012 10.3404 22.6915 10.3452 22.6867L11.2664 21.2639L10.4706 19.8459C10.4369 19.7832 10.4127 19.7205 10.3983 19.6529L9.91596 17.5308C9.91113 17.5163 9.91113 17.497 9.90631 17.4825L9.71821 16.3009Z" fill="#06726F"/>
<path d="M17.4062 11.0584C17.2712 11.0584 17.1361 11.0294 17.0107 10.9667C17.0059 10.9667 17.0059 10.9619 17.0011 10.9619L16.1474 10.5182L13.8226 10.576C13.6008 10.6194 13.3693 10.5712 13.1763 10.4458C12.94 10.2867 12.7953 10.0262 12.7857 9.74164C12.776 9.46672 12.9014 9.20145 13.1185 9.02782C16.403 6.40404 20.657 5.2899 24.7856 5.96996C24.9689 5.9989 25.1425 6.08572 25.2775 6.22077C25.2872 6.23041 25.3017 6.24488 25.3113 6.25453L26.5412 7.65805C26.5508 7.6677 26.5605 7.67735 26.5701 7.69182C26.7534 7.92815 26.8016 8.23683 26.7052 8.51657C26.6184 8.77219 26.4158 8.97476 26.1602 9.06158L23.9994 10.0069C23.9801 10.0166 23.9608 10.0214 23.9367 10.031C23.8113 10.0744 23.71 10.0744 23.6714 10.0744C23.6618 10.0744 23.6522 10.0744 23.6425 10.0744L21.1152 9.97315C20.9946 9.96833 20.903 9.93939 20.8644 9.92492C20.8596 9.92492 20.8547 9.92009 20.8499 9.92009L20.5943 9.82846C20.3049 9.88633 19.62 10.0551 19.022 10.2143L17.8692 10.9233C17.7294 11.0101 17.5702 11.0584 17.4062 11.0584ZM16.2535 9.05193C16.3789 9.05193 16.5043 9.07605 16.6201 9.1291C16.6345 9.13393 16.649 9.14357 16.6586 9.1484L17.3773 9.51978L18.3419 8.92653C18.4094 8.88312 18.4866 8.84936 18.5686 8.83489C20.5943 8.28988 20.6956 8.32847 20.9126 8.40081C20.9174 8.40081 20.9174 8.40081 20.9223 8.40564L21.2551 8.52621L23.5557 8.61785L24.9303 8.01496L24.3563 7.35902C21.3178 6.90565 18.2165 7.52301 15.5831 9.07605L16.0943 9.06158C16.1474 9.05676 16.2004 9.05193 16.2535 9.05193Z" fill="#06726F"/>
<path d="M35.0832 9.05171H33.6362V4.68196C33.6362 4.28164 33.9594 3.9585 34.3597 3.9585H38.3195V5.40543H35.0832V9.05171Z" fill="#06726F"/>
<path d="M2.60448 18.9344C2.54178 18.9344 2.47908 18.9247 2.41638 18.9102C2.2331 18.862 2.07394 18.7414 1.97748 18.5726L0 15.1434L1.25401 14.4199L2.86975 17.2222L6.02889 15.399L6.75236 16.653L2.96622 18.8379C2.85528 18.9006 2.72988 18.9344 2.60448 18.9344Z" fill="#06726F"/>
<path d="M28.8472 42.7364L27.5932 42.0129L29.2089 39.2107L26.0498 37.3876L26.7733 36.1335L30.5594 38.3184C30.9067 38.5162 31.0224 38.9599 30.8247 39.3072L28.8472 42.7364Z" fill="#06726F"/>
</svg>
