<svg width="43" height="43" viewBox="0 0 43 43" fill="none" xmlns="http://www.w3.org/2000/svg">
<path d="M3.41489 17.8974L1.98242 17.6901C2.83129 11.7962 6.17371 6.56795 11.1463 3.34129C12.4631 2.48277 13.8907 1.77377 15.3955 1.23359C16.5434 0.818798 17.7492 0.500472 18.9791 0.288255C22.6736 -0.33875 26.4694 0.0615686 29.9661 1.4458L29.4308 2.79145C26.18 1.5085 22.6495 1.1323 19.2202 1.7159C18.0772 1.90882 16.9582 2.20785 15.8875 2.5937C14.4888 3.10013 13.1624 3.75607 11.9373 4.55671C7.31196 7.55669 4.20588 12.4184 3.41489 17.8974Z" fill="#06726F"/>
<path d="M34.9339 36.9632L34.0513 35.8153C36.8776 33.6497 39.0384 30.7413 40.302 27.3989C41.9226 23.1305 41.9612 18.4135 40.4081 14.1064C40.056 13.1273 39.6268 12.182 39.13 11.2897C37.9725 9.19648 36.4435 7.3637 34.5963 5.8396C34.4419 5.7142 34.2876 5.58879 34.1188 5.45857L35.0014 4.31067C35.1847 4.45054 35.3535 4.58559 35.5175 4.72063C37.5094 6.36049 39.1493 8.33315 40.3985 10.5855C40.929 11.5453 41.3921 12.563 41.7731 13.6145C42.6219 15.973 43.0319 18.4231 42.9981 20.907C42.9644 23.3041 42.511 25.6626 41.6573 27.915C40.2924 31.5034 37.9725 34.6336 34.9339 36.9632Z" fill="#06726F"/>
<path d="M22.3983 41.2269C22.027 41.2269 21.6556 41.2172 21.2842 41.1979C18.6218 41.0532 16.0463 40.4069 13.6251 39.2687C11.2039 38.1304 9.0576 36.5629 7.24893 34.6047C5.37756 32.579 3.9451 30.2253 3.00459 27.6112C2.59945 26.4826 2.28595 25.2961 2.07373 24.0903L3.50137 23.8444C3.69912 24.973 3.98851 26.0726 4.36471 27.1241C7.94828 37.0597 18.9546 42.2253 28.8903 38.6465C29.1073 38.5693 29.3195 38.4873 29.551 38.3957L30.0912 39.7365C29.8404 39.8378 29.6089 39.9246 29.3774 40.0066C27.1153 40.8121 24.7761 41.2269 22.3983 41.2269Z" fill="#06726F"/>
<path d="M34.3645 25.4698C34.1908 25.4698 34.0172 25.4216 33.8677 25.3251C33.6217 25.1708 33.4625 24.9007 33.4433 24.6113V24.6065L33.3179 22.6097L33.1635 21.9248C33.1201 22.0454 33.0478 22.1563 32.9609 22.2432L31.3983 23.8492C31.1909 24.0663 30.8918 24.1724 30.588 24.1242H30.5831L29.4642 23.9409C29.4545 23.9409 29.4497 23.9409 29.4401 23.9361C29.1121 23.8878 28.8131 23.7383 28.5671 23.5116C28.432 23.3862 28.3211 23.2415 28.2343 23.0775C28.1909 22.9907 28.1619 22.8991 28.1523 22.8026L27.9931 20.9506C27.9931 20.9409 27.9931 20.9313 27.9931 20.9216L27.9256 19.412C27.9256 19.4072 27.9208 19.4023 27.9208 19.4023C27.9015 19.3686 27.8726 19.3396 27.8388 19.3203L25.3452 19.3155C25.2777 19.3155 25.215 19.3059 25.1523 19.2866C24.7279 19.166 24.371 18.8911 24.1539 18.5149L23.3919 17.1982C23.3629 17.1451 23.3147 17.1065 23.252 17.0921C23.1893 17.0776 23.1314 17.0535 23.0784 17.0245L20.8887 15.8043H20.8839L20.7006 15.7561C20.3774 15.6692 20.1266 15.4184 20.0398 15.0953C20.0398 15.0905 20.035 15.0808 20.035 15.076L19.9192 14.5889C19.9192 14.5792 19.9144 14.5744 19.9144 14.5648C19.871 14.3429 19.9048 14.1162 20.0109 13.9281C20.0109 13.9233 20.0157 13.9233 20.0157 13.9185L20.7778 12.5921C21.0093 12.1821 21.5253 12.0133 21.9546 12.2062L22.0704 12.2593C22.1041 12.1001 22.1813 11.9458 22.2922 11.8252C22.461 11.6419 22.7022 11.531 22.953 11.531L24.3999 11.4973L24.3517 11.15C24.289 10.7207 24.535 10.2963 24.9498 10.1468L27.1925 9.31238C27.1973 9.31238 27.1973 9.31238 27.2021 9.30756C27.5205 9.19662 27.8822 9.26415 28.133 9.49083L28.9433 10.2143L29.3967 10.0117L29.3774 9.1918C29.3677 8.86383 29.5365 8.55033 29.8211 8.37669C30.1057 8.20306 30.4674 8.20306 30.7568 8.36705C30.7712 8.3767 30.7857 8.38152 30.8002 8.39116C30.8147 8.40081 30.8291 8.41046 30.8436 8.4201L30.8532 8.42493C30.8725 8.4394 30.9015 8.45869 30.9401 8.48763L31.0172 8.54068C31.051 8.5648 31.0848 8.58891 31.1185 8.61785C31.1282 8.6275 31.1378 8.63232 31.1475 8.64197C31.1812 8.66608 31.215 8.6902 31.2439 8.71431C31.3114 8.76254 31.3645 8.80595 31.4175 8.84454C31.4272 8.85418 31.4368 8.85901 31.4417 8.86383C31.4513 8.86865 31.461 8.8783 31.4658 8.88312C31.4851 8.89759 31.5044 8.91206 31.5188 8.92653C31.543 8.94582 31.5671 8.96512 31.5912 8.98441C31.6008 8.99405 31.6153 8.99888 31.6201 9.00852C31.6249 9.00852 31.6249 9.01335 31.6298 9.01335C31.6587 9.03264 31.6828 9.05675 31.7118 9.07605C31.7262 9.08569 31.7359 9.09534 31.7455 9.10499C31.7503 9.10981 31.7552 9.11463 31.7648 9.11945C31.7889 9.13875 31.8275 9.16769 31.8709 9.20627C31.8757 9.21109 31.8854 9.21592 31.8902 9.22556C31.9095 9.24003 31.924 9.2545 31.9433 9.26897C31.9674 9.28826 32.006 9.3172 32.0446 9.35579C32.0687 9.37508 32.1024 9.40402 32.1362 9.43296C32.1458 9.4426 32.1603 9.45225 32.17 9.46672L32.1796 9.47636L32.1844 9.48119C32.2085 9.50048 32.2327 9.5246 32.2568 9.54389C32.2616 9.54871 32.2712 9.55354 32.2761 9.56318C32.3098 9.59212 32.3388 9.61624 32.3581 9.64035C32.3918 9.66929 32.4304 9.70305 32.4642 9.73681C32.4883 9.75611 32.5027 9.7754 32.5172 9.78505C32.5654 9.82363 32.5992 9.86221 32.633 9.89115L32.6378 9.89598C32.6523 9.91045 32.6764 9.92974 32.7005 9.95868C32.7343 9.99244 32.7728 10.0262 32.8018 10.06C32.8259 10.0841 32.85 10.1082 32.8597 10.1178L32.9417 10.1998C32.9706 10.2288 33.0044 10.2625 33.0429 10.3059L33.0671 10.3301C33.0767 10.3397 33.0863 10.3493 33.096 10.3638C33.1105 10.3783 33.1249 10.3976 33.1394 10.4121C33.1587 10.4313 33.178 10.4506 33.1973 10.4748L33.2069 10.4844C33.2166 10.494 33.231 10.5085 33.2407 10.5182C33.26 10.5375 33.2889 10.5664 33.313 10.5953C33.3275 10.6098 33.3371 10.6243 33.3516 10.6339C33.3613 10.6436 33.3709 10.6532 33.3757 10.6629C33.395 10.6821 33.4143 10.7014 33.4336 10.7256L33.5445 10.851C33.5494 10.8558 33.5494 10.8558 33.5542 10.8606L33.641 10.9619C33.6458 10.9667 33.6507 10.9715 33.6555 10.9764L33.6651 10.986C33.6796 11.0053 33.6941 11.0198 33.7134 11.0391L33.7905 11.1259L33.7953 11.1307L33.9256 11.2899C33.94 11.3091 33.9545 11.3284 33.969 11.3477C33.9786 11.3574 33.9834 11.367 33.9931 11.3767C33.9931 11.3815 33.9979 11.3815 33.9979 11.3863L34.0703 11.4731C34.0751 11.478 34.0751 11.4828 34.0799 11.4828C34.1185 11.531 34.1619 11.5889 34.2101 11.6516C34.2294 11.6757 34.2487 11.6998 34.268 11.7288C34.2777 11.7432 34.2873 11.7577 34.3018 11.7722C34.3066 11.777 34.3114 11.7818 34.3162 11.7866C34.3452 11.8252 34.3741 11.8638 34.4031 11.9072C34.4272 11.941 34.4513 11.9747 34.4754 12.0085C34.5043 12.0471 34.5333 12.0857 34.5526 12.1194C34.567 12.1387 34.5815 12.1628 34.596 12.1821C34.6394 12.2448 34.678 12.2979 34.7117 12.3509C34.7214 12.3654 34.731 12.3799 34.7407 12.3943C34.7455 12.3992 34.7455 12.404 34.7503 12.4088C34.7648 12.4281 34.7793 12.4474 34.7889 12.4667C34.8082 12.4956 34.8275 12.5246 34.8468 12.5535L34.8516 12.5583C34.8613 12.5728 34.8709 12.5873 34.8805 12.6017L34.8854 12.6066C34.9577 12.7175 35.0301 12.8333 35.1072 12.9635C35.1603 13.0503 35.2085 13.1275 35.2519 13.2046C35.2857 13.2625 35.3194 13.3204 35.3484 13.3783C35.3773 13.4265 35.4014 13.4747 35.4304 13.523C35.4352 13.5326 35.44 13.5374 35.4448 13.5471L35.5461 13.7352C35.551 13.74 35.551 13.7496 35.5558 13.7545C35.5606 13.7689 35.5703 13.7834 35.5751 13.7931C35.5944 13.8268 35.6137 13.8702 35.6378 13.9185C35.6571 13.957 35.6764 13.9956 35.6957 14.0342C35.7149 14.0728 35.7294 14.1066 35.7487 14.1451C35.7535 14.1548 35.7584 14.1596 35.7584 14.1693C35.768 14.1934 35.7776 14.2127 35.7921 14.2368C35.8018 14.2609 35.8114 14.2802 35.8211 14.3043C35.8259 14.3139 35.8307 14.3284 35.8403 14.3381C35.8596 14.3767 35.8838 14.4249 35.9079 14.4828C35.9079 14.4876 35.9127 14.4876 35.9127 14.4924C35.9223 14.5165 35.9368 14.5358 35.9465 14.5599C35.9802 14.6323 36.0092 14.6998 36.0333 14.7625C36.0526 14.8059 36.0719 14.8493 36.0815 14.8831C36.096 14.9168 36.1104 14.9458 36.1201 14.9795C36.1297 15.0037 36.1394 15.0229 36.1442 15.0374C36.1538 15.0519 36.1587 15.0712 36.1635 15.0856C36.1683 15.1001 36.1731 15.1098 36.178 15.1242C36.1876 15.1483 36.1973 15.1676 36.2069 15.1918C36.231 15.2496 36.26 15.322 36.2889 15.404C36.2937 15.4233 36.3034 15.4377 36.3082 15.457C36.313 15.4715 36.3178 15.4908 36.3227 15.5053C36.3275 15.5149 36.3275 15.5197 36.3323 15.5294C36.3371 15.539 36.3371 15.5438 36.3419 15.5535C36.3468 15.568 36.3516 15.5873 36.3612 15.6017C36.3709 15.6307 36.3805 15.6548 36.3902 15.6837C36.395 15.6982 36.3998 15.7127 36.4046 15.7271C36.4143 15.7464 36.4191 15.7657 36.4239 15.785L36.4336 15.8139C36.4384 15.8284 36.4432 15.8429 36.4481 15.8573C36.4577 15.8766 36.4625 15.8959 36.4722 15.92L36.5156 16.0454C36.5252 16.0647 36.5301 16.0889 36.5397 16.113C36.5445 16.1323 36.5493 16.1467 36.559 16.166C36.5686 16.1998 36.5783 16.2287 36.5879 16.2625L36.6313 16.4072C36.641 16.4458 36.6506 16.4795 36.6603 16.5133C36.6651 16.5374 36.6747 16.5615 36.6796 16.5856C36.6844 16.6001 36.6892 16.6098 36.6892 16.6242V16.629C36.6892 16.6339 36.694 16.6435 36.694 16.6532C36.7037 16.6869 36.7133 16.7159 36.7182 16.74C36.7182 16.7496 36.723 16.7593 36.723 16.7641C36.7278 16.7834 36.7326 16.7979 36.7374 16.8123L36.7809 16.986C36.7809 16.9908 36.7857 17.0004 36.7857 17.0052C36.7857 17.0149 36.7905 17.0245 36.7953 17.0342C36.805 17.0679 36.8146 17.1017 36.8194 17.1355C36.8291 17.1692 36.8339 17.1982 36.8387 17.2175C36.8436 17.2271 36.8436 17.2368 36.8484 17.2416C36.8532 17.2561 36.8532 17.2657 36.858 17.2802C36.8677 17.3091 36.8725 17.3429 36.8773 17.3718C36.8821 17.3863 36.8821 17.4007 36.887 17.4152C36.8918 17.4393 36.8966 17.4634 36.9014 17.4876V17.4924C36.9063 17.5117 36.9111 17.5358 36.9159 17.5647C36.9255 17.6081 36.9352 17.6564 36.9448 17.7094C36.9448 17.7142 36.9448 17.7191 36.9497 17.7239C36.9641 17.7866 36.9738 17.8445 36.9834 17.8975C36.9882 17.912 36.9882 17.9265 36.9931 17.9409C36.9931 17.9409 36.9931 17.9409 36.9931 17.9458C37.0027 17.9988 37.0172 18.0663 37.0268 18.1483L37.0413 18.2351C37.0413 18.24 37.0413 18.24 37.0413 18.2448C37.0413 18.2496 37.0413 18.2544 37.0461 18.2641C37.0509 18.2834 37.0558 18.3075 37.0558 18.3268C37.0606 18.3413 37.0606 18.3557 37.0606 18.3654C37.0606 18.3702 37.0654 18.3798 37.0654 18.3847C37.0751 18.4474 37.0847 18.5101 37.0944 18.5872C37.0992 18.6162 37.104 18.6451 37.104 18.674C37.104 18.6933 37.1088 18.7126 37.1136 18.7319C37.1136 18.7464 37.1185 18.756 37.1185 18.7705C37.1233 18.8091 37.1281 18.8525 37.1329 18.8863C37.1378 18.9056 37.1378 18.9297 37.1426 18.9538L37.1474 19.0068C37.1522 19.031 37.1522 19.0551 37.1522 19.0792C37.1522 19.0937 37.1571 19.1033 37.1571 19.1178C37.1619 19.1564 37.1667 19.1949 37.1667 19.2335C37.1908 19.4988 37.2101 19.7785 37.2246 20.1403V20.1644C37.2294 20.3139 37.2342 20.4586 37.2342 20.6033C37.2342 20.6998 37.2342 20.7962 37.2294 20.9023C37.2294 20.9071 37.2294 20.912 37.2294 20.9216C37.2053 22.0309 37.0606 23.121 36.8001 24.1676C36.7423 24.3943 36.5831 24.5775 36.3661 24.6644L35.0156 25.1997C34.9384 25.2769 34.8468 25.3396 34.7455 25.3878C34.731 25.3926 34.7214 25.3975 34.7069 25.4023C34.5912 25.4457 34.4754 25.4698 34.3645 25.4698ZM34.7551 22.4843L34.8323 23.7142L35.4738 23.4586C35.6571 22.629 35.7584 21.7705 35.7776 20.8975V20.8879C35.7776 20.8734 35.7776 20.8637 35.7776 20.8493C35.7825 20.7769 35.7825 20.6998 35.7825 20.6081C35.7825 20.4875 35.7776 20.3573 35.7728 20.2174V20.1933C35.7632 19.8605 35.7487 19.6097 35.7246 19.3734C35.7246 19.3686 35.7246 19.3638 35.7246 19.3589C35.7246 19.3396 35.7198 19.3203 35.7198 19.2962C35.7149 19.2576 35.7101 19.2142 35.7053 19.1757C35.7053 19.166 35.7053 19.1564 35.7053 19.1467L35.6957 19.0695C35.6908 19.031 35.686 18.9924 35.6812 18.949C35.6764 18.92 35.6715 18.8863 35.6667 18.8573C35.6667 18.838 35.6619 18.8187 35.6571 18.7994C35.6522 18.7802 35.6522 18.7609 35.6474 18.7416C35.6474 18.7175 35.6378 18.6837 35.633 18.6451C35.6281 18.6258 35.6281 18.6113 35.6233 18.5969C35.6185 18.5824 35.6185 18.5631 35.6137 18.5486C35.6137 18.5438 35.6137 18.539 35.6088 18.5294C35.604 18.5004 35.5992 18.4667 35.5944 18.4377L35.5799 18.3413C35.5799 18.3268 35.5751 18.3171 35.5751 18.3027C35.5751 18.2882 35.5702 18.2641 35.5654 18.24C35.5606 18.2255 35.5606 18.211 35.5558 18.1966C35.551 18.1821 35.551 18.1676 35.5461 18.1483C35.5365 18.0953 35.5317 18.0567 35.522 18.0181C35.5172 18.0036 35.5172 17.994 35.5124 17.9795C35.5076 17.9602 35.5027 17.9409 35.5027 17.912C35.5027 17.9023 35.4931 17.8734 35.4931 17.8589C35.4883 17.8445 35.4883 17.8348 35.4834 17.8204V17.8155C35.4786 17.8011 35.4738 17.7818 35.469 17.7577C35.4641 17.7335 35.4545 17.7046 35.4497 17.6757C35.4449 17.6612 35.4448 17.6467 35.44 17.6323C35.44 17.6274 35.44 17.6274 35.44 17.6226C35.44 17.6178 35.4352 17.6081 35.4352 17.6033C35.4159 17.5406 35.4063 17.4876 35.3966 17.4442C35.3966 17.4345 35.3918 17.4249 35.387 17.4152C35.3773 17.3863 35.3725 17.3525 35.3629 17.3236L35.3243 17.1789C35.3146 17.1499 35.3098 17.121 35.3002 17.0969C35.3002 17.0872 35.2953 17.0776 35.2953 17.0728C35.2905 17.0535 35.2857 17.0438 35.2809 17.0245V17.0197C35.276 17.0101 35.276 17.0004 35.2712 16.9908C35.2616 16.957 35.2519 16.9281 35.2423 16.8991C35.2375 16.875 35.2278 16.8509 35.223 16.8268V16.822L35.1796 16.6773C35.1748 16.6628 35.1699 16.6435 35.1603 16.6242C35.1555 16.6049 35.1458 16.5856 35.141 16.5663C35.1313 16.5471 35.1265 16.5278 35.1217 16.5133L35.0879 16.4072C35.0686 16.3638 35.059 16.3252 35.0445 16.2914C35.0349 16.2673 35.0252 16.2432 35.0204 16.2191C35.0156 16.1998 35.0059 16.1805 35.0011 16.1612C34.9915 16.1371 34.9818 16.113 34.977 16.0889C34.977 16.084 34.9722 16.0792 34.9722 16.0696C34.9674 16.0599 34.9674 16.0551 34.9625 16.0454C34.9577 16.031 34.9529 16.0165 34.9481 15.9972C34.9384 15.9779 34.9336 15.9586 34.924 15.9345C34.9191 15.92 34.9143 15.9008 34.9095 15.8863C34.9047 15.8718 34.8998 15.8573 34.895 15.8429C34.8854 15.8139 34.8709 15.7754 34.8516 15.7319C34.8468 15.7223 34.8468 15.7175 34.842 15.7078C34.8371 15.6934 34.8323 15.6837 34.8275 15.6692C34.8178 15.65 34.813 15.6355 34.8082 15.6162C34.7937 15.5873 34.7841 15.5631 34.7793 15.5487C34.7696 15.5246 34.76 15.5004 34.7503 15.4811C34.7407 15.4619 34.731 15.4377 34.7214 15.4184C34.7166 15.404 34.7069 15.3799 34.7021 15.3702C34.6924 15.3509 34.6828 15.3268 34.6732 15.3075C34.6539 15.2641 34.6394 15.2159 34.6249 15.1869C34.6201 15.1773 34.6153 15.1628 34.6105 15.1532C34.6056 15.1483 34.6056 15.1435 34.6008 15.1387C34.5863 15.1098 34.5719 15.0808 34.5574 15.0471C34.5526 15.0374 34.5477 15.0278 34.5429 15.0181C34.5429 15.0133 34.5381 15.0037 34.5333 14.994C34.5236 14.9747 34.514 14.9554 34.5043 14.941C34.5043 14.9361 34.4995 14.9361 34.4995 14.9313C34.4899 14.9072 34.4802 14.8831 34.4658 14.8638C34.4513 14.8348 34.4416 14.8107 34.4272 14.7818C34.4079 14.7432 34.3886 14.7046 34.3693 14.666C34.35 14.6275 34.3307 14.5889 34.3162 14.5551C34.3114 14.5455 34.3066 14.5406 34.3066 14.531C34.2969 14.5069 34.2825 14.4828 34.268 14.4586C34.2584 14.4442 34.2535 14.4297 34.2439 14.4104L34.1523 14.2416C34.1185 14.1885 34.0896 14.1307 34.0606 14.0776C34.0317 14.0294 34.0076 13.9812 33.9786 13.9329C33.9738 13.9281 33.9738 13.9233 33.969 13.9185C33.9352 13.8558 33.8966 13.7931 33.8532 13.7207C33.8484 13.7159 33.8436 13.7062 33.8436 13.7014C33.7761 13.5905 33.7182 13.494 33.6603 13.4024L33.6555 13.3976C33.6458 13.3831 33.6362 13.3686 33.6265 13.3542C33.6217 13.3493 33.6217 13.3445 33.6169 13.3397C33.6024 13.3204 33.5879 13.3011 33.5783 13.2818C33.559 13.2529 33.5349 13.2191 33.5156 13.1902C33.506 13.1757 33.4915 13.1564 33.4818 13.1371C33.4577 13.1033 33.4384 13.0696 33.424 13.0503C33.3902 13.0069 33.3661 12.9683 33.342 12.9345C33.3275 12.9152 33.313 12.8911 33.2986 12.8718L33.2937 12.867C33.2648 12.8284 33.2359 12.7898 33.2069 12.7464C33.1828 12.7127 33.1635 12.6837 33.1394 12.65C33.1201 12.6259 33.1008 12.5969 33.0815 12.5728C33.0719 12.5583 33.0622 12.5439 33.0478 12.5294C33.0429 12.5246 33.0381 12.5149 33.0333 12.5101C33.0044 12.4715 32.9754 12.4329 32.9417 12.3943L32.8741 12.3172C32.85 12.2882 32.8307 12.2641 32.8114 12.24C32.8066 12.2304 32.8018 12.2255 32.797 12.2207L32.7921 12.2159L32.5896 11.9699C32.5896 11.9651 32.5847 11.9651 32.5847 11.9603L32.5751 11.9506C32.5606 11.9362 32.5462 11.9169 32.5317 11.9024L32.3436 11.6854C32.3388 11.6805 32.3388 11.6805 32.3339 11.6757C32.3243 11.6661 32.3146 11.6564 32.3098 11.6468C32.2954 11.6323 32.2809 11.6178 32.2712 11.6034C32.2375 11.5696 32.2037 11.5358 32.1651 11.4924L32.1555 11.4828C32.1458 11.4731 32.1362 11.4635 32.1265 11.4538C32.1121 11.4394 32.0976 11.4201 32.0831 11.4056C32.0638 11.3863 32.0446 11.367 32.0253 11.3429L31.9963 11.314C31.9819 11.2995 31.9674 11.285 31.9529 11.2657C31.9433 11.2561 31.9288 11.2416 31.9143 11.2272L31.8275 11.1403C31.8179 11.1307 31.8082 11.121 31.7986 11.1114C31.7793 11.0921 31.76 11.0728 31.7407 11.0535C31.7262 11.0391 31.7166 11.0294 31.7021 11.0149C31.678 10.9956 31.6587 10.9764 31.6394 10.9522C31.6249 10.9426 31.6153 10.9281 31.6008 10.9185C31.5864 10.9088 31.5719 10.8895 31.5671 10.8847C31.5333 10.8558 31.5044 10.8268 31.4851 10.8124C31.4706 10.8027 31.461 10.7883 31.4465 10.7786C31.432 10.7641 31.3983 10.7352 31.3693 10.7111C31.3597 10.7014 31.3452 10.687 31.3356 10.6773C31.3307 10.6725 31.3259 10.6725 31.3259 10.6677C31.3018 10.6484 31.2825 10.6291 31.2632 10.6098C31.2584 10.605 31.2487 10.6002 31.2439 10.5905C31.2246 10.576 31.2053 10.5567 31.186 10.5423L31.1764 10.5326C31.1571 10.5182 31.1426 10.5037 31.1233 10.4892C31.1137 10.4844 31.1089 10.4747 31.0992 10.4699C31.0848 10.4555 31.0703 10.4458 31.0558 10.4313C31.0413 10.4169 31.0269 10.4072 31.0124 10.3928C31.0076 10.3879 31.0028 10.3879 31.0028 10.3831C30.9931 10.3735 30.9786 10.3638 30.969 10.3542C30.9449 10.3349 30.9208 10.3156 30.8967 10.2963C30.8822 10.2866 30.8725 10.277 30.8629 10.2625C30.8581 10.2577 30.8581 10.2577 30.8532 10.2577C30.8436 10.2529 30.834 10.2432 30.8243 10.2384V10.3252C30.8243 10.3301 30.8243 10.3349 30.8243 10.3445C30.8243 10.7063 30.6121 11.0342 30.2841 11.1886C30.2793 11.1886 30.2793 11.1934 30.2745 11.1934L29.1989 11.6757C29.1893 11.6805 29.1796 11.6854 29.17 11.6854C28.8372 11.8156 28.461 11.7529 28.2005 11.5165L27.371 10.7786L25.8179 11.3574L25.8903 11.8686C25.9288 12.1243 25.8565 12.3847 25.6973 12.5825C25.5285 12.7898 25.2777 12.9152 25.0125 12.9249C25.0076 12.9249 25.0028 12.9249 25.0028 12.9249L23.5173 12.9587L23.5221 12.9876C23.551 13.3107 23.4064 13.6339 23.1411 13.822C22.8758 14.0101 22.5285 14.0487 22.2295 13.9136L21.7713 13.7111L21.3565 14.4345C21.4096 14.4538 21.4578 14.4779 21.506 14.5069L23.6668 15.7078C24.0575 15.8332 24.3854 16.0937 24.5977 16.4554L25.3597 17.7769C25.379 17.8107 25.4031 17.8348 25.4369 17.8541L27.9353 17.8589C28.0028 17.8589 28.0655 17.8686 28.133 17.8879C28.5767 18.0133 28.9385 18.3027 29.1555 18.703C29.1555 18.703 29.1555 18.7078 29.1603 18.7078C29.2279 18.8332 29.2761 18.9731 29.3147 19.1178C29.3243 19.1612 29.3291 19.2046 29.334 19.2528L29.4063 20.8348L29.5462 22.4698C29.5703 22.4843 29.5896 22.494 29.6137 22.4988C29.6234 22.4988 29.6282 22.4988 29.6378 22.5036L30.5156 22.6483L31.7696 21.3605L31.8468 20.6612C31.8468 20.6563 31.8468 20.6563 31.8468 20.6515C31.8757 20.3959 32.0156 20.1596 32.223 20.0101C32.4304 19.8605 32.7005 19.8027 32.9513 19.8557C32.9561 19.8557 32.9561 19.8557 32.9609 19.8557L33.6314 20.0052C33.9931 20.0776 34.2728 20.3525 34.3452 20.7142L34.6973 22.2914C34.7503 22.3734 34.7551 22.4457 34.7551 22.4843Z" fill="#06726F"/>
<path d="M22.3987 35.4584C20.701 35.4584 18.9984 35.1642 17.3537 34.571C15.2798 33.8234 13.4422 32.6562 11.8988 31.1128C10.4326 29.6466 9.26537 27.8476 8.52743 25.9087C8.52261 25.899 8.51779 25.8845 8.51296 25.8701C7.8956 24.2447 7.56763 22.5325 7.54834 20.7817C7.54834 20.7769 7.54834 20.7769 7.54834 20.772V20.3283C7.54834 20.3235 7.54834 20.3187 7.54834 20.3138C7.57728 18.6933 7.87631 17.1017 8.43097 15.5775C8.69142 14.8493 9.02421 14.1161 9.41971 13.4023C10.3168 11.7866 11.4985 10.3638 12.9358 9.17728L12.9406 9.17245C12.9936 9.12904 13.0563 9.07599 13.1287 9.02293C13.1335 9.01811 13.1383 9.01329 13.1432 9.01329C13.1576 9.00364 13.1769 8.98917 13.201 8.96988C13.2348 8.94094 13.2734 8.912 13.3168 8.88306C13.5338 8.71426 13.7653 8.54545 14.0065 8.38146C14.0403 8.35735 14.0837 8.32841 14.1319 8.29464C14.7155 7.90397 15.3473 7.54224 16.0177 7.22391C16.0226 7.21909 16.0322 7.21909 16.037 7.21427C16.0515 7.20462 16.0708 7.1998 16.0901 7.19015C16.1142 7.1805 16.1383 7.16604 16.1624 7.15639C16.3795 7.0551 16.6158 6.949 16.8811 6.84771L16.9052 6.83806C16.9438 6.82359 16.992 6.8043 17.0451 6.78501C17.0643 6.77536 17.0836 6.77054 17.1078 6.76089C17.1222 6.75607 17.1415 6.74643 17.1608 6.7416C17.1656 6.7416 17.1705 6.73678 17.1705 6.73678C17.32 6.6789 17.4695 6.63067 17.6094 6.57762C17.619 6.57279 17.6287 6.57279 17.6383 6.56797C17.6479 6.56315 17.6576 6.56315 17.6672 6.55832C17.6962 6.54868 17.7348 6.53421 17.7782 6.51974C17.7975 6.51492 17.8264 6.50527 17.836 6.50045C17.865 6.4908 17.8891 6.47633 17.918 6.47151C17.9614 6.45704 18 6.44739 18.0386 6.43292C18.0868 6.41845 18.1495 6.39434 18.2315 6.37987C18.2605 6.37022 18.2894 6.3654 18.3135 6.35575C18.3232 6.35093 18.3328 6.35093 18.3473 6.34611C18.4003 6.32681 18.4486 6.31717 18.4823 6.30752H18.4872C18.5547 6.28341 18.6174 6.26894 18.6656 6.25929C18.6897 6.25447 18.7139 6.24482 18.7428 6.24C18.7573 6.23517 18.7669 6.23517 18.7814 6.23035C18.791 6.22553 18.8007 6.22553 18.8151 6.22071C18.9164 6.19659 19.0225 6.16765 19.1383 6.14354C19.1528 6.13871 19.1624 6.13871 19.1769 6.13389C19.2106 6.12424 19.2492 6.1146 19.283 6.10977L19.7171 6.02296C19.7653 6.01331 19.828 5.99884 19.8955 5.99402C19.9196 5.9892 19.9437 5.98437 19.9679 5.98437C19.9823 5.98437 19.992 5.97955 20.0064 5.97955C20.0161 5.97955 20.0306 5.97473 20.0402 5.97473C20.0884 5.96508 20.1415 5.96026 20.1897 5.95061C20.238 5.94579 20.2862 5.93614 20.3344 5.93132C20.4405 5.91685 20.5563 5.89756 20.672 5.88791L21.2653 5.83003C21.2701 5.83003 21.2797 5.83003 21.2846 5.83003C21.7187 5.79627 22.1383 5.78662 22.5386 5.79145C22.5434 5.79145 22.5482 5.79145 22.5482 5.79145C22.881 5.79627 23.1608 5.80592 23.4357 5.82521C23.4453 5.82521 23.4502 5.82521 23.4598 5.82521C23.4839 5.83003 23.5225 5.83003 23.5321 5.83003C23.5563 5.83003 23.5804 5.83003 23.6045 5.83486C23.6479 5.83968 23.6865 5.8445 23.7299 5.8445C23.7829 5.84933 23.836 5.85415 23.8891 5.85897L24.0337 5.87344C24.0386 5.87344 24.0434 5.87344 24.0482 5.87344L24.0772 5.87826C24.3038 5.9072 24.5354 5.93614 24.7717 5.97473C24.8103 5.97955 24.8489 5.98437 24.8874 5.99402C25.7604 6.14354 26.6141 6.37022 27.434 6.66926C28.5096 7.0551 29.5369 7.56635 30.4871 8.18371C30.6125 8.26088 30.7186 8.33805 30.8247 8.4104C31.1382 8.63226 31.2202 9.06634 31.0128 9.38949C30.9646 9.46184 30.9067 9.52936 30.8392 9.57759L30.8585 10.3252C30.8585 10.33 30.8585 10.3348 30.8585 10.3445C30.8585 10.711 30.6414 11.0438 30.3086 11.1933L29.2379 11.6756C28.9099 11.8252 28.5337 11.7721 28.254 11.5358C28.2492 11.531 28.2443 11.5261 28.2395 11.5213L27.4099 10.7785L25.8665 11.3525L25.9389 11.8686C25.9775 12.1338 25.9051 12.3991 25.7315 12.6017C25.5579 12.8043 25.307 12.92 25.0418 12.9248L23.5611 12.9586L23.5659 12.9875C23.5948 13.3059 23.4598 13.6145 23.1945 13.8123C22.9341 14.0052 22.5868 14.0486 22.2878 13.9232C22.283 13.9232 22.2781 13.9184 22.2733 13.9184L21.8151 13.7158L21.4003 14.4393C21.4534 14.4586 21.5064 14.4827 21.5498 14.5116L23.7106 15.7222C24.0964 15.8476 24.4341 16.1177 24.6415 16.4698L25.4035 17.7914C25.4228 17.8251 25.4469 17.8492 25.4807 17.8685L27.9791 17.8734C28.0418 17.8734 28.1045 17.883 28.1672 17.8975C28.6109 18.018 28.9871 18.3171 29.1993 18.7174C29.2668 18.8428 29.3151 18.9778 29.3536 19.1274C29.3633 19.1708 29.3681 19.2142 29.3729 19.2624L29.4453 20.8444L29.5852 22.4794C29.6093 22.4939 29.6286 22.5035 29.6527 22.5132C29.6623 22.5132 29.6671 22.5132 29.6768 22.518L30.5546 22.6627L31.8086 21.3749L31.8858 20.6756V20.6708C31.9147 20.4151 32.0546 20.1788 32.262 20.0293C32.4694 19.8798 32.7395 19.8219 32.9903 19.8749C32.9951 19.8749 32.9951 19.8749 32.9999 19.8749L33.6752 20.0245C34.0128 20.092 34.2877 20.3573 34.3793 20.6949C34.3842 20.7045 34.3842 20.7142 34.3842 20.7238L34.7362 22.3106C34.7604 22.3926 34.7652 22.4601 34.7652 22.5035L34.8424 23.7286L35.8214 23.3283C36.0722 23.227 36.3616 23.2752 36.5642 23.4537C36.7716 23.6321 36.8584 23.9071 36.7957 24.1723C36.6751 24.6547 36.5304 25.1418 36.3423 25.653C34.9967 29.3813 32.2813 32.362 28.6977 34.0453C26.6913 34.9809 24.5498 35.4584 22.3987 35.4584ZM9.88273 25.3926C10.5531 27.1434 11.5998 28.7639 12.9213 30.0855C14.3152 31.4794 15.9695 32.5308 17.8457 33.206C21.2074 34.4215 24.844 34.2526 28.0803 32.7334C31.2781 31.2334 33.7041 28.5903 34.934 25.2865C34.8616 25.3444 34.7748 25.3926 34.688 25.4215C34.4179 25.5228 34.1092 25.489 33.8633 25.3299C33.6221 25.1755 33.4629 24.9055 33.4436 24.6161V24.6112L33.3182 22.6145L33.1639 21.9248C33.1253 22.0261 33.0674 22.1225 32.9951 22.2093C32.9854 22.219 32.9758 22.2334 32.9662 22.2431L31.3986 23.854C31.1913 24.0711 30.8922 24.1772 30.5884 24.1289H30.5835L29.4646 23.9457C29.4549 23.9457 29.4501 23.9457 29.4405 23.9408C29.1125 23.8926 28.8135 23.7431 28.5675 23.5164C28.5627 23.5116 28.553 23.5019 28.5482 23.4971C28.418 23.3669 28.3118 23.227 28.2347 23.0823C28.1913 22.9955 28.1623 22.9039 28.1527 22.8074L27.9935 20.9553C27.9935 20.9457 27.9935 20.936 27.9935 20.9264L27.926 19.4167C27.9212 19.4071 27.9212 19.4023 27.9212 19.4023C27.9019 19.3685 27.8778 19.3396 27.844 19.3203L25.3456 19.3155C25.2781 19.3155 25.2154 19.3058 25.1527 19.2865C24.7283 19.1659 24.3714 18.891 24.1543 18.5148L23.3923 17.1981C23.3633 17.1499 23.3103 17.1065 23.2524 17.092C23.1897 17.0775 23.1318 17.0534 23.0788 17.0245L20.8891 15.8042C20.8891 15.8042 20.8891 15.8042 20.8843 15.8042L20.701 15.756C20.3682 15.6692 20.1077 15.3991 20.0354 15.0663L19.9245 14.5985C19.8666 14.3766 19.8955 14.1306 20.0113 13.9232C20.0113 13.9184 20.0161 13.9184 20.0161 13.9136L20.7781 12.5824C20.783 12.5776 20.783 12.5727 20.7878 12.5631C21.0338 12.1628 21.5354 12.0036 21.9598 12.1965L22.0707 12.2448C22.0997 12.1001 22.1672 11.9602 22.2685 11.8445C22.4373 11.6467 22.6785 11.5261 22.9389 11.5165C22.9437 11.5165 22.9485 11.5165 22.9534 11.5165L24.41 11.4827L24.3617 11.1306C24.3617 11.121 24.3569 11.1113 24.3569 11.1017C24.3135 10.6869 24.5546 10.2914 24.9453 10.1371C24.9501 10.1371 24.9501 10.1323 24.955 10.1323L27.1881 9.30268C27.1929 9.30268 27.1929 9.30268 27.1977 9.29785C27.516 9.18692 27.8778 9.25444 28.1237 9.47631L28.9389 10.1998L29.3922 9.9972L29.3729 9.1821C28.6061 8.71426 27.7861 8.32358 26.9324 8.0149C26.1849 7.74481 25.3987 7.53742 24.6029 7.40237C24.5932 7.40237 24.5788 7.39755 24.5691 7.39755C24.5595 7.39755 24.5498 7.39272 24.5402 7.39272C24.3328 7.35414 24.1109 7.3252 23.8939 7.30108H23.8746L23.7395 7.28661C23.6961 7.28179 23.6527 7.27697 23.6141 7.27697C23.5707 7.27214 23.5321 7.27214 23.4887 7.26732C23.426 7.26732 23.373 7.2625 23.3247 7.25768C23.0836 7.24321 22.828 7.23356 22.5289 7.22391C22.5241 7.22391 22.5241 7.22391 22.5241 7.22391C22.1672 7.21909 21.7862 7.23356 21.3955 7.25768L20.8071 7.31555C20.7251 7.3252 20.6431 7.33484 20.5418 7.34931C20.4936 7.35896 20.4405 7.36378 20.3923 7.37343C20.3489 7.37825 20.3055 7.3879 20.2621 7.39272C20.2331 7.39755 20.2042 7.40237 20.1753 7.40719C20.1608 7.40719 20.1511 7.41201 20.1367 7.41201C20.1126 7.41684 20.0884 7.42166 20.0643 7.42166C20.0499 7.42166 20.0161 7.43131 19.992 7.43613L19.5579 7.52295C19.5434 7.52777 19.5338 7.52777 19.5193 7.53259C19.4855 7.54224 19.447 7.55189 19.4132 7.55671C19.336 7.57118 19.2589 7.59047 19.172 7.61459C19.1431 7.62423 19.1142 7.62905 19.0852 7.6387C19.0708 7.64352 19.0611 7.64352 19.0466 7.64835C19.0274 7.65317 19.0129 7.65799 18.9936 7.66282C18.9743 7.66764 18.955 7.67246 18.9405 7.67246C18.9261 7.67729 18.9116 7.68211 18.902 7.68693C18.8875 7.69176 18.8682 7.69658 18.8489 7.7014L18.82 7.70622C18.8055 7.71105 18.7814 7.71587 18.7766 7.71587C18.7717 7.71587 18.7621 7.72069 18.7573 7.72069C18.7283 7.73034 18.7042 7.73516 18.6801 7.74481C18.6704 7.74963 18.656 7.74963 18.6463 7.75446C18.6319 7.75928 18.6126 7.7641 18.5981 7.76892C18.5788 7.77375 18.5595 7.77857 18.5354 7.78339C18.5258 7.78822 18.5065 7.79304 18.492 7.79786C18.4534 7.81233 18.41 7.82198 18.3666 7.83645C18.2991 7.86056 18.2364 7.87986 18.193 7.89433C18.1833 7.89915 18.1737 7.89915 18.164 7.90397C18.1399 7.91362 18.1061 7.92326 18.0676 7.93773C17.9373 7.98114 17.8119 8.02455 17.6865 8.07278C17.6576 8.08243 17.6335 8.09207 17.6045 8.10172C17.5901 8.10654 17.5708 8.11619 17.5515 8.12101C17.5322 8.13066 17.5129 8.13548 17.4888 8.14031C17.484 8.14031 17.4647 8.14995 17.4454 8.15477L17.4068 8.16924C17.1656 8.26571 16.9582 8.35252 16.7701 8.44416C16.7653 8.44898 16.7557 8.44898 16.7508 8.45381C16.7364 8.46345 16.7171 8.46828 16.6978 8.47792C16.6737 8.48757 16.6496 8.50204 16.6254 8.51169C16.0177 8.8059 15.4438 9.12904 14.9181 9.48113C14.9132 9.48595 14.9036 9.49078 14.8988 9.4956C14.8795 9.51007 14.8554 9.52454 14.8312 9.54383C14.8264 9.54866 14.8216 9.54865 14.8168 9.55348C14.5949 9.70299 14.3827 9.86216 14.1849 10.0117C14.1753 10.0165 14.1705 10.0213 14.1608 10.031C14.1271 10.0551 14.1126 10.0696 14.103 10.0744C14.0885 10.0888 14.0692 10.1033 14.0499 10.113C14.0354 10.1274 14.0065 10.1467 13.9727 10.1708C13.9293 10.2046 13.8907 10.2384 13.8425 10.2721C12.5451 11.3429 11.4792 12.6258 10.6737 14.0824C10.3168 14.7287 10.0178 15.3894 9.78144 16.0502C9.27984 17.4248 9.01457 18.8621 8.98563 20.3187V20.7528C9.00492 22.3106 9.28948 23.8395 9.83932 25.2913C9.85861 25.3347 9.87308 25.3636 9.88273 25.3926Z" fill="#06726F"/>
<path d="M22.3215 33.0614C22.1864 33.0614 22.0466 33.0421 21.9115 33.0083L20.9228 32.7575C20.2138 32.579 19.7025 31.9424 19.6736 31.2141L19.5675 28.7302C19.553 28.4022 19.635 28.0791 19.8087 27.7945L20.3295 26.936C20.3537 26.8926 20.3681 26.8492 20.3633 26.801L20.2041 24.1772C20.1993 24.0952 20.1463 24.0228 20.0739 23.9939L18.246 23.2029C18.0723 23.1306 17.9083 23.0196 17.7637 22.8846L16.336 21.5245C15.9743 21.182 15.791 20.7045 15.8248 20.2078L15.9743 17.9071C16.008 17.3669 16.3071 16.8702 16.7797 16.5904L20.0595 14.6081C20.3971 14.4055 20.7926 14.3284 21.1784 14.3863C21.1881 14.3863 21.1977 14.3911 21.2074 14.3911L21.2315 14.3959C21.2508 14.4007 21.2652 14.4007 21.2845 14.4055C21.3713 14.4248 21.4582 14.4586 21.5353 14.5068L23.7009 15.7174C24.0868 15.8428 24.4244 16.1129 24.6318 16.465L25.3938 17.7865C25.4131 17.8203 25.4372 17.8444 25.471 17.8637L27.9694 17.8685C28.0321 17.8685 28.0948 17.8782 28.1575 17.8927C28.6012 18.0132 28.9774 18.3123 29.1896 18.7126C29.2571 18.838 29.3054 18.973 29.3439 19.1226C29.3536 19.166 29.3584 19.2094 29.3632 19.2576L29.5031 22.383C29.5079 22.3926 29.5079 22.3974 29.5079 22.3974C29.5176 22.4167 29.5321 22.436 29.5513 22.4553C29.5803 22.4794 29.6092 22.4939 29.6382 22.5036C29.6478 22.5036 29.6526 22.5036 29.6623 22.5084C30.188 22.5952 30.6269 22.9135 30.8729 23.3862C31.1189 23.8589 31.1237 24.4039 30.8873 24.8814L30.4726 25.7254V25.7302C30.3375 26.0051 30.1301 26.2318 29.8745 26.3958L27.6173 27.8235C27.6173 27.8235 27.6125 27.8235 27.6125 27.8283C27.5739 27.8524 27.5401 27.8958 27.5305 27.9392V27.944L27.0819 29.444C26.9179 29.9794 26.508 30.399 25.9726 30.5582L24.9935 30.8524C24.9887 30.8524 24.9839 30.8572 24.979 30.8572L23.4067 32.6417C23.3681 32.6852 23.3247 32.7237 23.2813 32.7575C22.9967 32.9552 22.6591 33.0614 22.3215 33.0614ZM20.9035 15.8139C20.8697 15.8187 20.836 15.8284 20.8022 15.8477L17.5225 17.83C17.4598 17.8685 17.4212 17.9312 17.4164 17.9988L17.2669 20.3042C17.262 20.3717 17.2862 20.4296 17.3344 20.4778L18.7572 21.8331C18.7765 21.8524 18.8006 21.8669 18.8199 21.8766L20.6527 22.6675C21.2266 22.9135 21.6173 23.4778 21.6511 24.0952L21.8102 26.719C21.8102 26.7238 21.8102 26.7238 21.8102 26.7286C21.8247 27.0614 21.7475 27.3894 21.5739 27.6788C21.5739 27.6836 21.5691 27.6836 21.5691 27.6884L21.0434 28.5517C21.0241 28.5855 21.0096 28.6289 21.0144 28.6627C21.0144 28.6627 21.0144 28.6675 21.0144 28.6723L21.1205 31.161V31.1659C21.1254 31.2575 21.1881 31.3395 21.2797 31.3636L22.2684 31.6144C22.3118 31.6241 22.3601 31.6241 22.3987 31.6048L23.9662 29.825C23.9951 29.7913 24.0337 29.7575 24.0675 29.7286C24.2122 29.6177 24.381 29.5308 24.5739 29.473L25.5482 29.1787C25.6157 29.1595 25.6687 29.1016 25.6929 29.0292L26.1414 27.5341C26.2523 27.1482 26.5031 26.8154 26.8456 26.6032L29.0931 25.1756C29.1269 25.1563 29.151 25.1273 29.1703 25.0887L29.5851 24.2495C29.6237 24.1675 29.6092 24.1 29.5851 24.0566C29.5658 24.0228 29.5272 23.965 29.4452 23.9457C29.4404 23.9457 29.4356 23.9457 29.4308 23.9457C29.1028 23.8974 28.8038 23.7479 28.5578 23.5212C28.553 23.5164 28.5433 23.5068 28.5385 23.5019C28.4083 23.3717 28.3022 23.2318 28.225 23.0872C28.1623 22.9666 28.1092 22.8267 28.0755 22.682C28.0658 22.6386 28.061 22.5952 28.0562 22.547L27.9163 19.4216C27.9115 19.4119 27.9115 19.4071 27.9115 19.4071C27.8922 19.3734 27.8681 19.3444 27.8343 19.3251L25.3359 19.3203C25.2684 19.3203 25.2057 19.3107 25.143 19.2914C24.7186 19.1708 24.3617 18.8959 24.1446 18.5197L23.3729 17.1933C23.344 17.1403 23.2909 17.1017 23.2331 17.0872C23.1704 17.0727 23.1125 17.0486 23.0594 17.0197L20.9035 15.8139Z" fill="#06726F"/>
<path d="M9.19249 26.3476C9.14426 26.3476 9.10085 26.3427 9.05262 26.3331C8.80664 26.2849 8.60407 26.1112 8.51725 25.8797C7.26324 22.5711 7.23431 18.9151 8.43526 15.5872C8.70053 14.8444 9.03333 14.1065 9.424 13.4071C9.57352 13.137 9.87737 12.9923 10.1812 13.0454C10.4851 13.0985 10.7214 13.3396 10.7696 13.6483L11.3243 17.2367L11.7777 19.2335L12.7327 20.9408C12.8629 21.1772 12.8532 21.4617 12.7085 21.6884L11.5558 23.4682L10.4561 25.3009C10.432 25.3443 10.3983 25.3829 10.3645 25.4215L9.72303 26.116C9.58316 26.2656 9.39024 26.3476 9.19249 26.3476ZM9.71821 16.301C8.85487 18.838 8.77288 21.5727 9.47223 24.1386L10.3307 22.7061C10.3356 22.7013 10.3404 22.6916 10.3452 22.6868L11.2664 21.264L10.4706 19.846C10.4369 19.7833 10.4127 19.7206 10.3983 19.6531L9.91596 17.5309C9.91113 17.5164 9.91113 17.4971 9.90631 17.4827L9.71821 16.301Z" fill="#06726F"/>
<path d="M17.4062 11.0582C17.2712 11.0582 17.1361 11.0293 17.0107 10.9666C17.0059 10.9666 17.0059 10.9618 17.0011 10.9618L16.1474 10.518L13.8226 10.5759C13.6008 10.6193 13.3693 10.5711 13.1763 10.4457C12.94 10.2865 12.7953 10.0261 12.7857 9.74152C12.776 9.4666 12.9014 9.20133 13.1185 9.0277C16.403 6.40392 20.657 5.28978 24.7856 5.96984C24.9689 5.99878 25.1425 6.0856 25.2775 6.22064C25.2872 6.23029 25.3017 6.24476 25.3113 6.2544L26.5412 7.65793C26.5508 7.66758 26.5605 7.67722 26.5701 7.69169C26.7534 7.92803 26.8016 8.2367 26.7052 8.51645C26.6184 8.77207 26.4158 8.97464 26.1602 9.06146L23.9994 10.0068C23.9801 10.0164 23.9608 10.0213 23.9367 10.0309C23.8113 10.0743 23.71 10.0743 23.6714 10.0743C23.6618 10.0743 23.6522 10.0743 23.6425 10.0743L21.1152 9.97303C20.9946 9.9682 20.903 9.93927 20.8644 9.9248C20.8596 9.9248 20.8547 9.91997 20.8499 9.91997L20.5943 9.82833C20.3049 9.88621 19.62 10.055 19.022 10.2142L17.8692 10.9232C17.7294 11.01 17.5702 11.0582 17.4062 11.0582ZM16.2535 9.05181C16.3789 9.05181 16.5043 9.07593 16.6201 9.12898C16.6345 9.13381 16.649 9.14345 16.6586 9.14827L17.3773 9.51965L18.3419 8.92641C18.4094 8.883 18.4866 8.84924 18.5686 8.83477C20.5943 8.28976 20.6956 8.32834 20.9126 8.40069C20.9174 8.40069 20.9174 8.40069 20.9223 8.40551L21.2551 8.52609L23.5557 8.61773L24.9303 8.01484L24.3563 7.3589C21.3178 6.90553 18.2165 7.52288 15.5831 9.07593L16.0943 9.06146C16.1474 9.05663 16.2004 9.05181 16.2535 9.05181Z" fill="#06726F"/>
<path d="M35.0832 9.05183H33.6362V4.68209C33.6362 4.28177 33.9594 3.95862 34.3597 3.95862H38.3195V5.40555H35.0832V9.05183Z" fill="#06726F"/>
<path d="M2.60448 18.9345C2.54178 18.9345 2.47908 18.9248 2.41638 18.9104C2.2331 18.8621 2.07394 18.7416 1.97748 18.5727L0 15.1435L1.25401 14.42L2.86975 17.2223L6.02889 15.3991L6.75236 16.6531L2.96622 18.838C2.85528 18.9007 2.72988 18.9345 2.60448 18.9345Z" fill="#06726F"/>
<path d="M28.8472 42.7365L27.5932 42.013L29.2089 39.2108L26.0498 37.3877L26.7733 36.1337L30.5594 38.3185C30.9067 38.5163 31.0224 38.96 30.8247 39.3073L28.8472 42.7365Z" fill="#06726F"/>
</svg>
