<svg width="1440" height="969" viewBox="0 0 1440 969" fill="none" xmlns="http://www.w3.org/2000/svg">
<path fill-rule="evenodd" clip-rule="evenodd" d="M1440 0H0V969H1440V0ZM1125.5 163C972.181 163 848 286.853 848 439.502V466.893C853.147 317.919 975.929 198.825 1126.51 198.825C1268.47 198.825 1385.71 304.662 1403 441.596V439.502C1403 286.853 1278.82 163 1125.5 163ZM848 968.575V968.301H885.832V476.631C885.832 344.25 993.528 236.825 1126.51 236.825C1259.5 236.825 1367.19 344.25 1367.19 476.631V968.301H1403V968.575H1440V439.502C1440 266.3 1299.13 126 1125.5 126C951.864 126 811 266.3 811 439.502V968.575H848Z" fill="black"/>
</svg>
