<svg width="12" height="22" viewBox="0 0 12 22" fill="none" xmlns="http://www.w3.org/2000/svg">
<path d="M4.72849e-07 11C4.84349e-07 10.7369 0.0458026 10.4824 0.137406 10.2364C0.229009 9.98912 0.351146 9.78326 0.503818 9.61883L8.9313 0.5426C9.26718 0.180866 9.69466 -1.0077e-07 10.2137 -7.80798e-08C10.7328 -5.539e-08 11.1603 0.180866 11.4962 0.5426C11.8321 0.904334 12 1.36472 12 1.92377C12 2.48281 11.8321 2.9432 11.4962 3.30493L4.35114 11L11.4962 18.6951C11.8321 19.0568 12 19.5172 12 20.0762C12 20.6353 11.8321 21.0957 11.4962 21.4574C11.1603 21.8191 10.7328 22 10.2137 22C9.69466 22 9.26717 21.8191 8.9313 21.4574L0.503818 12.3812C0.320611 12.1839 0.191146 11.9701 0.115421 11.7399C0.0384745 11.5097 4.6135e-07 11.2631 4.72849e-07 11Z" fill="#813AB6"/>
</svg>
