<svg width="12" height="22" viewBox="0 0 12 22" fill="none" xmlns="http://www.w3.org/2000/svg">
<path d="M12 11C12 11.2631 11.9542 11.5176 11.8626 11.7636C11.771 12.0109 11.6489 12.2167 11.4962 12.3812L3.0687 21.4574C2.73282 21.8191 2.30534 22 1.78626 22C1.26717 22 0.839694 21.8191 0.503816 21.4574C0.167938 21.0957 1.62742e-08 20.6353 2.29407e-08 20.0762C2.96072e-08 19.5172 0.167938 19.0568 0.503816 18.6951L7.64885 11L0.503816 3.30494C0.167938 2.9432 2.3274e-07 2.48281 2.39407e-07 1.92377C2.46073e-07 1.36473 0.167938 0.904339 0.503816 0.542604C0.839694 0.18087 1.26717 1.51109e-08 1.78626 2.13009e-08C2.30534 2.74909e-08 2.73282 0.18087 3.0687 0.542604L11.4962 9.61884C11.6794 9.81615 11.8089 10.0299 11.8846 10.2601C11.9615 10.4903 12 10.7369 12 11Z" fill="#813AB6"/>
</svg>
